<?xml version="1.0" standalone="no"?>
<!DOCTYPE svg PUBLIC "-//W3C//DTD SVG 1.1//EN" "http://www.w3.org/Graphics/SVG/1.1/DTD/svg11.dtd" >
<svg xmlns="http://www.w3.org/2000/svg" xmlns:xlink="http://www.w3.org/1999/xlink" version="1.1">
<metadata></metadata>
<defs>
<font id="fieldwork23hum_fat" horiz-adv-x="1131" >
<font-face units-per-em="2048" ascent="1638" descent="-410" />
<missing-glyph horiz-adv-x="519" />
<glyph unicode="&#xfb01;" horiz-adv-x="1396" d="M18 635v325h138v69q0 56 10.5 107t40 106t77 94.5t128 65t185.5 25.5q72 0 134.5 -12t87.5 -24l-42 -310q-48 21 -128 21q-46 0 -75.5 -23.5t-29.5 -75.5v-43h193v-325h-176v-635h-403v635h-140zM889 1256q0 104 63 168.5t166 64.5q104 0 168 -64.5t64 -168.5 q0 -103 -64 -166t-168 -63q-103 0 -166 63t-63 166zM905 0v960h418v-960h-418z" />
<glyph unicode="&#xfb02;" horiz-adv-x="1376" d="M18 635v325h138v69q0 56 10.5 107t40 106t77 94.5t128 65t185.5 25.5q72 0 134.5 -12t87.5 -24l-42 -310q-48 21 -128 21q-46 0 -75.5 -23.5t-29.5 -75.5v-43h241v-325h-224v-635h-403v635h-140zM903 0v1408h418v-1408h-418z" />
<glyph unicode="&#xfb03;" horiz-adv-x="2089" d="M18 635v325h138v69q0 59 11.5 111.5t44 106.5t83 93t134.5 63.5t194 24.5q111 0 229 -32l-42 -324q-61 32 -151 32q-51 -1 -83 -25.5t-32 -73.5v-45h335v69q0 56 10.5 107t40 106t77 94.5t128 65t185.5 25.5q72 0 134.5 -12t87.5 -24l-42 -310q-48 21 -128 21 q-46 0 -75.5 -23.5t-29.5 -75.5v-43h193v-325h-176v-635h-403v635h-320v-635h-403v635h-140zM1582 1256q0 104 63 168.5t166 64.5q104 0 168 -64.5t64 -168.5q0 -103 -64 -166t-168 -63q-103 0 -166 63t-63 166zM1598 0v960h418v-960h-418z" />
<glyph unicode="&#xfb04;" horiz-adv-x="2017" d="M18 635v325h138v69q0 59 11.5 111.5t44 106.5t83 93t134.5 63.5t194 24.5q111 0 229 -32l-42 -324q-61 32 -151 32q-51 -1 -83 -25.5t-32 -73.5v-45h306v69q0 59 11.5 111.5t44 106.5t83 93t134.5 63.5t194 24.5q111 0 229 -32l-42 -324q-61 32 -151 32q-51 -1 -83 -25.5 t-32 -73.5v-45h241v-325h-224v-635h-403v635h-291v-635h-403v635h-140zM1578 0v1408h418v-1408h-418z" />
<glyph horiz-adv-x="0" />
<glyph unicode="&#xd;" horiz-adv-x="484" />
<glyph horiz-adv-x="484" />
<glyph unicode=" "  horiz-adv-x="519" />
<glyph unicode="&#x09;" horiz-adv-x="519" />
<glyph unicode="&#xa0;" horiz-adv-x="519" />
<glyph unicode="!" horiz-adv-x="537" d="M55 188q0 89 61 149t152 60q90 0 152 -60.5t62 -148.5t-62 -148t-152 -60q-91 0 -152 60t-61 148zM56 1358h422l-72 -875h-270z" />
<glyph unicode="&#x22;" horiz-adv-x="905" d="M41 1428h359l-68 -510h-223zM505 1428h359l-69 -510h-222z" />
<glyph unicode="#" horiz-adv-x="1431" d="M25 277l52 296h203l42 223h-205l56 295h205l48 267h328l-44 -267h168l47 267h330l-47 -267h199l-52 -295h-204l-41 -223h203l-54 -296h-201l-49 -277h-330l48 277h-170l-47 -277h-331l47 277h-201zM609 573h171l43 223h-171z" />
<glyph unicode="$" horiz-adv-x="1011" d="M32 889q0 93 49.5 174t121.5 130t151 67l-27 246h347l-27 -235q170 -10 287 -70l-32 -335q-65 35 -161 59t-202 24q-52 0 -76 -10t-24 -37q0 -16 34 -31.5t98 -33.5t79 -23q162 -57 248.5 -140t86.5 -214q0 -147 -85.5 -245.5t-242.5 -125.5l27 -239h-343l26 231 q-97 8 -193 30.5t-139 48.5l32 356q67 -39 182.5 -70t234.5 -31q93 0 93 41q0 13 -12 22t-49 24q-32 13 -93 31.5t-108 32t-103 41.5t-93 62t-62 90.5t-25 129.5z" />
<glyph unicode="%" horiz-adv-x="1889" d="M110 1001q0 165 104 271t270 106q167 0 272.5 -106t105.5 -271q0 -161 -105.5 -264t-272.5 -103q-166 0 -270 103t-104 264zM384 1002q0 -46 28 -76.5t72 -30.5q45 0 73 30.5t28 76.5q0 47 -28 77.5t-73 30.5t-72.5 -30.5t-27.5 -77.5zM466 0v26l734 1332h255v-24 l-732 -1334h-257zM1059 347q0 165 104 271t270 106q167 0 272.5 -106t105.5 -271q0 -161 -105.5 -264t-272.5 -103q-166 0 -270 103t-104 264zM1333 348q0 -46 28 -76.5t72 -30.5q45 0 73 30.5t28 76.5q0 47 -28 77.5t-73 30.5t-72.5 -30.5t-27.5 -77.5z" />
<glyph unicode="&#x26;" horiz-adv-x="1625" d="M30 422q0 110 65.5 210.5t174.5 153.5q-71 100 -71 208q0 102 41.5 178.5t113.5 120.5t158.5 65t186.5 21q169 0 318 -64l-31 -332q-101 57 -255 57q-58 0 -94 -24t-36 -71q0 -20 9 -39.5t27.5 -38t33 -31t39 -31.5t32.5 -25l261 -213q28 65 36 102.5t8 101.5h373 q-2 -136 -28 -235.5t-109 -206.5l363 -329h-495l-103 103q-89 -62 -205 -92.5t-231 -30.5q-87 0 -170 17t-157.5 53.5t-131 87.5t-90 124.5t-33.5 159.5zM431 475q0 -85 56.5 -125.5t132.5 -40.5q92 0 144 37l-267 243q-66 -42 -66 -114z" />
<glyph unicode="'" horiz-adv-x="441" d="M41 1428h359l-68 -510h-223z" />
<glyph unicode="(" horiz-adv-x="747" d="M33 580q0 550 340 980h365q-84 -134 -142 -249t-91 -203.5t-50 -184t-21.5 -167t-4.5 -176.5q0 -106 4 -176.5t21 -167t49 -184t90 -203t142 -249.5h-364q-75 98 -132.5 196.5t-106 219.5t-74 263.5t-25.5 300.5z" />
<glyph unicode=")" horiz-adv-x="747" d="M9 -400q84 134 142 249t91 203.5t50 184t21.5 167t4.5 176.5q0 106 -4 176.5t-21 167t-49 184t-90 203t-142 249.5h363q159 -206 249 -442t90 -538q0 -552 -340 -980h-365z" />
<glyph unicode="*" horiz-adv-x="867" d="M29 1038l85 238l206 -70l-18 202h263l-18 -202l206 70l85 -238l-215 -56l132 -148l-224 -154l-97 172l-99 -172l-223 155l132 147z" />
<glyph unicode="+" horiz-adv-x="1223" d="M25 510v348h381v351h407v-351h385v-348h-385v-359h-407v359h-381z" />
<glyph unicode="," horiz-adv-x="590" d="M13 -263l144 516h390l-218 -516h-316z" />
<glyph unicode="-" horiz-adv-x="879" d="M48 379v289h783v-289h-783z" />
<glyph unicode="." horiz-adv-x="503" d="M38 188q0 89 61 149t152 60q90 0 152 -60.5t62 -148.5t-62 -148t-152 -60q-91 0 -152 60t-61 148z" />
<glyph unicode="/" horiz-adv-x="1171" d="M16 -400l757 1929h383l-758 -1929h-382z" />
<glyph unicode="0" horiz-adv-x="1322" d="M39 661q0 155 36.5 282.5t110 226.5t195 153.5t281.5 54.5q134 0 241 -40.5t177 -109t116.5 -162t66.5 -194t20 -211.5q0 -153 -36.5 -276t-111 -214.5t-194.5 -141t-279 -49.5t-279.5 49.5t-195 140.5t-111.5 214t-37 277zM451 680q0 -97 20 -173.5t69 -127t122 -50.5 q58 0 101 32t65.5 86t32.5 111.5t10 121.5q0 72 -11.5 133t-35.5 110t-65.5 77t-96.5 28q-59 0 -102 -31.5t-65.5 -84t-33 -110.5t-10.5 -122z" />
<glyph unicode="1" horiz-adv-x="802" d="M14 1004v354h721v-1358h-417v1004h-304z" />
<glyph unicode="2" horiz-adv-x="1148" d="M32 -2v293l481 388q68 55 91 102t23 105q0 55 -45.5 102t-146.5 47q-109 0 -206.5 -34t-143.5 -67l-41 351q198 93 432 93q90 0 171.5 -14t158 -47t131.5 -83t88 -127.5t33 -175.5q0 -27 -1.5 -46t-10.5 -58t-25.5 -72t-50.5 -82.5t-81.5 -96.5t-122 -106t-168.5 -119 h518v-353h-1084z" />
<glyph unicode="3" horiz-adv-x="1163" d="M28 76l40 341q40 -27 174 -62.5t253 -35.5q86 0 147 28t61 89q0 46 -52 76.5t-147 30.5q-94 0 -148 -18v241l234 238h-496v354h970v-283l-311 -294q97 -8 180.5 -53.5t138.5 -130t55 -190.5q0 -426 -594 -426q-125 0 -262 27.5t-243 67.5z" />
<glyph unicode="4" horiz-adv-x="1265" d="M21 287v260l391 811h445l-387 -751h211v231h379v-231h186v-320h-186v-287h-386v287h-653z" />
<glyph unicode="5" horiz-adv-x="1157" d="M31 85l64 348q46 -35 159 -70.5t213 -35.5q112 0 171.5 34t59.5 96q0 49 -45.5 82t-110.5 45.5t-146 12.5q-154 0 -242 -35l-74 59l96 737h917v-354h-598l-12 -121q48 4 103 4q260 0 399 -110t139 -310q0 -234 -150.5 -360.5t-459.5 -126.5q-279 0 -483 105z" />
<glyph unicode="6" horiz-adv-x="1247" d="M40 598q0 386 179 583t517 197q121 0 212 -20t184 -62l-31 -333q-73 42 -166 69t-180 27q-58 0 -107 -13t-91 -41t-70.5 -77t-39.5 -116q31 44 109.5 84t183.5 40q97 0 181.5 -27.5t150.5 -81t104.5 -140.5t38.5 -197q0 -163 -75 -280t-203 -173.5t-295 -56.5 q-124 0 -225 32.5t-170 89.5t-116.5 135.5t-69 169t-21.5 191.5zM469 477q0 -69 46 -110.5t124 -41.5t124 41.5t46 110.5t-46.5 111t-123.5 42q-78 0 -124 -42t-46 -111z" />
<glyph unicode="7" horiz-adv-x="1101" d="M20 998v360h1065v-268l-518 -1090h-463l524 998h-608z" />
<glyph unicode="8" horiz-adv-x="1248" d="M40 389q0 209 244 326q-95 36 -157 105.5t-62 163.5q0 85 32.5 153t86.5 112t127.5 74t151 42.5t160.5 12.5t160.5 -13t151 -42.5t128 -74t87.5 -112.5t33 -152q0 -94 -63 -163.5t-160 -105.5q248 -118 248 -326q0 -93 -36.5 -166t-94.5 -117.5t-137 -74t-156.5 -40.5 t-160.5 -11t-160.5 11.5t-156 40.5t-136 74t-94 117.5t-36.5 165.5zM458 424q0 -53 44 -88.5t118 -35.5t117.5 35.5t43.5 88.5q0 56 -44 93t-117 37q-74 0 -118 -37t-44 -93zM489 952q0 -44 38 -75t95 -31q56 0 93.5 31t37.5 75q0 48 -36.5 77t-94.5 29q-59 0 -96 -29 t-37 -77z" />
<glyph unicode="9" horiz-adv-x="1247" d="M32 868q0 163 75 280t203 173.5t295 56.5q124 0 225 -32.5t170 -89.5t116.5 -135.5t69 -169t21.5 -191.5q0 -386 -179 -583t-517 -197q-121 0 -212 20t-184 62l31 333q73 -42 166 -69t180 -27q58 0 107 13t91 41t70.5 77t39.5 116q-31 -44 -109.5 -84t-183.5 -40 q-97 0 -181.5 27.5t-150.5 81t-104.5 140.5t-38.5 197zM438 881q0 -69 46.5 -111t123.5 -42q78 0 124 42t46 111t-46 110.5t-124 41.5t-124 -41.5t-46 -110.5z" />
<glyph unicode=":" horiz-adv-x="523" d="M48 188q0 89 61 149t152 60q90 0 152 -60.5t62 -148.5t-62 -148t-152 -60q-91 0 -152 60t-61 148zM48 770q0 89 61 149.5t152 60.5q90 0 152 -61t62 -149q0 -87 -62 -147.5t-152 -60.5t-151.5 60.5t-61.5 147.5z" />
<glyph unicode=";" horiz-adv-x="620" d="M21 -263l144 516h390l-218 -516h-316zM146 770q0 89 61 149.5t152 60.5q90 0 152 -61t62 -149q0 -87 -62 -147.5t-152 -60.5t-151.5 60.5t-61.5 147.5z" />
<glyph unicode="&#x3c;" horiz-adv-x="1192" d="M32 537v287l1115 501v-397l-581 -247l581 -255v-396z" />
<glyph unicode="=" horiz-adv-x="1209" d="M50 289v351h1109v-351h-1109zM50 721v350h1109v-350h-1109z" />
<glyph unicode="&#x3e;" horiz-adv-x="1192" d="M45 35v396l581 247l-581 256v395l1115 -507v-287z" />
<glyph unicode="?" horiz-adv-x="1023" d="M22 1279q196 99 420 99q88 0 166.5 -13.5t150 -44.5t123.5 -78t82.5 -118t30.5 -160q0 -47 -11 -88t-37.5 -77t-53.5 -64t-76 -60.5t-86 -54.5t-102 -58l-31 -96h-316l-39 193q25 16 72.5 41.5t80.5 45t67.5 45t53 54.5t18.5 61q0 120 -150 120q-80 0 -174.5 -28 t-153.5 -55zM226 188q0 88 61.5 148.5t151.5 60.5q91 0 152.5 -60t61.5 -149q0 -88 -61.5 -148t-152.5 -60q-90 0 -151.5 60t-61.5 148z" />
<glyph unicode="@" horiz-adv-x="1791" d="M30 541q0 192 69.5 355t189 274t282.5 173.5t348 62.5q171 0 325.5 -62.5t267 -170.5t179 -260.5t66.5 -323.5q0 -237 -99 -372.5t-245 -136.5q-207 0 -288 143q-94 -158 -326 -158q-178 0 -287 132t-109 330q0 199 107 332t277 133q145 0 222 -97l19 72h338v-601 q0 -35 17 -60.5t57 -25.5q117 0 117 309q0 129 -49 244t-134 198.5t-205.5 132t-258.5 48.5q-202 0 -357.5 -84t-241 -237t-85.5 -352q0 -187 88.5 -339t243 -238t341.5 -86q219 0 412 114l76 -170q-235 -139 -488 -139q-175 0 -334 63.5t-277 175t-188 273.5t-70 348z M764 526q0 -66 35 -103.5t98 -37.5q60 0 93.5 37.5t33.5 103.5q0 68 -33.5 105.5t-93.5 37.5q-64 0 -98.5 -37.5t-34.5 -105.5z" />
<glyph unicode="A" horiz-adv-x="1579" d="M16 0l515 1358h519l513 -1358h-463l-86 216h-451l-84 -216h-463zM653 539h273l-136 419z" />
<glyph unicode="B" horiz-adv-x="1342" d="M76 0v1358h743q111 0 203.5 -40.5t150 -122.5t57.5 -191q0 -210 -170 -307q120 -40 179 -126t59 -200q0 -170 -118 -270.5t-296 -100.5h-808zM489 292h254q51 0 82.5 33.5t31.5 84.5q0 54 -31 89.5t-83 35.5h-254v-243zM489 838h238q42 0 66.5 30t24.5 79q0 44 -26 71 t-72 27h-231v-207z" />
<glyph unicode="C" horiz-adv-x="1349" d="M44 679q0 137 42 252t117 196.5t177.5 138t223 84t255.5 28.5q222 0 419 -80l-32 -369q-158 79 -354 79q-66 0 -124.5 -10.5t-110.5 -35t-89 -61t-59 -92t-22 -124.5q0 -70 24 -126.5t63.5 -94t94.5 -63t114 -36.5t124 -11q165 0 339 107l69 -365q-124 -71 -239.5 -93.5 t-266.5 -22.5q-158 0 -297.5 49.5t-243 138.5t-164 221.5t-60.5 289.5z" />
<glyph unicode="D" horiz-adv-x="1470" d="M76 0v1358h634q340 0 527 -170t187 -503q0 -337 -185 -511t-529 -174h-634zM501 348h188q138 0 217 91t79 246q0 161 -80 241.5t-216 80.5h-188v-659z" />
<glyph unicode="E" horiz-adv-x="1191" d="M76 0v1358h1068v-342h-634v-160h575v-339h-575v-178h637v-339h-1071z" />
<glyph unicode="F" horiz-adv-x="1140" d="M76 0v1358h1034v-340h-600v-171h470v-341h-470v-506h-434z" />
<glyph unicode="G" horiz-adv-x="1495" d="M44 682q0 144 45 261.5t121.5 197t181 134t221 79t244.5 24.5q308 0 503 -93l-31 -365q-84 39 -193.5 64t-217.5 25q-435 0 -435 -330q0 -81 31.5 -146t85.5 -105.5t123 -61.5t147 -21q110 0 186 36v126h-262v300h648v-668q-126 -81 -282.5 -120.5t-318.5 -39.5 q-195 0 -347.5 52t-250.5 146.5t-148.5 222.5t-50.5 282z" />
<glyph unicode="H" horiz-adv-x="1503" d="M76 0v1358h434v-496h483v496h434v-1358h-434v522h-483v-522h-434z" />
<glyph unicode="I" horiz-adv-x="586" d="M76 0v1358h434v-1358h-434z" />
<glyph unicode="J" horiz-adv-x="1132" d="M24 80l45 334q74 -36 174.5 -59t189.5 -23q65 0 107.5 15t64 46.5t29 68t7.5 90.5v461h-452v345h871v-920q0 -95 -33.5 -173t-89.5 -130t-130 -87.5t-152.5 -51.5t-160.5 -16q-126 0 -232.5 21t-237.5 79z" />
<glyph unicode="K" horiz-adv-x="1516" d="M76 0v1358h432v-530h162l276 531h473l-424 -705l524 -654h-510l-368 487h-133v-487h-432z" />
<glyph unicode="L" horiz-adv-x="1166" d="M76 0v1358h434v-1019h633v-339h-1067z" />
<glyph unicode="M" horiz-adv-x="1742" d="M76 0v1358h344l451 -512l450 512h345v-1358h-419v709l-352 -393h-44l-358 394v-710h-417z" />
<glyph unicode="N" horiz-adv-x="1498" d="M76 0v1358h347l581 -674v674h418v-1358h-324l-605 665v-665h-417z" />
<glyph unicode="O" horiz-adv-x="1544" d="M44 681q0 203 92 362t258.5 247t379.5 88q212 0 377.5 -88.5t257 -247.5t91.5 -362q0 -204 -91.5 -363.5t-257 -248t-377.5 -88.5q-213 0 -379.5 88.5t-258.5 248.5t-92 364zM482 680q0 -143 80.5 -231t212.5 -88q129 0 207.5 88t78.5 231q0 140 -78.5 226.5t-207.5 86.5 q-132 0 -212.5 -86.5t-80.5 -226.5z" />
<glyph unicode="P" horiz-adv-x="1354" d="M76 0v1358h709q132 0 236 -39t168 -107t97.5 -155.5t33.5 -188.5q0 -82 -20.5 -157.5t-64 -140.5t-105.5 -112.5t-150.5 -75t-194.5 -27.5h-275v-355h-434zM510 708h185q186 0 186 147q0 81 -46 114.5t-140 33.5h-185v-295z" />
<glyph unicode="Q" horiz-adv-x="1544" d="M44 681q0 203 92 362t258.5 247t379.5 88q212 0 377.5 -88.5t257 -247.5t91.5 -362q0 -222 -107.5 -389.5t-295.5 -248.5q126 -99 313 -99q145 0 285 58l18 -340q-141 -50 -305 -50q-148 0 -285.5 41.5t-254.5 127t-186 205.5q-287 28 -462.5 219t-175.5 477zM482 680 q0 -143 80.5 -231t212.5 -88q129 0 207.5 88t78.5 231q0 140 -78.5 226.5t-207.5 86.5q-132 0 -212.5 -86.5t-80.5 -226.5z" />
<glyph unicode="R" horiz-adv-x="1432" d="M76 0v1358h709q132 0 235.5 -38.5t168 -106.5t98 -156t33.5 -190q0 -148 -73 -261.5t-174 -151.5l330 -455h-512l-252 362h-134v-361h-429zM505 708h190q186 0 186 147q0 78 -46 111.5t-140 33.5h-190v-292z" />
<glyph unicode="S" horiz-adv-x="1245" d="M46 957q0 195 165 308.5t437 113.5q283 0 475 -89l-36 -368q-186 106 -416 106q-87 0 -135 -17t-48 -65q0 -14 8 -24.5t28 -19.5t35 -14.5t46 -14.5l227 -67q181 -53 277.5 -147t96.5 -245q0 -196 -158 -316t-426 -120q-317 0 -575 116l47 366q70 -37 126 -60t156 -43.5 t214 -20.5q151 0 151 72q0 49 -97 76l-208 57q-60 17 -110 36.5t-104 54t-91 77t-61 106.5t-24 142z" />
<glyph unicode="T" horiz-adv-x="1253" d="M22 1010v348h1209v-348h-395v-1010h-435v1010h-379z" />
<glyph unicode="U" horiz-adv-x="1444" d="M71 514v844h416v-801q0 -99 70 -155t164 -56q97 0 166.5 57.5t69.5 153.5v801h416v-844q0 -106 -37.5 -195.5t-100.5 -151t-147 -104.5t-177 -63t-190 -20q-131 0 -247 34.5t-206.5 99.5t-143.5 168.5t-53 231.5z" />
<glyph unicode="V" horiz-adv-x="1563" d="M18 1358h479l287 -948l282 948h479l-464 -1358h-595z" />
<glyph unicode="W" horiz-adv-x="2179" d="M23 1358h423l210 -889l274 870h319l274 -870l211 889h422l-357 -1358h-492l-218 607l-216 -607h-493z" />
<glyph unicode="X" horiz-adv-x="1590" d="M14 0l518 695l-494 663h495l262 -347l251 347h507l-488 -666l512 -692h-494l-288 389l-276 -389h-505z" />
<glyph unicode="Y" horiz-adv-x="1634" d="M16 1358h499l302 -500l317 500h484l-584 -867v-491h-428v491z" />
<glyph unicode="Z" horiz-adv-x="1296" d="M42 0v310l654 708h-630v340h1172v-321l-646 -684h663v-353h-1213z" />
<glyph unicode="[" horiz-adv-x="811" d="M63 -400v1953h732v-283h-337v-1387h337v-283h-732z" />
<glyph unicode="\" horiz-adv-x="1171" d="M15 1529h383l757 -1929h-382z" />
<glyph unicode="]" horiz-adv-x="811" d="M16 -117h337v1387h-337v283h732v-1953h-732v283z" />
<glyph unicode="^" horiz-adv-x="1304" d="M25 510l484 848h292l478 -848h-418l-205 409l-215 -409h-416z" />
<glyph unicode="_" horiz-adv-x="1112" d="M39 -39h1034v-275h-1034v275z" />
<glyph unicode="`" horiz-adv-x="748" d="M56 1807h467l169 -334h-337z" />
<glyph unicode="a" horiz-adv-x="1061" d="M32 265q0 66 24 121t64 91.5t93.5 61.5t110.5 36t117 11q106 0 151 -15q0 40 -45.5 60.5t-105.5 20.5q-88 0 -185 -24t-143 -59l-34 315q52 31 167 63.5t265 32.5q81 0 151 -10.5t135.5 -37t111.5 -67.5t73.5 -106.5t27.5 -149.5v-609h-356l-12 104q-50 -63 -127 -93 t-163 -30q-61 0 -116.5 16.5t-102 49.5t-74 89t-27.5 129zM411 326q0 -29 20 -44.5t55 -15.5q41 0 76 29t35 83q-36 18 -84 18q-44 0 -73 -17.5t-29 -52.5z" />
<glyph unicode="b" horiz-adv-x="1186" d="M55 0v1407h423v-526q91 99 249 99q183 0 305.5 -144t122.5 -357q0 -212 -122.5 -355.5t-305.5 -143.5q-66 0 -115.5 17.5t-75.5 40t-52 58.5l-9 -96h-420zM468 480q0 -72 40.5 -115t108.5 -43q69 0 110.5 43t41.5 115q0 71 -41.5 116t-110.5 45q-68 0 -108.5 -44.5 t-40.5 -116.5z" />
<glyph unicode="c" horiz-adv-x="930" d="M31 484q0 214 141 355t373 141q214 0 342 -55l-35 -322q-93 35 -224 35q-94 0 -141.5 -43.5t-47.5 -111.5q0 -70 50 -110.5t145 -40.5q50 0 114.5 10t108.5 27l48 -318q-37 -25 -140.5 -48t-216.5 -23q-234 0 -375.5 139.5t-141.5 364.5z" />
<glyph unicode="d" horiz-adv-x="1186" d="M31 479q0 213 122.5 357t305.5 144q158 0 249 -99v526h423v-1407h-420l-9 96q-39 -54 -93.5 -85t-149.5 -31q-183 0 -305.5 143.5t-122.5 355.5zM417 480q0 -72 41.5 -115t110.5 -43q68 0 108.5 43t40.5 115t-40.5 116.5t-108.5 44.5q-69 0 -110.5 -45t-41.5 -116z" />
<glyph unicode="e" horiz-adv-x="1049" d="M31 483q0 226 139 361.5t375 135.5q219 0 346 -115.5t127 -343.5q0 -59 -9 -126h-593q1 -42 65.5 -71.5t150.5 -29.5q165 0 308 59l43 -290q-58 -32 -159 -57.5t-218 -25.5q-271 0 -423 136.5t-152 366.5zM415 583h228q0 42 -29.5 70t-78.5 28q-111 0 -120 -98z" />
<glyph unicode="f" horiz-adv-x="813" d="M18 635v325h138v69q0 59 11.5 111.5t44 106.5t83 93t134.5 63.5t194 24.5q111 0 229 -32l-42 -324q-61 32 -151 32q-51 -1 -83 -25.5t-32 -73.5v-45h241v-325h-224v-635h-403v635h-140z" />
<glyph unicode="g" horiz-adv-x="1119" d="M29 -173q0 63 42.5 114.5t114.5 82.5q-69 60 -69 143q0 105 118 181q-167 116 -167 276q0 88 38.5 157.5t104 112t147 64.5t173.5 22q108 0 184 -20h389v-274h-120q10 -30 10 -62q0 -85 -38.5 -154t-102.5 -111t-141.5 -64.5t-160.5 -22.5q-63 0 -131 12q-17 -12 -17 -40 q0 -40 41 -40h248q205 0 305 -81t100 -231q0 -331 -543 -331q-525 0 -525 266zM357 -98q0 -34 46 -44.5t149 -10.5q188 0 188 46q0 38 -86 38h-287q-10 -11 -10 -29zM412 624q0 -42 31 -65.5t88 -23.5t88 23.5t31 65.5t-31.5 66t-88.5 24q-56 0 -87 -24t-31 -66z" />
<glyph unicode="h" d="M55 0v1408h418v-506q98 78 269 78q157 0 247.5 -91.5t90.5 -234.5v-654h-418v528q0 39 -24.5 66t-70.5 27q-45 0 -69.5 -27t-24.5 -66v-528h-418z" />
<glyph unicode="i" horiz-adv-x="528" d="M33 1256q0 105 63 169t166 64q104 0 168 -64.5t64 -168.5q0 -102 -64 -165.5t-168 -63.5q-103 0 -166 63.5t-63 165.5zM55 0v960h418v-960h-418z" />
<glyph unicode="j" horiz-adv-x="495" d="M-216 -371l35 308q54 -24 105 -24t82.5 29t31.5 92v925h402v-969q0 -85 -26 -156t-68 -117t-96 -77.5t-107.5 -45.5t-104.5 -14q-150 0 -254 49zM10 1256q0 105 63 169t166 64q104 0 168 -64.5t64 -168.5q0 -102 -64 -165.5t-168 -63.5q-103 0 -166 63.5t-63 165.5z" />
<glyph unicode="k" horiz-adv-x="1164" d="M55 0v1408h402v-732h82l146 284h452l-281 -465l368 -495h-491l-207 320h-69v-320h-402z" />
<glyph unicode="l" horiz-adv-x="528" d="M55 0v1408h418v-1408h-418z" />
<glyph unicode="m" horiz-adv-x="1727" d="M55 0v960h373l17 -88q34 39 75 63.5t89 33t71 10t67 1.5q85 0 163 -37.5t109 -109.5q112 147 308 147q43 0 87.5 -9.5t92.5 -33t84.5 -59.5t60.5 -94t24 -130v-654h-417v528q0 38 -25.5 65.5t-71.5 27.5q-45 0 -69 -27t-24 -66v-528h-405v528q0 39 -25 66t-72 27 q-45 0 -69.5 -27t-24.5 -66v-528h-418z" />
<glyph unicode="n" horiz-adv-x="1132" d="M55 0v960h380l9 -88q39 46 116 77t182 31q158 0 248.5 -91.5t90.5 -234.5v-654h-419v528q0 39 -24 66t-71 27q-45 0 -69.5 -27t-24.5 -66v-528h-418z" />
<glyph unicode="o" d="M30 480q0 226 146.5 363t388.5 137t389 -137t147 -363q0 -227 -146.5 -363.5t-389.5 -136.5q-242 0 -388.5 136.5t-146.5 363.5zM418 480q0 -72 40.5 -116t106.5 -44q67 0 107 44t40 116q0 71 -40.5 114.5t-106.5 43.5t-106.5 -43.5t-40.5 -114.5z" />
<glyph unicode="p" horiz-adv-x="1186" d="M55 -400v1360h425l8 -83q86 103 239 103q183 0 305.5 -143.5t122.5 -354.5q0 -214 -122.5 -358t-305.5 -144q-97 0 -154 30t-100 83v-493h-418zM468 480q0 -73 40.5 -117t108.5 -44q69 0 110.5 44t41.5 117q0 70 -41.5 114t-110.5 44q-68 0 -108.5 -43.5t-40.5 -114.5z " />
<glyph unicode="q" horiz-adv-x="1186" d="M31 482q0 211 122.5 354.5t305.5 143.5q172 0 269 -103l8 83h395v-1360h-418v493q-43 -53 -100 -83t-154 -30q-183 0 -305.5 144t-122.5 358zM417 480q0 -73 41.5 -117t110.5 -44q68 0 108.5 44t40.5 117q0 71 -40.5 114.5t-108.5 43.5q-69 0 -110.5 -44t-41.5 -114z" />
<glyph unicode="r" horiz-adv-x="829" d="M55 0v960h376l16 -131q33 74 103 112.5t159 38.5q50 0 112 -17l-25 -346q-50 21 -109 21q-106 0 -160 -59t-54 -164v-415h-418z" />
<glyph unicode="s" horiz-adv-x="925" d="M31 646q0 159 123.5 246.5t347.5 87.5q89 0 193.5 -14t147.5 -30l-43 -316q-37 16 -116.5 32.5t-143.5 16.5q-145 0 -145 -34q0 -6 5 -9t22 -6t37.5 -5.5t62.5 -8.5t86 -14q156 -28 222.5 -97t66.5 -197q0 -151 -115.5 -234.5t-323.5 -83.5q-240 0 -412 54l37 307 q49 -22 139 -41.5t184 -19.5q118 0 118 29q0 4 -5 7.5t-15 6.5t-21 5.5t-28.5 5t-30.5 4t-33.5 4t-32.5 4.5q-172 24 -249.5 92.5t-77.5 207.5z" />
<glyph unicode="t" horiz-adv-x="873" d="M15 635v325h138v308h389v-308h260v-325h-244v-182q0 -72 34 -98.5t103 -26.5q87 0 148 25l19 -320q-37 -20 -119 -36.5t-171 -16.5q-91 0 -164 21t-131.5 66.5t-90.5 125t-32 189.5v253h-139z" />
<glyph unicode="u" d="M50 306v654h418v-528q0 -40 24.5 -67t70.5 -27q45 0 69.5 27t24.5 67v528h419v-960h-381l-8 92q-39 -47 -117 -79.5t-182 -32.5q-157 0 -247.5 91.5t-90.5 234.5z" />
<glyph unicode="v" horiz-adv-x="1226" d="M13 960h437l162 -582l164 582h437l-350 -960h-500z" />
<glyph unicode="w" horiz-adv-x="1612" d="M16 960h405l119 -532l143 505h246l142 -505l120 532h405l-268 -960h-426l-97 329l-95 -329h-426z" />
<glyph unicode="x" horiz-adv-x="1161" d="M10 960h462l109 -190l103 190h459l-330 -470l338 -490h-441l-129 220l-126 -220h-436l331 490z" />
<glyph unicode="y" horiz-adv-x="1203" d="M11 960h421l170 -537l171 537h421l-419 -1067q-63 -162 -163.5 -237.5t-276.5 -75.5q-168 0 -261 60l60 293q58 -30 121 -30q62 0 102.5 21.5t63.5 90.5z" />
<glyph unicode="z" horiz-adv-x="918" d="M32 0v242l357 389h-350v329h822v-239l-362 -392h392v-329h-859z" />
<glyph unicode="{" horiz-adv-x="854" d="M13 407v321h94q66 0 91.5 29t25.5 92v291q0 214 121 325t341 111q67 0 148 -12v-290q-15 1 -39 1q-64 0 -98.5 -6.5t-56.5 -28.5t-28.5 -57t-6.5 -100v-268q0 -95 -33 -150t-108 -97q75 -43 108 -98t33 -150v-225q0 -66 7 -105.5t27.5 -68t57.5 -40t98 -11.5q24 0 39 1 v-284q-80 -12 -145 -12q-221 0 -343 116t-122 333v262q0 64 -25.5 92.5t-91.5 28.5h-94z" />
<glyph unicode="|" horiz-adv-x="480" d="M63 -400v2158h354v-2158h-354z" />
<glyph unicode="}" horiz-adv-x="854" d="M16 -129q15 -1 39 -1q116 0 153 50.5t37 181.5v218q0 95 33 150t108 98q-75 42 -108 97t-33 150v274q0 65 -6.5 99.5t-29 55.5t-56 26.5t-98.5 5.5q-24 0 -39 -1v289q72 12 148 12q221 0 341.5 -108t120.5 -321v-298q0 -63 25.5 -92t91.5 -29h94v-321h-94 q-66 0 -91.5 -28.5t-25.5 -92.5v-255q0 -218 -122 -336.5t-343 -118.5q-74 0 -145 12v283z" />
<glyph unicode="~" horiz-adv-x="1405" d="M41 593q89 110 204.5 184t238.5 74q77 0 142.5 -21.5t102 -47t83 -47t90.5 -21.5q84 0 150 39.5t139 117.5l173 -273q-90 -110 -205.5 -184.5t-238.5 -74.5q-79 0 -145.5 21.5t-102.5 46.5t-81 46.5t-88 21.5q-93 0 -156 -39.5t-130 -116.5z" />
<glyph unicode="&#xa1;" horiz-adv-x="528" d="M49 -395l76 872h270l76 -872h-422zM51 770q0 89 61.5 149.5t151.5 60.5q91 0 152.5 -60.5t61.5 -149.5q0 -87 -62 -147.5t-152 -60.5t-151.5 60.5t-61.5 147.5z" />
<glyph unicode="&#xa2;" horiz-adv-x="937" d="M30 680q0 189 106 320.5t286 168.5l-15 263h294l-15 -258q131 -15 203 -51l-31 -311q-99 44 -220 44q-100 0 -164 -41.5t-64 -134.5q0 -91 61 -132t156 -41q128 0 236 52l42 -310q-89 -51 -234 -68l15 -253h-294l15 264q-173 42 -275 172.5t-102 315.5z" />
<glyph unicode="&#xa3;" horiz-adv-x="1193" d="M33 565v260h140q-20 51 -20 132q0 201 154.5 315t396.5 114q206 0 399 -90l-37 -334q-28 25 -130 55.5t-191 30.5q-77 0 -126.5 -37t-49.5 -98q0 -49 23 -88h397v-260h-322q1 -11 1 -32q0 -69 -28.5 -124t-86.5 -79h610v-330h-1101v258q186 82 186 244q0 41 -4 63h-211z " />
<glyph unicode="&#xa4;" horiz-adv-x="1225" d="M38 256l169 169q-64 108 -64 237q0 128 61 230l-166 163l175 175l164 -164q110 64 235 64q128 0 238 -64l162 164l175 -175l-164 -163q63 -106 63 -230q0 -130 -68 -237l169 -169l-175 -175l-171 173q-108 -58 -229 -58t-226 58l-173 -173zM462 662q0 -62 44 -105 t106 -43q64 0 108.5 43t44.5 105t-44.5 106.5t-108.5 44.5q-62 0 -106 -44.5t-44 -106.5z" />
<glyph unicode="&#xa5;" horiz-adv-x="1638" d="M18 1358h499l302 -505l317 505h484l-455 -701h111v-187h-240v-82h245v-187h-245v-201h-428v201h-260v187h260v82h-255v187h124z" />
<glyph unicode="&#xa6;" horiz-adv-x="480" d="M63 -402v848h354v-848h-354zM63 910v848h354v-848h-354z" />
<glyph unicode="&#xa7;" horiz-adv-x="1161" d="M26 582q0 180 129 302q-14 68 -14 126q0 91 40 163t108 115.5t151 65.5t175 22q107 0 224.5 -25.5t204.5 -74.5l-33 -319q-84 44 -194.5 66t-183.5 22q-46 0 -86 -10.5t-40 -33.5q0 -16 12 -26t42 -20q197 -75 277.5 -112t137.5 -83q78 -65 119 -132.5t40 -173.5 q2 -179 -132 -302q1 -19 6.5 -60.5t5.5 -59.5q0 -95 -39.5 -168.5t-106.5 -117t-149 -65t-175 -21.5q-106 0 -224 26t-205 73l32 319q151 -101 307 -101q95 0 146 11.5t51 45.5q0 17 -12 26t-42 20q-198 76 -278.5 112.5t-137.5 82.5q-49 41 -80 77.5t-54 96.5t-22 133z M386 605q0 -42 40 -75.5t124 -68.5q88 -37 209 -83q19 19 19 50q0 42 -41.5 76t-126.5 70q-64 28 -210 83q-14 -17 -14 -52z" />
<glyph unicode="&#xa8;" horiz-adv-x="860" d="M56 1655q0 79 49 127.5t126 48.5t126 -49t49 -127q0 -77 -49 -125t-126 -48t-126 48t-49 125zM453 1655q0 78 49 127t125 49q79 0 128 -49t49 -127q0 -77 -49 -125t-128 -48q-76 0 -125 48t-49 125z" />
<glyph unicode="&#xa9;" horiz-adv-x="1522" d="M33 680q0 146 60.5 276.5t160 222.5t232.5 145.5t274 53.5q143 0 276.5 -54t233 -145.5t159.5 -222.5t60 -276q0 -196 -101.5 -358t-268.5 -252t-359 -90q-144 0 -277 54t-232 146.5t-158.5 223.5t-59.5 276zM202 680q0 -151 77 -276.5t205 -196t276 -70.5t277 71.5 t206.5 197t77.5 274.5t-77.5 274.5t-206.5 197.5t-277 72q-147 0 -275.5 -72t-205.5 -198t-77 -274zM347 680q0 115 59 208t154 142t204 49q124 0 234 -50l-15 -150q-108 41 -206 41q-103 0 -175.5 -68t-72.5 -170q0 -107 72 -174t181 -67q113 0 217 53l16 -151 q-131 -61 -250 -61q-81 0 -157 29.5t-134 80.5t-92.5 126.5t-34.5 161.5z" />
<glyph unicode="&#xaa;" horiz-adv-x="710" d="M50 913q0 71 38 120t92 69.5t116 20.5q59 0 92 -11q0 54 -96 54q-56 0 -115.5 -18t-77.5 -37l-20 207q29 19 99 40t161 21q62 0 113 -11.5t95 -37.5t69 -75.5t25 -117.5v-396h-217l-5 72q-31 -42 -78.5 -63.5t-97.5 -21.5q-78 0 -135.5 47t-57.5 138zM61 480v171h596 v-171h-596zM279 955q0 -37 45 -37q26 0 46.5 18t20.5 54q-24 11 -52 11q-60 0 -60 -46z" />
<glyph unicode="&#xab;" horiz-adv-x="1208" d="M29 481l272 394h372l-254 -394l254 -395h-372zM532 481l272 394h372l-254 -394l254 -395h-372z" />
<glyph unicode="&#xac;" horiz-adv-x="1222" d="M34 656v347h1142v-672h-415v325h-727z" />
<glyph unicode="&#xad;" horiz-adv-x="806" d="M48 379v289h710v-289h-710z" />
<glyph unicode="&#xae;" horiz-adv-x="1136" d="M29 1047q1 221 156.5 368.5t379.5 147.5q145 0 269.5 -67.5t199 -186.5t74.5 -262q0 -149 -72 -268t-196 -184.5t-275 -65.5q-145 0 -267 64.5t-195.5 184t-73.5 269.5zM163 1047q0 -171 115 -278.5t287 -107.5q174 0 292.5 107.5t118.5 278.5q0 167 -120.5 277.5 t-290.5 110.5t-286 -110t-116 -278zM338 786v528h250q87 0 144.5 -53t57.5 -136q0 -50 -26 -94t-69 -69l135 -176h-163l-113 150h-79v-150h-137zM475 1053h94q36 0 57.5 20.5t21.5 51.5q0 32 -22 51.5t-57 19.5h-94v-143z" />
<glyph unicode="&#xaf;" horiz-adv-x="703" d="M56 1478v249h591v-249h-591z" />
<glyph unicode="&#xb0;" horiz-adv-x="784" d="M31 1023q0 160 98.5 256.5t261.5 96.5q164 0 263 -96.5t99 -256.5q0 -156 -99 -250.5t-263 -94.5q-163 0 -261.5 94.5t-98.5 250.5zM295 1024q0 -46 27 -73t71 -27q43 0 69.5 27t26.5 73t-26.5 73t-69.5 27q-44 0 -71 -27t-27 -73z" />
<glyph unicode="&#xb1;" horiz-adv-x="1213" d="M43 728v347h359v284h410v-284h357v-347h-357v-297h-410v297h-359zM55 -33v332h1107v-332h-1107z" />
<glyph unicode="&#xb2;" horiz-adv-x="705" d="M26 543v171l292 237q42 35 57 64t15 67q0 37 -29 66.5t-93 29.5q-68 0 -125.5 -19.5t-84.5 -38.5l-23 203q119 55 257 55q69 0 129 -14t111.5 -44t81 -84t29.5 -126q0 -25 -2.5 -43t-18 -56t-44 -73.5t-87.5 -86t-141 -102.5h330v-206h-654z" />
<glyph unicode="&#xb3;" horiz-adv-x="711" d="M22 577l23 201q22 -16 104 -37.5t155 -21.5q55 0 93 19t38 59q0 28 -29.5 49t-91.5 21q-64 0 -92 -12v142l152 155h-312v206h586v-166l-197 -188q95 -5 165.5 -66t70.5 -159q0 -256 -360 -256q-153 0 -305 54z" />
<glyph unicode="&#xb4;" horiz-adv-x="748" d="M56 1473l169 334h467l-299 -334h-337z" />
<glyph unicode="&#xb5;" horiz-adv-x="1195" d="M60 -400v1360h418v-530q0 -51 32.5 -83t84.5 -32t85.5 32t33.5 83v530h420v-960h-386l-9 92q-39 -47 -114 -77t-168 -34v-381h-397z" />
<glyph unicode="&#xb6;" horiz-adv-x="1391" d="M22 864q0 218 151 356t379 138h798v-283h-509v-1475h-270v770h-19q-150 0 -270.5 61.5t-190 174.5t-69.5 258zM942 -400v1376h272v-1376h-272z" />
<glyph unicode="&#xb7;" horiz-adv-x="519" d="M46 550q0 89 61 149t152 60q90 0 152 -60.5t62 -148.5t-62 -148t-152 -60q-91 0 -152 60t-61 148z" />
<glyph unicode="&#xb8;" horiz-adv-x="604" d="M48 -258q53 -23 123 -23q111 0 111 48q0 23 -31.5 36t-87.5 13h-63l82 211h183l-28 -98q103 -15 160.5 -65t57.5 -137q0 -69 -51.5 -118t-125 -70.5t-157.5 -21.5q-108 0 -173 30v195z" />
<glyph unicode="&#xb9;" horiz-adv-x="490" d="M14 1152v206h431v-811h-246v605h-185z" />
<glyph unicode="&#xba;" horiz-adv-x="759" d="M49 1047q0 150 90 240t240 90t240.5 -90t90.5 -240q0 -144 -90.5 -232t-240.5 -88q-149 0 -239.5 88t-90.5 232zM75 480v171h620v-171h-620zM290 1048q0 -42 25 -67t65 -25q39 0 64 25t25 67q0 43 -25 69t-64 26q-40 0 -65 -25.5t-25 -69.5z" />
<glyph unicode="&#xbb;" horiz-adv-x="1208" d="M32 86l254 394l-254 395h372l272 -395l-272 -394h-372zM535 86l254 394l-254 395h372l272 -395l-272 -394h-372z" />
<glyph unicode="&#xbc;" horiz-adv-x="1518" d="M110 1152v206h431v-811h-246v605h-185zM353 0v26l734 1332h255v-24l-732 -1334h-257zM927 175v153l236 483h267l-238 -450h134v142h227v-142h113v-186h-113v-175h-228v175h-398z" />
<glyph unicode="&#xbd;" horiz-adv-x="1638" d="M110 1152v206h431v-811h-246v605h-185zM353 0v26l734 1332h255v-24l-732 -1334h-257zM1080 0v171l292 237q42 35 57 64t15 67q0 37 -29 66.5t-93 29.5q-68 0 -125.5 -19.5t-84.5 -38.5l-23 203q119 55 257 55q69 0 129 -14t111.5 -44t81 -84t29.5 -126q0 -25 -2.5 -43 t-18 -56t-44 -73.5t-87.5 -86t-141 -102.5h330v-206h-654z" />
<glyph unicode="&#xbe;" horiz-adv-x="1723" d="M102 577l23 201q22 -16 104 -37.5t155 -21.5q55 0 93 19t38 59q0 28 -29.5 49t-91.5 21q-64 0 -92 -12v142l152 155h-312v206h586v-166l-197 -188q95 -5 165.5 -66t70.5 -159q0 -256 -360 -256q-153 0 -305 54zM486 0v26l734 1332h255v-24l-732 -1334h-257zM1060 175v153 l236 483h267l-238 -450h134v142h227v-142h113v-186h-113v-175h-228v175h-398z" />
<glyph unicode="&#xbf;" horiz-adv-x="1018" d="M26 -5q0 41 10 78t24.5 66.5t43.5 59.5t54.5 52t69 50.5t76.5 47.5t88 49l31 96h316l39 -193q-25 -16 -72.5 -41.5t-80.5 -45t-67.5 -45.5t-53 -54.5t-18.5 -60.5q0 -120 150 -120q81 0 176.5 28t151.5 55l35 -337q-194 -98 -420 -98q-88 0 -166.5 13.5t-150 44.5 t-123.5 77.5t-82.5 117.5t-30.5 160zM366 770q0 89 61 149.5t152 60.5q90 0 152 -61t62 -149q0 -87 -62 -147.5t-152 -60.5t-151.5 60.5t-61.5 147.5z" />
<glyph unicode="&#xc0;" horiz-adv-x="1579" d="M16 0l515 1358h519l513 -1358h-463l-86 216h-451l-84 -216h-463zM320 1807h467l169 -334h-337zM653 539h273l-136 419z" />
<glyph unicode="&#xc1;" horiz-adv-x="1579" d="M16 0l515 1358h519l513 -1358h-463l-86 216h-451l-84 -216h-463zM598 1473l170 334h467l-299 -334h-338zM653 539h273l-136 419z" />
<glyph unicode="&#xc2;" horiz-adv-x="1579" d="M16 0l515 1358h519l513 -1358h-463l-86 216h-451l-84 -216h-463zM360 1471l287 370h287l287 -370h-336l-95 155l-96 -155h-334zM653 539h273l-136 419z" />
<glyph unicode="&#xc3;" horiz-adv-x="1579" d="M16 0l515 1358h519l513 -1358h-463l-86 216h-451l-84 -216h-463zM336 1589q59 122 137.5 182t165.5 60q46 0 85.5 -14t62 -31t51 -31t55.5 -14q64 0 137 72l148 -123q-57 -120 -145.5 -178.5t-167.5 -58.5q-45 0 -90 21.5t-84 42.5t-71 21q-65 0 -132 -87zM653 539h273 l-136 419z" />
<glyph unicode="&#xc4;" horiz-adv-x="1579" d="M16 0l515 1358h519l513 -1358h-463l-86 216h-451l-84 -216h-463zM414 1655q0 78 49 127t126 49q78 0 127 -49t49 -127q0 -77 -49 -125t-127 -48q-77 0 -126 48t-49 125zM653 539h273l-136 419zM812 1655q0 78 48.5 127t124.5 49q79 0 128 -49t49 -127q0 -77 -49 -125 t-128 -48q-76 0 -124.5 48t-48.5 125z" />
<glyph unicode="&#xc5;" horiz-adv-x="1579" d="M16 0l515 1358h519l513 -1358h-463l-86 216h-451l-84 -216h-463zM553 1689q0 101 67.5 169t167.5 68q101 0 169 -68t68 -169q0 -99 -68 -166t-169 -67q-100 0 -167.5 67t-67.5 166zM653 539h273l-136 419zM741 1691q0 -18 14.5 -34t32.5 -16q19 0 33.5 15.5t14.5 34.5 q0 18 -14.5 33.5t-33.5 15.5q-18 0 -32.5 -15.5t-14.5 -33.5z" />
<glyph unicode="&#xc6;" horiz-adv-x="2035" d="M-61 0l702 1358h1347v-342h-644v-160h585v-339h-585v-178h647v-339h-1081v216h-409l-117 -216h-445zM644 539h266v513z" />
<glyph unicode="&#xc7;" horiz-adv-x="1349" d="M44 679q0 137 42 252t117 196.5t177.5 138t223 84t255.5 28.5q222 0 419 -80l-32 -369q-158 79 -354 79q-66 0 -124.5 -10.5t-110.5 -35t-89 -61t-59 -92t-22 -124.5q0 -70 24 -126.5t63.5 -94t94.5 -63t114 -36.5t124 -11q92 0 169 25t170 82l69 -365q-105 -61 -204 -85 t-219 -30l-15 -52q104 -15 161.5 -65t57.5 -137q0 -69 -52 -118t-125.5 -70.5t-157.5 -21.5q-106 0 -173 30v195q54 -23 124 -23q111 0 111 48q0 23 -32 36t-87 13h-64l66 169q-140 15 -260.5 70.5t-210 143.5t-140.5 211.5t-51 268.5z" />
<glyph unicode="&#xc8;" horiz-adv-x="1191" d="M76 0v1358h1068v-342h-634v-160h575v-339h-575v-178h637v-339h-1071zM223 1807h467l169 -334h-337z" />
<glyph unicode="&#xc9;" horiz-adv-x="1191" d="M76 0v1358h1068v-342h-634v-160h575v-339h-575v-178h637v-339h-1071zM411 1473l170 334h467l-299 -334h-338z" />
<glyph unicode="&#xca;" horiz-adv-x="1191" d="M76 0v1358h1068v-342h-634v-160h575v-339h-575v-178h637v-339h-1071zM165 1471l287 370h288l287 -370h-336l-96 155l-95 -155h-335z" />
<glyph unicode="&#xcb;" horiz-adv-x="1191" d="M76 0v1358h1068v-342h-634v-160h575v-339h-575v-178h637v-339h-1071zM247 1655q0 79 48.5 127.5t126.5 48.5q77 0 126 -49t49 -127q0 -77 -49 -125t-126 -48t-126 48t-49 125zM644 1655q0 78 49 127t125 49q79 0 128 -49t49 -127q0 -77 -49 -125t-128 -48q-76 0 -125 48 t-49 125z" />
<glyph unicode="&#xcc;" horiz-adv-x="586" d="M-175 1807h467l169 -334h-337zM76 0v1358h434v-1358h-434z" />
<glyph unicode="&#xcd;" horiz-adv-x="586" d="M76 0v1358h434v-1358h-434zM112 1473l170 334h467l-299 -334h-338z" />
<glyph unicode="&#xce;" horiz-adv-x="586" d="M-146 1471l287 370h288l287 -370h-336l-96 155l-95 -155h-335zM76 0v1358h434v-1358h-434z" />
<glyph unicode="&#xcf;" horiz-adv-x="586" d="M-90 1655q0 78 49 127t126 49q78 0 127 -49t49 -127q0 -77 -49 -125t-127 -48q-77 0 -126 48t-49 125zM76 0v1358h434v-1358h-434zM308 1655q0 78 48.5 127t124.5 49q79 0 128 -49t49 -127q0 -77 -49 -125t-128 -48q-76 0 -124.5 48t-48.5 125z" />
<glyph unicode="&#xd0;" horiz-adv-x="1558" d="M31 605v184h133v569h634q341 0 527.5 -170t186.5 -503q0 -337 -185 -511t-529 -174h-634v605h-133zM589 348h189q137 0 216 91t79 246q0 161 -79.5 241.5t-215.5 80.5h-189v-218h249v-184h-249v-257z" />
<glyph unicode="&#xd1;" horiz-adv-x="1498" d="M76 0v1358h347l581 -674v674h418v-1358h-324l-605 665v-665h-417zM281 1589q59 122 137.5 182t165.5 60q46 0 85.5 -14t62 -31t51 -31t55.5 -14q64 0 137 72l148 -123q-57 -120 -145.5 -178.5t-167.5 -58.5q-45 0 -90 21.5t-84 42.5t-71 21q-65 0 -132 -87z" />
<glyph unicode="&#xd2;" horiz-adv-x="1544" d="M44 681q0 203 92 362t258.5 247t379.5 88q212 0 377.5 -88.5t257 -247.5t91.5 -362q0 -204 -91.5 -363.5t-257 -248t-377.5 -88.5q-213 0 -379.5 88.5t-258.5 248.5t-92 364zM324 1807h467l170 -334h-338zM482 680q0 -143 80.5 -231t212.5 -88q129 0 207.5 88t78.5 231 q0 140 -78.5 226.5t-207.5 86.5q-132 0 -212.5 -86.5t-80.5 -226.5z" />
<glyph unicode="&#xd3;" horiz-adv-x="1544" d="M44 681q0 203 92 362t258.5 247t379.5 88q212 0 377.5 -88.5t257 -247.5t91.5 -362q0 -204 -91.5 -363.5t-257 -248t-377.5 -88.5q-213 0 -379.5 88.5t-258.5 248.5t-92 364zM482 680q0 -143 80.5 -231t212.5 -88q129 0 207.5 88t78.5 231q0 140 -78.5 226.5t-207.5 86.5 q-132 0 -212.5 -86.5t-80.5 -226.5zM612 1473l169 334h467l-299 -334h-337z" />
<glyph unicode="&#xd4;" horiz-adv-x="1544" d="M44 681q0 203 92 362t258.5 247t379.5 88q212 0 377.5 -88.5t257 -247.5t91.5 -362q0 -204 -91.5 -363.5t-257 -248t-377.5 -88.5q-213 0 -379.5 88.5t-258.5 248.5t-92 364zM346 1471l287 370h288l287 -370h-336l-96 155l-95 -155h-335zM482 680q0 -143 80.5 -231 t212.5 -88q129 0 207.5 88t78.5 231q0 140 -78.5 226.5t-207.5 86.5q-132 0 -212.5 -86.5t-80.5 -226.5z" />
<glyph unicode="&#xd5;" horiz-adv-x="1544" d="M44 681q0 203 92 362t258.5 247t379.5 88q212 0 377.5 -88.5t257 -247.5t91.5 -362q0 -204 -91.5 -363.5t-257 -248t-377.5 -88.5q-213 0 -379.5 88.5t-258.5 248.5t-92 364zM351 1589q59 122 137.5 182t165.5 60q46 0 85.5 -14t62 -31t51 -31t55.5 -14q64 0 137 72 l148 -123q-57 -120 -145.5 -178.5t-167.5 -58.5q-45 0 -90 21.5t-84 42.5t-71 21q-65 0 -132 -87zM482 680q0 -143 80.5 -231t212.5 -88q129 0 207.5 88t78.5 231q0 140 -78.5 226.5t-207.5 86.5q-132 0 -212.5 -86.5t-80.5 -226.5z" />
<glyph unicode="&#xd6;" horiz-adv-x="1544" d="M44 681q0 203 92 362t258.5 247t379.5 88q212 0 377.5 -88.5t257 -247.5t91.5 -362q0 -204 -91.5 -363.5t-257 -248t-377.5 -88.5q-213 0 -379.5 88.5t-258.5 248.5t-92 364zM405 1655q0 78 49 127t126 49q78 0 127 -49t49 -127q0 -77 -49 -125t-127 -48q-77 0 -126 48 t-49 125zM482 680q0 -143 80.5 -231t212.5 -88q129 0 207.5 88t78.5 231q0 140 -78.5 226.5t-207.5 86.5q-132 0 -212.5 -86.5t-80.5 -226.5zM803 1655q0 78 48.5 127t124.5 49q79 0 128 -49t49 -127q0 -77 -49 -125t-128 -48q-76 0 -124.5 48t-48.5 125z" />
<glyph unicode="&#xd7;" horiz-adv-x="1199" d="M37 988l260 262l301 -294l300 294l262 -262l-311 -303l313 -304l-264 -260l-300 294l-301 -294l-259 260l307 304z" />
<glyph unicode="&#xd8;" horiz-adv-x="1545" d="M45 681q0 203 92 362t258.5 247t379.5 88q177 0 325 -64l141 204l151 -105l-134 -194q116 -94 179.5 -232.5t63.5 -306.5q0 -204 -91.5 -363.5t-257 -248t-377.5 -88.5q-182 0 -332 65l-144 -205l-151 105l137 196q-115 95 -177.5 234t-62.5 306zM483 680q0 -109 45 -188 l340 488q-43 13 -92 13q-132 0 -212.5 -86.5t-80.5 -226.5zM673 377q45 -16 103 -16q129 0 207.5 88t78.5 231q0 107 -48 188z" />
<glyph unicode="&#xd9;" horiz-adv-x="1444" d="M71 514v844h416v-801q0 -99 70 -155t164 -56q97 0 166.5 57.5t69.5 153.5v801h416v-844q0 -106 -37.5 -195.5t-100.5 -151t-147 -104.5t-177 -63t-190 -20q-131 0 -247 34.5t-206.5 99.5t-143.5 168.5t-53 231.5zM281 1807h467l170 -334h-338z" />
<glyph unicode="&#xda;" horiz-adv-x="1444" d="M71 514v844h416v-801q0 -99 70 -155t164 -56q97 0 166.5 57.5t69.5 153.5v801h416v-844q0 -106 -37.5 -195.5t-100.5 -151t-147 -104.5t-177 -63t-190 -20q-131 0 -247 34.5t-206.5 99.5t-143.5 168.5t-53 231.5zM578 1473l169 334h467l-299 -334h-337z" />
<glyph unicode="&#xdb;" horiz-adv-x="1444" d="M71 514v844h416v-801q0 -99 70 -155t164 -56q97 0 166.5 57.5t69.5 153.5v801h416v-844q0 -106 -37.5 -195.5t-100.5 -151t-147 -104.5t-177 -63t-190 -20q-131 0 -247 34.5t-206.5 99.5t-143.5 168.5t-53 231.5zM288 1471l287 370h288l287 -370h-336l-96 155l-95 -155 h-335z" />
<glyph unicode="&#xdc;" horiz-adv-x="1444" d="M71 514v844h416v-801q0 -99 70 -155t164 -56q97 0 166.5 57.5t69.5 153.5v801h416v-844q0 -106 -37.5 -195.5t-100.5 -151t-147 -104.5t-177 -63t-190 -20q-131 0 -247 34.5t-206.5 99.5t-143.5 168.5t-53 231.5zM350 1655q0 78 49 127t126 49q78 0 127 -49t49 -127 q0 -77 -49 -125t-127 -48q-77 0 -126 48t-49 125zM748 1655q0 78 48.5 127t124.5 49q79 0 128 -49t49 -127q0 -77 -49 -125t-128 -48q-76 0 -124.5 48t-48.5 125z" />
<glyph unicode="&#xdd;" horiz-adv-x="1634" d="M16 1358h499l302 -500l317 500h484l-584 -867v-491h-428v491zM659 1473l170 334h467l-299 -334h-338z" />
<glyph unicode="&#xde;" horiz-adv-x="1336" d="M76 0v1358h434v-184h258q127 0 229 -40t166 -108.5t97.5 -155t33.5 -182.5q0 -99 -33.5 -188.5t-97 -161.5t-166 -114.5t-229.5 -42.5h-258v-181h-434zM510 535h183q72 0 117.5 36.5t45.5 104.5q0 143 -163 143h-183v-284z" />
<glyph unicode="&#xdf;" horiz-adv-x="1366" d="M55 0v1016q0 126 74 220t204 143t297 49q271 0 429.5 -117t158.5 -290q0 -51 -11 -94.5t-24 -70t-37 -53.5t-36.5 -37t-35.5 -27q54 -20 95.5 -45.5t82 -66.5t62.5 -102t22 -138q0 -54 -13.5 -106.5t-49 -108t-90 -97t-145.5 -68.5t-206 -27q-132 0 -291 38l38 326 q83 -28 186 -28q72 0 116 34.5t44 86.5q0 109 -172 109q-91 0 -152 -18v277q93 3 141.5 41t48.5 85q0 64 -48.5 100t-133.5 36q-68 0 -110 -34t-42 -89v-944h-402z" />
<glyph unicode="&#xe0;" horiz-adv-x="1061" d="M32 265q0 66 24 121t64 91.5t93.5 61.5t110.5 36t117 11q106 0 151 -15q0 40 -45.5 60.5t-105.5 20.5q-88 0 -185 -24t-143 -59l-34 315q52 31 167 63.5t265 32.5q81 0 151 -10.5t135.5 -37t111.5 -67.5t73.5 -106.5t27.5 -149.5v-609h-356l-12 104q-50 -63 -127 -93 t-163 -30q-61 0 -116.5 16.5t-102 49.5t-74 89t-27.5 129zM114 1409h467l170 -334h-338zM411 326q0 -29 20 -44.5t55 -15.5q41 0 76 29t35 83q-36 18 -84 18q-44 0 -73 -17.5t-29 -52.5z" />
<glyph unicode="&#xe1;" horiz-adv-x="1061" d="M32 265q0 66 24 121t64 91.5t93.5 61.5t110.5 36t117 11q106 0 151 -15q0 40 -45.5 60.5t-105.5 20.5q-88 0 -185 -24t-143 -59l-34 315q52 31 167 63.5t265 32.5q81 0 151 -10.5t135.5 -37t111.5 -67.5t73.5 -106.5t27.5 -149.5v-609h-356l-12 104q-50 -63 -127 -93 t-163 -30q-61 0 -116.5 16.5t-102 49.5t-74 89t-27.5 129zM349 1075l170 334h467l-299 -334h-338zM411 326q0 -29 20 -44.5t55 -15.5q41 0 76 29t35 83q-36 18 -84 18q-44 0 -73 -17.5t-29 -52.5z" />
<glyph unicode="&#xe2;" horiz-adv-x="1061" d="M32 265q0 66 24 121t64 91.5t93.5 61.5t110.5 36t117 11q106 0 151 -15q0 40 -45.5 60.5t-105.5 20.5q-88 0 -185 -24t-143 -59l-34 315q52 31 167 63.5t265 32.5q81 0 151 -10.5t135.5 -37t111.5 -67.5t73.5 -106.5t27.5 -149.5v-609h-356l-12 104q-50 -63 -127 -93 t-163 -30q-61 0 -116.5 16.5t-102 49.5t-74 89t-27.5 129zM108 1073l287 370h287l287 -370h-336l-95 155l-96 -155h-334zM411 326q0 -29 20 -44.5t55 -15.5q41 0 76 29t35 83q-36 18 -84 18q-44 0 -73 -17.5t-29 -52.5z" />
<glyph unicode="&#xe3;" horiz-adv-x="1061" d="M32 265q0 66 24 121t64 91.5t93.5 61.5t110.5 36t117 11q106 0 151 -15q0 40 -45.5 60.5t-105.5 20.5q-88 0 -185 -24t-143 -59l-34 315q52 31 167 63.5t265 32.5q81 0 151 -10.5t135.5 -37t111.5 -67.5t73.5 -106.5t27.5 -149.5v-609h-356l-12 104q-50 -63 -127 -93 t-163 -30q-61 0 -116.5 16.5t-102 49.5t-74 89t-27.5 129zM132 1191q59 122 137.5 182t165.5 60q46 0 85.5 -14t62 -31t51 -31t55.5 -14q64 0 137 72l148 -123q-57 -120 -145.5 -178.5t-167.5 -58.5q-45 0 -90 21.5t-84 42.5t-71 21q-65 0 -132 -87zM411 326q0 -29 20 -44.5 t55 -15.5q41 0 76 29t35 83q-36 18 -84 18q-44 0 -73 -17.5t-29 -52.5z" />
<glyph unicode="&#xe4;" horiz-adv-x="1061" d="M32 265q0 66 24 121t64 91.5t93.5 61.5t110.5 36t117 11q106 0 151 -15q0 40 -45.5 60.5t-105.5 20.5q-88 0 -185 -24t-143 -59l-34 315q52 31 167 63.5t265 32.5q81 0 151 -10.5t135.5 -37t111.5 -67.5t73.5 -106.5t27.5 -149.5v-609h-356l-12 104q-50 -63 -127 -93 t-163 -30q-61 0 -116.5 16.5t-102 49.5t-74 89t-27.5 129zM195 1257q0 78 49 127t126 49q78 0 127 -49t49 -127q0 -77 -49 -125t-127 -48q-77 0 -126 48t-49 125zM411 326q0 -29 20 -44.5t55 -15.5q41 0 76 29t35 83q-36 18 -84 18q-44 0 -73 -17.5t-29 -52.5zM593 1257 q0 78 48.5 127t124.5 49q79 0 128 -49t49 -127q0 -77 -49 -125t-128 -48q-76 0 -124.5 48t-48.5 125z" />
<glyph unicode="&#xe5;" horiz-adv-x="1061" d="M32 265q0 66 24 121t64 91.5t93.5 61.5t110.5 36t117 11q106 0 151 -15q0 40 -45.5 60.5t-105.5 20.5q-88 0 -185 -24t-143 -59l-34 315q52 31 167 63.5t265 32.5q81 0 151 -10.5t135.5 -37t111.5 -67.5t73.5 -106.5t27.5 -149.5v-609h-356l-12 104q-50 -63 -127 -93 t-163 -30q-61 0 -116.5 16.5t-102 49.5t-74 89t-27.5 129zM301 1291q0 101 67.5 169t167.5 68q101 0 169 -68t68 -169q0 -99 -68 -166t-169 -67q-100 0 -167.5 67t-67.5 166zM411 326q0 -29 20 -44.5t55 -15.5q41 0 76 29t35 83q-36 18 -84 18q-44 0 -73 -17.5t-29 -52.5z M489 1293q0 -18 14.5 -34t32.5 -16q19 0 33.5 15.5t14.5 34.5q0 18 -14.5 33.5t-33.5 15.5q-18 0 -32.5 -15.5t-14.5 -33.5z" />
<glyph unicode="&#xe6;" horiz-adv-x="1579" d="M32 265q0 66 24 121t64 91.5t93.5 61.5t110.5 36t117 11q106 0 151 -15q0 40 -45.5 60.5t-105.5 20.5q-88 0 -185 -24t-143 -59l-34 315q161 96 392 96q181 0 321 -120q50 54 133 88t184 34q192 0 315.5 -122t123.5 -339q0 -59 -9 -126h-593q1 -42 65.5 -71.5 t150.5 -29.5q165 0 308 59l43 -290q-58 -32 -159 -57.5t-218 -25.5q-149 0 -241.5 36t-167.5 118q-53 -67 -159 -110t-216 -43q-61 0 -116.5 16.5t-102 49.5t-74 89t-27.5 129zM411 326q0 -29 20 -44.5t55 -15.5q41 0 76 29t35 83q-36 18 -84 18q-44 0 -73 -17.5t-29 -52.5z M945 583h228q0 42 -29.5 70t-78.5 28q-111 0 -120 -98z" />
<glyph unicode="&#xe7;" horiz-adv-x="930" d="M31 484q0 214 141 355t373 141q87 0 168 -11.5t122.5 -23.5t51.5 -20l-35 -322q-93 35 -224 35q-94 0 -141.5 -43.5t-47.5 -111.5q0 -70 50 -110.5t145 -40.5q50 0 114.5 10t108.5 27l48 -318q-27 -19 -103.5 -39t-166.5 -28l-16 -55q103 -15 160.5 -65t57.5 -137 q0 -69 -51.5 -118t-125 -70.5t-157.5 -21.5q-108 0 -173 30v195q53 -23 123 -23q111 0 111 48q0 23 -31.5 36t-87.5 13h-63l66 171q-191 29 -304 163.5t-113 333.5z" />
<glyph unicode="&#xe8;" horiz-adv-x="1049" d="M31 483q0 226 139 361.5t375 135.5q219 0 346 -115.5t127 -343.5q0 -59 -9 -126h-593q1 -42 65.5 -71.5t150.5 -29.5q165 0 308 59l43 -290q-58 -32 -159 -57.5t-218 -25.5q-271 0 -423 136.5t-152 366.5zM119 1409h467l170 -334h-338zM415 583h228q0 42 -29.5 70 t-78.5 28q-111 0 -120 -98z" />
<glyph unicode="&#xe9;" horiz-adv-x="1061" d="M31 483q0 226 139 361.5t375 135.5q219 0 346 -115.5t127 -343.5q0 -59 -9 -126h-593q1 -42 65.5 -71.5t150.5 -29.5q165 0 308 59l43 -290q-58 -32 -159 -57.5t-218 -25.5q-271 0 -423 136.5t-152 366.5zM393 1075l170 334h467l-299 -334h-338zM415 583h228 q0 42 -29.5 70t-78.5 28q-111 0 -120 -98z" />
<glyph unicode="&#xea;" horiz-adv-x="1049" d="M31 483q0 226 139 361.5t375 135.5q219 0 346 -115.5t127 -343.5q0 -59 -9 -126h-593q1 -42 65.5 -71.5t150.5 -29.5q165 0 308 59l43 -290q-58 -32 -159 -57.5t-218 -25.5q-271 0 -423 136.5t-152 366.5zM135 1073l287 370h288l287 -370h-336l-96 155l-95 -155h-335z M415 583h228q0 42 -29.5 70t-78.5 28q-111 0 -120 -98z" />
<glyph unicode="&#xeb;" horiz-adv-x="1049" d="M31 483q0 226 139 361.5t375 135.5q219 0 346 -115.5t127 -343.5q0 -59 -9 -126h-593q1 -42 65.5 -71.5t150.5 -29.5q165 0 308 59l43 -290q-58 -32 -159 -57.5t-218 -25.5q-271 0 -423 136.5t-152 366.5zM193 1257q0 79 48.5 127.5t126.5 48.5q77 0 126 -49t49 -127 q0 -77 -49 -125t-126 -48t-126 48t-49 125zM415 583h228q0 42 -29.5 70t-78.5 28q-111 0 -120 -98zM590 1257q0 78 49 127t125 49q79 0 128 -49t49 -127q0 -77 -49 -125t-128 -48q-76 0 -125 48t-49 125z" />
<glyph unicode="&#xec;" horiz-adv-x="528" d="M-205 1409h467l170 -334h-338zM55 0v960h418v-960h-418z" />
<glyph unicode="&#xed;" horiz-adv-x="528" d="M55 0v960h418v-960h-418zM113 1075l169 334h467l-299 -334h-337z" />
<glyph unicode="&#xee;" horiz-adv-x="528" d="M-157 1073l287 370h287l287 -370h-336l-95 155l-96 -155h-334zM55 0v960h418v-960h-418z" />
<glyph unicode="&#xef;" horiz-adv-x="528" d="M-98 1257q0 79 49 127.5t126 48.5t126 -49t49 -127q0 -77 -49 -125t-126 -48t-126 48t-49 125zM55 0v960h418v-960h-418zM299 1257q0 78 49 127t125 49q79 0 128 -49t49 -127q0 -77 -49 -125t-128 -48q-76 0 -125 48t-49 125z" />
<glyph unicode="&#xf0;" horiz-adv-x="1153" d="M32 464q0 207 130 335t339 128q71 0 130 -24t77 -63q-3 50 -65 115.5t-164 124.5l-192 -143l-97 136l116 86q-76 27 -153 44l193 277q137 -32 262 -97l155 115l93 -137l-98 -72q162 -123 260 -306.5t98 -421.5q0 -265 -139 -423t-393 -158q-246 0 -399 134t-153 350z M423 464q0 -65 42 -105t109 -40q68 0 110 40.5t42 104.5q0 67 -42 108.5t-110 41.5t-109.5 -41.5t-41.5 -108.5z" />
<glyph unicode="&#xf1;" horiz-adv-x="1132" d="M55 0v960h380l9 -88q39 46 116 77t182 31q158 0 248.5 -91.5t90.5 -234.5v-654h-419v528q0 39 -24 66t-71 27q-45 0 -69.5 -27t-24.5 -66v-528h-418zM133 1191q59 122 137.5 182t165.5 60q46 0 85.5 -14t62 -31t51 -31t55.5 -14q64 0 137 72l148 -123 q-57 -120 -145.5 -178.5t-167.5 -58.5q-45 0 -90 21.5t-84 42.5t-71 21q-65 0 -132 -87z" />
<glyph unicode="&#xf2;" d="M30 480q0 226 146.5 363t388.5 137t389 -137t147 -363q0 -227 -146.5 -363.5t-389.5 -136.5q-242 0 -388.5 136.5t-146.5 363.5zM133 1409h467l169 -334h-337zM418 480q0 -72 40.5 -116t106.5 -44q67 0 107 44t40 116q0 71 -40.5 114.5t-106.5 43.5t-106.5 -43.5 t-40.5 -114.5z" />
<glyph unicode="&#xf3;" d="M30 480q0 226 146.5 363t388.5 137t389 -137t147 -363q0 -227 -146.5 -363.5t-389.5 -136.5q-242 0 -388.5 136.5t-146.5 363.5zM418 480q0 -72 40.5 -116t106.5 -44q67 0 107 44t40 116q0 71 -40.5 114.5t-106.5 43.5t-106.5 -43.5t-40.5 -114.5zM428 1075l169 334h467 l-299 -334h-337z" />
<glyph unicode="&#xf4;" d="M30 480q0 226 146.5 363t388.5 137t389 -137t147 -363q0 -227 -146.5 -363.5t-389.5 -136.5q-242 0 -388.5 136.5t-146.5 363.5zM129 1073l287 370h288l287 -370h-336l-96 155l-95 -155h-335zM418 480q0 -72 40.5 -116t106.5 -44q67 0 107 44t40 116q0 71 -40.5 114.5 t-106.5 43.5t-106.5 -43.5t-40.5 -114.5z" />
<glyph unicode="&#xf5;" d="M30 480q0 226 146.5 363t388.5 137t389 -137t147 -363q0 -227 -146.5 -363.5t-389.5 -136.5q-242 0 -388.5 136.5t-146.5 363.5zM153 1191q59 122 137.5 182t165.5 60q46 0 85.5 -14t62 -31t51 -31t55.5 -14q64 0 137 72l148 -123q-57 -120 -145.5 -178.5t-167.5 -58.5 q-45 0 -89.5 21.5t-84 42.5t-71.5 21q-65 0 -131 -87zM418 480q0 -72 40.5 -116t106.5 -44q67 0 107 44t40 116q0 71 -40.5 114.5t-106.5 43.5t-106.5 -43.5t-40.5 -114.5z" />
<glyph unicode="&#xf6;" d="M30 480q0 226 146.5 363t388.5 137t389 -137t147 -363q0 -227 -146.5 -363.5t-389.5 -136.5q-242 0 -388.5 136.5t-146.5 363.5zM191 1257q0 78 49 127t126 49q78 0 127 -49t49 -127q0 -77 -49 -125t-127 -48q-77 0 -126 48t-49 125zM418 480q0 -72 40.5 -116t106.5 -44 q67 0 107 44t40 116q0 71 -40.5 114.5t-106.5 43.5t-106.5 -43.5t-40.5 -114.5zM589 1257q0 78 48.5 127t124.5 49q79 0 128 -49t49 -127q0 -77 -49 -125t-128 -48q-76 0 -124.5 48t-48.5 125z" />
<glyph unicode="&#xf7;" horiz-adv-x="1181" d="M37 538v283h1107v-283h-1107zM378 257q0 88 61.5 148.5t151.5 60.5q91 0 152.5 -60t61.5 -149q0 -88 -61.5 -148t-152.5 -60q-90 0 -151.5 60t-61.5 148zM378 1101q0 88 61.5 148.5t151.5 60.5q91 0 152.5 -60t61.5 -149q0 -88 -61.5 -148t-152.5 -60q-90 0 -151.5 60 t-61.5 148z" />
<glyph unicode="&#xf8;" horiz-adv-x="1107" d="M18 480q0 226 147 363t389 137q149 0 265 -54l135 162l121 -96l-127 -153q141 -138 141 -359q0 -227 -146.5 -363.5t-388.5 -136.5q-157 0 -272 56l-134 -163l-115 103l123 148q-138 135 -138 356zM407 480q0 -28 4 -48l169 204q-16 2 -26 2q-66 0 -106.5 -43.5 t-40.5 -114.5zM521 323q15 -3 33 -3q66 0 106.5 44t40.5 116q0 29 -6 53z" />
<glyph unicode="&#xf9;" d="M50 306v654h418v-528q0 -40 24.5 -67t70.5 -27q45 0 69.5 27t24.5 67v528h419v-960h-381l-8 92q-39 -47 -117 -79.5t-182 -32.5q-157 0 -247.5 91.5t-90.5 234.5zM125 1409h467l169 -334h-337z" />
<glyph unicode="&#xfa;" d="M50 306v654h418v-528q0 -40 24.5 -67t70.5 -27q45 0 69.5 27t24.5 67v528h419v-960h-381l-8 92q-39 -47 -117 -79.5t-182 -32.5q-157 0 -247.5 91.5t-90.5 234.5zM379 1075l170 334h467l-299 -334h-338z" />
<glyph unicode="&#xfb;" d="M50 306v654h418v-528q0 -40 24.5 -67t70.5 -27q45 0 69.5 27t24.5 67v528h419v-960h-381l-8 92q-39 -47 -117 -79.5t-182 -32.5q-157 0 -247.5 91.5t-90.5 234.5zM123 1073l287 370h287l287 -370h-336l-95 155l-96 -155h-334z" />
<glyph unicode="&#xfc;" d="M50 306v654h418v-528q0 -40 24.5 -67t70.5 -27q45 0 69.5 27t24.5 67v528h419v-960h-381l-8 92q-39 -47 -117 -79.5t-182 -32.5q-157 0 -247.5 91.5t-90.5 234.5zM173 1257q0 79 48.5 127.5t126.5 48.5q77 0 126 -49t49 -127q0 -77 -49 -125t-126 -48t-126 48t-49 125z M570 1257q0 78 49 127t125 49q79 0 128 -49t49 -127q0 -77 -49 -125t-128 -48q-76 0 -125 48t-49 125z" />
<glyph unicode="&#xfd;" horiz-adv-x="1203" d="M11 960h421l170 -537l171 537h421l-419 -1067q-64 -162 -164.5 -237.5t-275.5 -75.5q-168 0 -261 60l60 293q58 -30 121 -30q62 0 102.5 21.5t63.5 90.5zM386 1075l170 334h467l-299 -334h-338z" />
<glyph unicode="&#xfe;" horiz-adv-x="1186" d="M55 -400v1808h422v-546q31 51 94 84.5t155 33.5q121 0 219.5 -65.5t154 -179.5t55.5 -253q0 -214 -122.5 -358t-306.5 -144q-97 0 -154 30t-99 83v-493h-418zM467 480q0 -73 41 -117t109 -44q69 0 110.5 44t41.5 117q0 70 -42 114t-110 44t-109 -43.5t-41 -114.5z" />
<glyph unicode="&#xff;" horiz-adv-x="1203" d="M11 960h421l170 -537l171 537h421l-419 -1067q-64 -162 -164.5 -237.5t-275.5 -75.5q-168 0 -261 60l60 293q58 -30 121 -30q62 0 102.5 21.5t63.5 90.5zM241 1257q0 78 49 127t126 49q78 0 127 -49t49 -127q0 -77 -49 -125t-127 -48q-77 0 -126 48t-49 125zM639 1257 q0 78 48.5 127t124.5 49q79 0 128 -49t49 -127q0 -77 -49 -125t-128 -48q-76 0 -124.5 48t-48.5 125z" />
<glyph unicode="&#x152;" horiz-adv-x="2204" d="M45 683q0 313 206 504t548 191q200 0 359 -119v99h996v-342h-666v-160h660v-339h-660v-178h672v-339h-1002v100q-161 -120 -359 -120q-342 0 -548 193t-206 510zM482 682q0 -147 87.5 -234t231.5 -87q137 0 222 87.5t85 233.5q0 141 -85.5 226t-221.5 85 q-143 0 -231 -84.5t-88 -226.5z" />
<glyph unicode="&#x153;" horiz-adv-x="1686" d="M31 480q0 226 146.5 363t388.5 137q185 0 310 -112q126 107 303 107q220 0 348 -115t128 -343q0 -52 -10 -127h-598q2 -42 67.5 -71.5t151.5 -29.5q167 0 310 59l43 -290q-58 -31 -160 -56t-219 -25q-209 0 -359 114q-137 -111 -315 -111q-242 0 -388.5 136.5 t-146.5 363.5zM419 480q0 -72 40.5 -116t106.5 -44q67 0 107 44t40 116q0 71 -40.5 114.5t-106.5 43.5t-106.5 -43.5t-40.5 -114.5zM1050 582h228q0 42 -29.5 70t-78.5 28q-111 0 -120 -98z" />
<glyph unicode="&#x178;" horiz-adv-x="1634" d="M16 1358h499l302 -500l317 500h484l-584 -867v-491h-428v491zM448 1655q0 78 49 127t126 49q78 0 127 -49t49 -127q0 -77 -49 -125t-127 -48q-77 0 -126 48t-49 125zM846 1655q0 78 48.5 127t124.5 49q79 0 128 -49t49 -127q0 -77 -49 -125t-128 -48q-76 0 -124.5 48 t-48.5 125z" />
<glyph unicode="&#x2c6;" horiz-adv-x="973" d="M56 1471l287 370h287l287 -370h-336l-95 155l-96 -155h-334z" />
<glyph unicode="&#x2dc;" horiz-adv-x="954" d="M56 1589q59 122 137.5 182t165.5 60q46 0 85.5 -14t62 -31t51 -31t55.5 -14q64 0 137 72l148 -123q-57 -120 -145.5 -178.5t-167.5 -58.5q-45 0 -90 21.5t-84 42.5t-71 21q-65 0 -132 -87z" />
<glyph unicode="&#x2000;" horiz-adv-x="963" />
<glyph unicode="&#x2001;" horiz-adv-x="1926" />
<glyph unicode="&#x2002;" horiz-adv-x="963" />
<glyph unicode="&#x2003;" horiz-adv-x="1926" />
<glyph unicode="&#x2004;" horiz-adv-x="642" />
<glyph unicode="&#x2005;" horiz-adv-x="481" />
<glyph unicode="&#x2006;" horiz-adv-x="321" />
<glyph unicode="&#x2007;" horiz-adv-x="321" />
<glyph unicode="&#x2008;" horiz-adv-x="240" />
<glyph unicode="&#x2009;" horiz-adv-x="385" />
<glyph unicode="&#x200a;" horiz-adv-x="107" />
<glyph unicode="&#x2010;" horiz-adv-x="879" d="M48 379v289h783v-289h-783z" />
<glyph unicode="&#x2011;" horiz-adv-x="879" d="M48 379v289h783v-289h-783z" />
<glyph unicode="&#x2012;" horiz-adv-x="879" d="M48 379v289h783v-289h-783z" />
<glyph unicode="&#x2013;" horiz-adv-x="1148" d="M48 379v289h1052v-289h-1052z" />
<glyph unicode="&#x2014;" horiz-adv-x="2159" d="M48 379v289h2063v-289h-2063z" />
<glyph unicode="&#x2018;" horiz-adv-x="562" d="M30 912l185 516h324l-137 -516h-372z" />
<glyph unicode="&#x2019;" horiz-adv-x="559" d="M33 912l137 516h372l-186 -516h-323z" />
<glyph unicode="&#x201a;" horiz-adv-x="559" d="M8 -285l137 516h372l-201 -516h-308z" />
<glyph unicode="&#x201c;" horiz-adv-x="1009" d="M30 912l185 516h324l-137 -516h-372zM477 912l185 516h324l-137 -516h-372z" />
<glyph unicode="&#x201d;" horiz-adv-x="1011" d="M33 912l137 516h372l-186 -516h-323zM485 912l137 516h372l-185 -516h-324z" />
<glyph unicode="&#x201e;" horiz-adv-x="1012" d="M8 -284l137 516h372l-186 -516h-323zM460 -284l137 516h372l-185 -516h-324z" />
<glyph unicode="&#x2022;" horiz-adv-x="811" d="M57 657q0 144 100 242.5t247 98.5q148 0 249 -98.5t101 -242.5q0 -143 -101 -242t-249 -99q-147 0 -247 98.5t-100 242.5z" />
<glyph unicode="&#x2026;" horiz-adv-x="1550" d="M38 189q0 88 60.5 148t152.5 60q91 0 152.5 -59.5t61.5 -148.5q0 -88 -61 -148.5t-153 -60.5q-91 0 -152 60t-61 149zM560 189q0 88 60.5 148t152.5 60q91 0 152.5 -59.5t61.5 -148.5q0 -88 -61 -148.5t-153 -60.5q-91 0 -152 60t-61 149zM1085 189q0 88 60.5 148 t152.5 60q91 0 152.5 -59.5t61.5 -148.5q0 -88 -61 -148.5t-153 -60.5q-91 0 -152 60t-61 149z" />
<glyph unicode="&#x202f;" horiz-adv-x="385" />
<glyph unicode="&#x2039;" horiz-adv-x="705" d="M29 478l272 394h372l-254 -394l254 -395h-372z" />
<glyph unicode="&#x203a;" horiz-adv-x="705" d="M32 83l254 394l-254 395h372l272 -395l-272 -394h-372z" />
<glyph unicode="&#x205f;" horiz-adv-x="481" />
<glyph unicode="&#x20ac;" horiz-adv-x="1386" d="M24 441v192h148q-1 16 -1 50v24h-147v197h176q45 157 156 267t260 162t326 53q192 0 360 -66l-42 -363q-134 57 -287 57q-209 0 -309 -110h367l-29 -197h-412v-18q0 -33 4 -56h399l-32 -192h-263q106 -86 279 -86q182 0 326 89l50 -355q-130 -72 -223 -90.5t-236 -18.5 q-159 0 -297 54.5t-239.5 159.5t-148.5 247h-185z" />
<glyph unicode="&#x2122;" horiz-adv-x="1449" d="M26 1210v196h575v-196h-173v-445h-230v445h-172zM643 765v641h187l188 -228l189 228h187v-641h-210v309l-144 -168h-40l-146 168v-309h-211z" />
<glyph unicode="&#x25fc;" horiz-adv-x="960" d="M0 0v960h960v-960h-960z" />
</font>
</defs>
</svg>
