<?xml version="1.0" standalone="no"?>
<!DOCTYPE svg PUBLIC "-//W3C//DTD SVG 1.1//EN" "http://www.w3.org/Graphics/SVG/1.1/DTD/svg11.dtd" >
<svg xmlns="http://www.w3.org/2000/svg" xmlns:xlink="http://www.w3.org/1999/xlink" version="1.1">
<metadata></metadata>
<defs>
<font id="fieldwork5hum_thin" horiz-adv-x="1319" >
<font-face units-per-em="2048" ascent="1638" descent="-410" />
<missing-glyph horiz-adv-x="484" />
<glyph unicode="&#xfb01;" horiz-adv-x="1201" d="M58 854v106h181v134q0 158 94 246t251 88q85 0 157 -27l-16 -93q-50 22 -135 22q-46 0 -85.5 -12.5t-73 -39.5t-53 -77t-19.5 -118v-123h312v-106h-312v-854h-120v854h-181zM894 1282q0 33 21 54t54 21t54.5 -21t21.5 -54t-21.5 -54t-54.5 -21t-54 21t-21 54zM910 0v960 h120v-960h-120z" />
<glyph unicode="&#xfb02;" horiz-adv-x="1200" d="M58 854v106h181v134q0 158 94 246t251 88q85 0 157 -27l-16 -93q-50 22 -135 22q-46 0 -85.5 -12.5t-73 -39.5t-53 -77t-19.5 -118v-123h312v-106h-312v-854h-120v854h-181zM894 0v1408h120v-1408h-120z" />
<glyph unicode="&#xfb03;" horiz-adv-x="1931" d="M58 854v106h181v134q0 158 94 246t251 88q85 0 157 -27l-16 -93q-50 22 -135 22q-46 0 -85.5 -12.5t-73 -39.5t-53 -77t-19.5 -118v-123h610v134q0 158 94 246t251 88q85 0 157 -27l-16 -93q-50 22 -135 22q-46 0 -85.5 -12.5t-73 -39.5t-53 -77t-19.5 -118v-123h312 v-106h-312v-854h-120v854h-610v-854h-120v854h-181zM1624 1282q0 33 21 54t54 21t54.5 -21t21.5 -54t-21.5 -54t-54.5 -21t-54 21t-21 54zM1640 0v960h120v-960h-120z" />
<glyph unicode="&#xfb04;" horiz-adv-x="1930" d="M58 854v106h181v134q0 158 94 246t251 88q85 0 157 -27l-16 -93q-50 22 -135 22q-46 0 -85.5 -12.5t-73 -39.5t-53 -77t-19.5 -118v-123h610v134q0 158 94 246t251 88q85 0 157 -27l-16 -93q-50 22 -135 22q-46 0 -85.5 -12.5t-73 -39.5t-53 -77t-19.5 -118v-123h312 v-106h-312v-854h-120v854h-610v-854h-120v854h-181zM1624 0v1408h120v-1408h-120z" />
<glyph horiz-adv-x="0" />
<glyph unicode="&#xd;" horiz-adv-x="484" />
<glyph horiz-adv-x="484" />
<glyph unicode=" "  horiz-adv-x="484" />
<glyph unicode="&#x09;" horiz-adv-x="484" />
<glyph unicode="&#xa0;" horiz-adv-x="484" />
<glyph unicode="!" horiz-adv-x="522" d="M185 68q0 33 21 54t54 21t54.5 -21t21.5 -54t-21.5 -54t-54.5 -21t-54 21t-21 54zM201 1358h121l-10 -990h-102z" />
<glyph unicode="&#x22;" horiz-adv-x="615" d="M138 1428h129l-23 -433h-83zM348 1428h129l-23 -433h-83z" />
<glyph unicode="#" horiz-adv-x="1362" d="M83 376l18 96h256l79 444h-257l18 95h256l63 347h114l-62 -347h338l62 347h115l-62 -347h260l-18 -95h-259l-79 -444h259l-19 -96h-257l-67 -377h-116l67 377h-337l-67 -377h-116l67 377h-256zM472 472h337l80 444h-338z" />
<glyph unicode="$" horiz-adv-x="1008" d="M106 958q0 133 93.5 213.5t260.5 92.5l-8 251h120l-9 -249q149 -9 283 -62l-14 -110q-161 61 -309 61q-137 0 -214.5 -51.5t-77.5 -142.5q0 -42 17.5 -74.5t52.5 -55t64.5 -35.5t76.5 -29l191 -60q157 -53 223 -126.5t66 -186.5q0 -130 -92.5 -209t-260.5 -94l9 -250 h-120l8 247q-174 6 -343 79l12 120q177 -86 358 -86q143 0 223.5 52t80.5 146q0 67 -46 113t-146 80l-204 64q-144 47 -219.5 118t-75.5 184z" />
<glyph unicode="%" horiz-adv-x="1889" d="M49 1036q0 145 100 243.5t249 98.5t248.5 -98.5t99.5 -243.5t-99.5 -243t-248.5 -98t-249 98.5t-100 242.5zM157 1036q0 -102 68.5 -171.5t172.5 -69.5t172.5 69.5t68.5 171.5q0 103 -68.5 172.5t-172.5 69.5t-172.5 -69.5t-68.5 -172.5zM452 0v26l734 1332h103v-24 l-732 -1334h-105zM993 321q0 145 100 243.5t249 98.5t248.5 -98.5t99.5 -243.5t-99.5 -243t-248.5 -98t-249 98.5t-100 242.5zM1101 321q0 -102 68.5 -171.5t172.5 -69.5t172.5 69.5t68.5 171.5q0 103 -68.5 172.5t-172.5 69.5t-172.5 -69.5t-68.5 -172.5z" />
<glyph unicode="&#x26;" horiz-adv-x="1303" d="M102 381q0 57 17 110t43.5 93t64 76t72.5 60t74 45q-57 63 -89 129.5t-32 152.5q0 146 117 238.5t303 92.5q170 0 306 -63l-19 -109q-51 24 -129 43t-158 19q-134 0 -217 -59.5t-83 -155.5q0 -81 30 -139.5t102 -132.5l499 -479q58 76 82.5 198t14.5 238h111 q17 -305 -126 -513l228 -225h-160l-146 142q-25 -26 -57.5 -50.5t-82.5 -51.5t-120 -43.5t-149 -16.5q-214 0 -355 112t-141 289zM222 380q0 -127 107 -208.5t267 -81.5q207 0 341 131l-502 467q-213 -104 -213 -308z" />
<glyph unicode="'" horiz-adv-x="405" d="M138 1428h129l-23 -433h-83z" />
<glyph unicode="(" horiz-adv-x="559" d="M113 580q0 277 76 512.5t212 467.5h127q-12 -18 -31 -51.5t-68 -139t-86.5 -214.5t-68 -267t-30.5 -308t29.5 -306t72 -271.5t85 -210t71.5 -143.5l30 -49h-130q-122 167 -205.5 436t-83.5 544z" />
<glyph unicode=")" horiz-adv-x="561" d="M29 -400q12 18 31.5 51t69 139t87.5 215t69 267t31 308q0 109 -15.5 222t-40.5 206.5t-55.5 181t-61 153.5t-55.5 115.5t-41 75.5l-15 26h127q136 -232 212 -467.5t76 -512.5q0 -275 -83.5 -544t-205.5 -436h-130z" />
<glyph unicode="*" horiz-adv-x="890" d="M96 1106l34 104l274 -104l-14 299h110l-14 -299l274 104l34 -104l-276 -76l-1 -4l187 -233l-89 -65l-170 259l-170 -259l-89 65l187 233l-1 4z" />
<glyph unicode="+" horiz-adv-x="1235" d="M85 622v119h473v464h117v-464h475v-119h-475v-471h-117v471h-473z" />
<glyph unicode="," horiz-adv-x="422" d="M44 -255l106 434h125l-125 -434h-106z" />
<glyph unicode="-" horiz-adv-x="980" d="M162 518v119h656v-119h-656z" />
<glyph unicode="." horiz-adv-x="408" d="M129 68q0 33 21 54t54 21t54.5 -21t21.5 -54t-21.5 -54t-54.5 -21t-54 21t-21 54z" />
<glyph unicode="/" horiz-adv-x="1014" d="M54 -400l785 1929h125l-786 -1929h-124z" />
<glyph unicode="0" horiz-adv-x="1359" d="M133 679q0 328 145 513.5t401 185.5t401.5 -185.5t145.5 -513.5t-145.5 -513.5t-401.5 -185.5t-401 185.5t-145 513.5zM252 679q0 -276 113.5 -432t313.5 -156q201 0 314.5 156t113.5 432t-113.5 432.5t-314.5 156.5q-200 0 -313.5 -156.5t-113.5 -432.5z" />
<glyph unicode="1" horiz-adv-x="693" d="M46 1247v111h419v-1358h-120v1247h-299z" />
<glyph unicode="2" horiz-adv-x="1094" d="M109 1v118l432 420q138 135 195.5 231t57.5 204q0 98 -46.5 165t-117.5 95.5t-160 28.5q-87 0 -175.5 -28t-157.5 -76l-18 115q169 102 371 102q89 0 165.5 -23.5t138.5 -70t97.5 -125t35.5 -180.5q0 -70 -21 -135t-64 -129t-91 -118.5t-121 -124.5l-371 -359h728v-110 h-878z" />
<glyph unicode="3" horiz-adv-x="1163" d="M92 69l22 121q181 -90 389 -90q192 0 300 75t108 207q0 142 -102 222.5t-283 80.5q-108 0 -211 -30v105l469 487h-617v111h784v-89l-471 -482q36 4 78 4q216 0 350.5 -106.5t134.5 -288.5q0 -195 -141 -305.5t-391 -110.5q-248 0 -419 89z" />
<glyph unicode="4" horiz-adv-x="1145" d="M71 345v99l454 914h136l-455 -904h552v382h119v-382h204v-109h-204v-346h-119v346h-687z" />
<glyph unicode="5" horiz-adv-x="1135" d="M105 52l13 117q77 -36 179 -56.5t200 -20.5q186 0 291 83.5t105 230.5q0 153 -110 240t-304 87q-158 0 -278 -49l-27 36l68 638h710v-112h-618l-46 -434q83 29 207 29q236 0 381.5 -113t145.5 -307q0 -207 -136 -324t-375 -117q-238 0 -406 72z" />
<glyph unicode="6" horiz-adv-x="1240" d="M134 588q0 210 42.5 364.5t122 246.5t184.5 135.5t238 43.5q187 0 324 -65l-13 -107q-145 62 -308 62q-463 0 -477 -640q52 105 159 170.5t246 65.5q215 0 348.5 -121.5t133.5 -316.5q0 -199 -133.5 -322.5t-348.5 -123.5q-251 0 -384.5 157t-133.5 451zM283 419 q0 -148 100.5 -238t263.5 -90t263.5 90t100.5 238q0 149 -101 241.5t-263 92.5t-263 -92.5t-101 -241.5z" />
<glyph unicode="7" horiz-adv-x="939" d="M67 1237v121h818v-99l-567 -1259h-130l561 1237h-682z" />
<glyph unicode="8" horiz-adv-x="1269" d="M134 357q0 260 260 354q-103 42 -165.5 118.5t-62.5 184.5q0 113 64 197.5t169 126.5t235 42q129 0 234 -42t169.5 -126.5t64.5 -197.5q0 -108 -63 -184.5t-166 -118.5q119 -43 190 -129.5t71 -224.5q0 -117 -68 -203.5t-180.5 -129t-251.5 -42.5q-140 0 -252 42.5 t-180 129t-68 203.5zM255 364q0 -87 52 -150.5t136.5 -94.5t190.5 -31q162 0 270 73.5t108 202.5q0 143 -106.5 218.5t-271.5 75.5q-107 0 -191 -31t-136 -99t-52 -164zM289 1009q0 -112 99 -179.5t246 -67.5t246.5 68t99.5 179q0 125 -98.5 195t-247.5 70 q-150 0 -247.5 -70t-97.5 -195z" />
<glyph unicode="9" horiz-adv-x="1240" d="M106 932q0 199 133.5 322.5t348.5 123.5q242 0 380 -148t138 -430q0 -219 -40 -378t-117.5 -255.5t-183.5 -141.5t-246 -45q-182 0 -314 65l13 107q141 -62 298 -62q236 0 351 151.5t126 488.5q-52 -105 -159 -170.5t-246 -65.5q-215 0 -348.5 121.5t-133.5 316.5z M229 939q0 -149 101 -241.5t263 -92.5t263 92.5t101 241.5q0 148 -100.5 238t-263.5 90t-263.5 -90t-100.5 -238z" />
<glyph unicode=":" horiz-adv-x="475" d="M162 68q0 33 21 54t54 21t54.5 -21t21.5 -54t-21.5 -54t-54.5 -21t-54 21t-21 54zM162 888q0 33 21 54t54 21t54.5 -21t21.5 -54t-21.5 -54t-54.5 -21t-54 21t-21 54z" />
<glyph unicode=";" horiz-adv-x="484" d="M69 -255l106 434h125l-125 -434h-106zM173 888q0 33 21 54t54 21t54.5 -21t21.5 -54t-21.5 -54t-54.5 -21t-54 21t-21 54z" />
<glyph unicode="&#x3c;" horiz-adv-x="1181" d="M109 596v160l919 412v-128l-821 -362l821 -351v-129z" />
<glyph unicode="=" horiz-adv-x="1350" d="M170 361v123h1010v-123h-1010zM170 874v123h1010v-123h-1010z" />
<glyph unicode="&#x3e;" horiz-adv-x="1181" d="M153 198v129l821 351l-821 362v128l919 -412v-160z" />
<glyph unicode="?" horiz-adv-x="886" d="M72 1287q141 91 324 91q188 0 292.5 -102t104.5 -262q0 -141 -104 -254t-276 -178l-9 -245h-110l-10 314q76 27 138.5 59t122 76t93 101.5t33.5 122.5q0 116 -74.5 184t-206.5 68q-154 0 -287 -81zM272 68q0 33 21 54t54 21t54.5 -21t21.5 -54t-21.5 -54t-54.5 -21 t-54 21t-21 54z" />
<glyph unicode="@" horiz-adv-x="1969" d="M101 532q0 194 72 359.5t194.5 278t287.5 176t349 63.5q170 0 326 -63.5t271.5 -172.5t184 -263t68.5 -327q0 -239 -93.5 -368.5t-263.5 -129.5q-84 0 -147.5 54t-103.5 147q-40 -77 -127.5 -126.5t-194.5 -49.5q-173 0 -286.5 114.5t-113.5 301.5t114.5 303t285.5 116 q187 0 317 -166l11 149h114v-539q0 -106 45 -153t119 -47q97 0 150 111t53 283q0 148 -56 279.5t-152.5 226.5t-234.5 150.5t-295 55.5q-230 0 -406.5 -95.5t-273.5 -269.5t-97 -400q0 -160 59.5 -300.5t161.5 -240t244 -157t301 -57.5q211 0 419 104l24 -48q15 -30 23 -47 q-236 -126 -466 -126q-178 0 -339.5 64.5t-281.5 178t-191 278t-71 353.5zM649 532q0 -128 81.5 -217.5t210.5 -89.5q128 0 212.5 90t84.5 217q0 126 -84.5 212t-212.5 86q-130 0 -211 -85.5t-81 -212.5z" />
<glyph unicode="A" d="M19 0l565 1358h157l561 -1358h-122l-144 347h-748l-143 -347h-126zM333 454h659l-330 796z" />
<glyph unicode="B" horiz-adv-x="1425" d="M223 0v1358h584q183 0 297 -91t114 -269q0 -87 -43 -160t-128 -111q121 -33 192 -122t71 -229q0 -168 -115 -272t-340 -104h-632zM343 108h540q137 0 222 68t85 199q0 122 -77 197.5t-230 75.5h-540v-540zM343 752h462q127 0 208.5 66t81.5 178q0 113 -71.5 184.5 t-212.5 71.5h-468v-500z" />
<glyph unicode="C" horiz-adv-x="1374" d="M115 681q0 205 93.5 363.5t263 246t388.5 87.5q231 0 401 -84l-13 -112q-175 81 -390 81q-276 0 -447.5 -161t-171.5 -421q0 -261 177.5 -423.5t461.5 -162.5q72 0 138.5 9t110.5 21.5t77.5 25.5t49.5 22l15 9l24 -115q-7 -4 -19.5 -9.5t-54.5 -20.5t-87 -26.5t-114 -21 t-139 -9.5q-224 0 -398 88t-270 247.5t-96 365.5z" />
<glyph unicode="D" horiz-adv-x="1576" d="M223 0v1358h537q171 0 304 -50t218 -141t129 -214.5t44 -274.5q0 -323 -177.5 -500.5t-521.5 -177.5h-533zM342 113h428q267 0 416 146t149 419q0 264 -150.5 415.5t-414.5 151.5h-428v-1132z" />
<glyph unicode="E" horiz-adv-x="1320" d="M223 0v1358h961v-108h-841v-497h736v-109h-736v-536h863v-108h-983z" />
<glyph unicode="F" horiz-adv-x="1215" d="M223 0v1358h926v-108h-806v-498h656v-107h-656v-645h-120z" />
<glyph unicode="G" horiz-adv-x="1540" d="M115 681q0 205 96.5 363.5t272.5 246t402 87.5q249 0 452 -101l-11 -117q-193 103 -445 103q-286 0 -464.5 -161t-178.5 -420q0 -263 183 -427t477 -164q247 0 379 77v457h-472v109h587v-636q-193 -118 -485 -118q-233 0 -413.5 88t-280 247.5t-99.5 365.5z" />
<glyph unicode="H" horiz-adv-x="1582" d="M223 0v1358h120v-603h896v603h120v-1358h-120v645h-896v-645h-120z" />
<glyph unicode="I" horiz-adv-x="566" d="M223 0v1358h120v-1358h-120z" />
<glyph unicode="J" horiz-adv-x="1071" d="M45 57l26 107q147 -71 310 -71q177 0 269 76t92 247v832h-555v110h675v-952q0 -202 -123 -314t-351 -112q-77 0 -177.5 23.5t-165.5 53.5z" />
<glyph unicode="K" horiz-adv-x="1307" d="M223 0v1358h120v-648h361l383 648h141l-419 -701l504 -657h-152l-457 600h-361v-600h-120z" />
<glyph unicode="L" horiz-adv-x="1206" d="M223 0v1358h120v-1248h822v-110h-942z" />
<glyph unicode="M" horiz-adv-x="1874" d="M223 0v1358h134l582 -708l579 708h133v-1358h-118v1192l-576 -706h-34l-582 705v-1191h-118z" />
<glyph unicode="N" horiz-adv-x="1683" d="M223 0v1358h136l980 -1190v1190h121v-1358h-135l-981 1193v-1193h-121z" />
<glyph unicode="O" horiz-adv-x="1661" d="M115 672q0 202 93 363.5t255.5 252t363.5 90.5q204 0 368.5 -90.5t257.5 -252t93 -363.5q0 -150 -54.5 -279.5t-150 -220t-228.5 -142t-286 -51.5q-201 0 -363.5 87.5t-255.5 246.5t-93 359zM235 672q0 -168 77 -301.5t212.5 -207.5t302.5 -74q259 0 429 164t170 419 q0 259 -170 427.5t-429 168.5q-125 0 -235 -45t-188.5 -123t-123.5 -189t-45 -239z" />
<glyph unicode="P" horiz-adv-x="1362" d="M223 0v1358h585q98 0 182 -28.5t150 -84t104 -145.5t38 -206q0 -105 -38 -192.5t-103.5 -145t-151 -89t-181.5 -31.5h-465v-436h-120zM343 546h465q148 0 251 95t103 253q0 88 -28.5 157t-77.5 111.5t-112 64t-136 21.5h-465v-702z" />
<glyph unicode="Q" horiz-adv-x="1661" d="M115 672q0 150 54 281t148 224.5t226.5 147t283.5 53.5q205 0 369.5 -91t257 -252.5t92.5 -362.5q0 -268 -162.5 -455t-424.5 -228q96 -110 258 -177t325 -67q79 0 146 16l7 -109q-77 -17 -166 -17q-209 0 -404.5 94t-305.5 250q-202 2 -362.5 91.5t-251 247t-90.5 354.5 zM235 672q0 -253 167.5 -418t424.5 -165q172 0 309 75t213.5 208t76.5 300q0 258 -170 427t-429 169q-168 0 -303.5 -77t-212 -213.5t-76.5 -305.5z" />
<glyph unicode="R" horiz-adv-x="1402" d="M223 0v1358h585q98 0 182 -28.5t150 -84t104 -145.5t38 -206q0 -164 -88 -278.5t-231 -157.5l377 -458h-157l-350 437q-9 -1 -25 -1h-465v-436h-120zM343 546h465q148 0 251 95t103 253q0 88 -28.5 157t-77.5 111.5t-112 64t-136 21.5h-465v-702z" />
<glyph unicode="S" horiz-adv-x="1154" d="M123 1013q0 171 126 268t348 97q204 0 386 -74l-16 -107q-189 73 -367 73q-165 0 -258.5 -67.5t-93.5 -186.5q0 -40 14.5 -73t35 -54t57 -41t65 -31t75.5 -28l9 -3l227 -78q179 -63 251.5 -146t72.5 -213q0 -173 -129.5 -271t-359.5 -98q-218 0 -441 93l14 119 q99 -48 212.5 -75t212.5 -27q175 0 274 70.5t99 194.5q0 84 -54.5 139.5t-185.5 101.5l-241 82q-165 57 -249 133.5t-84 201.5z" />
<glyph unicode="T" horiz-adv-x="1118" d="M38 1248v110h1042v-110h-461v-1248h-120v1248h-461z" />
<glyph unicode="U" horiz-adv-x="1590" d="M207 495v863h120v-863q0 -182 125.5 -292.5t341.5 -110.5q214 0 341.5 112t127.5 291v863h120v-863q0 -230 -160 -372.5t-429 -142.5q-272 0 -429.5 140.5t-157.5 374.5z" />
<glyph unicode="V" horiz-adv-x="1333" d="M25 1358h131l510 -1234l514 1234h128l-562 -1358h-156z" />
<glyph unicode="W" horiz-adv-x="2032" d="M44 1358h127l375 -1208l406 1208h128l406 -1207l375 1207h127l-425 -1358h-145l-403 1206l-401 -1206h-145z" />
<glyph unicode="X" horiz-adv-x="1219" d="M12 -1l522 697l-497 662h147l428 -568l429 568h144l-499 -662l523 -697h-148l-451 604l-454 -604h-144z" />
<glyph unicode="Y" horiz-adv-x="1226" d="M19 1358h142l452 -694l452 694h142l-534 -818v-540h-120v539z" />
<glyph unicode="Z" horiz-adv-x="1261" d="M107 0v100l888 1148h-868v110h1005v-133l-869 -1115h893v-110h-1049z" />
<glyph unicode="[" horiz-adv-x="636" d="M215 -400v1953h368v-113h-253v-1727h253v-113h-368z" />
<glyph unicode="\" horiz-adv-x="1014" d="M50 1529h125l785 -1929h-124z" />
<glyph unicode="]" horiz-adv-x="636" d="M53 -287h253v1727h-253v113h368v-1953h-368v113z" />
<glyph unicode="^" horiz-adv-x="1150" d="M83 510l418 848h149l417 -848h-129l-363 728l-363 -728h-129z" />
<glyph unicode="_" horiz-adv-x="1223" d="M130 -89h963v-105h-963v105z" />
<glyph unicode="`" horiz-adv-x="660" d="M190 1807h138l142 -334h-107z" />
<glyph unicode="a" horiz-adv-x="1091" d="M106 256q0 138 113.5 216.5t301.5 78.5q146 0 279 -42v85q0 129 -80.5 200.5t-233.5 71.5q-74 0 -159.5 -20.5t-145.5 -52.5l-13 110q67 34 156.5 55.5t167.5 21.5q206 0 316.5 -102t110.5 -284v-594h-119v172q-57 -90 -155.5 -141t-210.5 -51q-148 0 -238 74t-90 202z M226 263q0 -85 58 -134.5t154 -49.5q134 0 237 80.5t125 191.5v66q-144 40 -284 40q-132 0 -211 -50.5t-79 -143.5z" />
<glyph unicode="b" horiz-adv-x="1295" d="M186 0v1408h120v-633q57 91 162 148t236 57q207 0 346.5 -144.5t139.5 -356.5q0 -211 -139.5 -355t-346.5 -144q-131 0 -236 56t-162 146v-182h-120zM300 479q0 -165 113.5 -277t282.5 -112q161 0 268.5 112t107.5 277q0 166 -107.5 278.5t-268.5 112.5 q-169 0 -282.5 -112.5t-113.5 -278.5z" />
<glyph unicode="c" horiz-adv-x="1033" d="M104 481q0 222 149 360.5t387 138.5q91 0 168 -19.5t120 -43.5l-13 -110q-111 59 -275 59q-184 0 -297.5 -106t-113.5 -279q0 -172 115 -279.5t299 -107.5q77 0 156 18t129 46l22 -111q-59 -30 -144 -48.5t-163 -18.5q-240 0 -389.5 139t-149.5 362z" />
<glyph unicode="d" horiz-adv-x="1295" d="M105 479q0 212 139.5 356.5t346.5 144.5q131 0 236 -57t162 -148v633h120v-1408h-120v182q-57 -90 -162 -146t-236 -56q-207 0 -346.5 144t-139.5 355zM223 479q0 -165 107.5 -277t268.5 -112q169 0 282.5 112t113.5 277q0 166 -113.5 278.5t-282.5 112.5 q-161 0 -268.5 -112.5t-107.5 -278.5z" />
<glyph unicode="e" horiz-adv-x="1169" d="M104 480q0 216 139 357.5t355 141.5q163 0 277.5 -78t159.5 -201q30 -81 30 -171q0 -46 -8 -93h-824q14 -157 134 -249.5t270 -92.5q99 0 178 17t167 71l26 -107q-158 -95 -357 -95q-243 0 -395 139t-152 361zM236 538h709q-7 146 -99 238.5t-244 92.5t-253.5 -93.5 t-112.5 -237.5z" />
<glyph unicode="f" horiz-adv-x="723" d="M58 854v106h181v134q0 158 94 246t251 88q85 0 157 -27l-16 -93q-50 22 -135 22q-46 0 -85.5 -12.5t-73 -39.5t-53 -77t-19.5 -118v-123h312v-106h-312v-854h-120v854h-181z" />
<glyph unicode="g" horiz-adv-x="1072" d="M96 -184q0 77 44.5 129.5t103.5 82.5q-83 37 -83 118q0 46 35 93.5t85 78.5q-83 48 -130.5 126.5t-47.5 173.5q0 152 116.5 257t287.5 105q70 0 136 -20h361v-106h-186q94 -100 94 -234q0 -152 -117 -256t-288 -104q-76 0 -142 21q-39 -25 -62 -57t-23 -61q0 -27 26 -42 t73 -15h321q145 0 234 -67.5t89 -182.5q0 -138 -127 -216.5t-350 -78.5q-212 0 -331 67t-119 188zM210 -171q0 -78 86.5 -121.5t242.5 -43.5q171 0 268.5 49t97.5 134q0 71 -56.5 112t-154.5 41h-357q-127 -65 -127 -171zM221 619q0 -108 82.5 -182t203.5 -74t204 74t83 182 q0 107 -83 181t-204 74t-203.5 -74t-82.5 -181z" />
<glyph unicode="h" horiz-adv-x="1233" d="M186 0v1408h120v-615q55 93 148 140t200 47q186 0 296.5 -102t110.5 -292v-586h-118v550q0 159 -78.5 238.5t-229.5 79.5q-139 0 -234 -91.5t-95 -232.5v-544h-120z" />
<glyph unicode="i" horiz-adv-x="492" d="M171 1282q0 33 21 54t54 21t54.5 -21t21.5 -54t-21.5 -54t-54.5 -21t-54 21t-21 54zM186 0v960h120v-960h-120z" />
<glyph unicode="j" horiz-adv-x="502" d="M-98 -395l15 103q52 -20 121 -20q78 0 118 51t40 149v1072h120v-1083q0 -140 -71.5 -218.5t-199.5 -78.5q-90 0 -143 25zM181 1282q0 33 21 54t54 21t54.5 -21t21.5 -54t-21.5 -54t-54.5 -21t-54 21t-21 54z" />
<glyph unicode="k" horiz-adv-x="1035" d="M186 0v1408h120v-860h232l273 412h136l-317 -470l365 -490h-146l-324 443h-219v-443h-120z" />
<glyph unicode="l" horiz-adv-x="492" d="M186 0v1408h120v-1408h-120z" />
<glyph unicode="m" horiz-adv-x="1939" d="M186 0v960h119v-165q53 92 143.5 138.5t194.5 46.5q131 0 225 -59t136 -166q51 113 147 169t212 56q183 0 293.5 -105.5t110.5 -283.5v-591h-119v555q0 147 -80.5 230.5t-224.5 83.5q-131 0 -220 -90t-89 -230v-549h-119v555q0 146 -78 230t-214 84t-227 -90t-91 -230 v-549h-119z" />
<glyph unicode="n" horiz-adv-x="1233" d="M186 0v960h120v-167q55 93 148 140t200 47q186 0 296.5 -102t110.5 -292v-586h-118v550q0 159 -78.5 238.5t-229.5 79.5q-139 0 -234 -91.5t-95 -232.5v-544h-120z" />
<glyph unicode="o" horiz-adv-x="1224" d="M102 480q0 212 146 356t364 144t364 -144t146 -356t-146 -356t-364 -144t-364 144t-146 356zM222 480q0 -165 111.5 -277.5t278.5 -112.5t278.5 112.5t111.5 277.5t-111.5 277.5t-278.5 112.5t-278.5 -112.5t-111.5 -277.5z" />
<glyph unicode="p" horiz-adv-x="1295" d="M186 -400v1360h120v-182q57 90 162 146t236 56q207 0 346.5 -144t139.5 -355q0 -212 -139.5 -356.5t-346.5 -144.5q-131 0 -236 57t-162 148v-585h-120zM300 481q0 -166 113.5 -278.5t282.5 -112.5q161 0 268.5 112.5t107.5 278.5q0 165 -107.5 277t-268.5 112 q-169 0 -282.5 -112t-113.5 -277z" />
<glyph unicode="q" horiz-adv-x="1295" d="M105 481q0 211 139.5 355t346.5 144q131 0 236 -56t162 -146v182h120v-1360h-120v585q-57 -91 -162 -148t-236 -57q-207 0 -346.5 144.5t-139.5 356.5zM223 481q0 -166 107.5 -278.5t268.5 -112.5q169 0 282.5 112.5t113.5 278.5q0 165 -113.5 277t-282.5 112 q-161 0 -268.5 -112t-107.5 -277z" />
<glyph unicode="r" horiz-adv-x="750" d="M186 0v960h120v-153q39 86 109.5 129.5t158.5 43.5q83 0 141 -25l-12 -112q-68 26 -135 26q-116 0 -188.5 -85t-72.5 -241v-543h-121z" />
<glyph unicode="s" horiz-adv-x="930" d="M105 693q0 134 101.5 210.5t279.5 76.5q173 0 293 -48l-20 -106q-125 47 -263 47q-125 0 -196 -45t-71 -124q0 -31 11 -54.5t28.5 -39.5t49.5 -29t64 -21t82 -17l89 -17q140 -27 212 -93t72 -166q0 -134 -98.5 -210.5t-273.5 -76.5q-201 0 -355 72l19 114 q125 -76 327 -76q123 0 193 43.5t70 120.5q0 75 -60 112t-183 60l-107 20q-264 50 -264 247z" />
<glyph unicode="t" horiz-adv-x="752" d="M50 854v106h182v308h122v-308h328v-106h-328v-557q0 -107 47.5 -158t126.5 -51q106 0 173 30l16 -103q-28 -14 -83 -24.5t-112 -10.5q-132 0 -210.5 73t-78.5 215v586h-183z" />
<glyph unicode="u" horiz-adv-x="1222" d="M171 374v586h118v-550q0 -318 303 -318q137 0 230.5 91.5t93.5 232.5v544h120v-960h-120v167q-54 -93 -145.5 -140t-197.5 -47q-184 0 -293 102t-109 292z" />
<glyph unicode="v" horiz-adv-x="1050" d="M41 960h128l356 -850l356 850h128l-406 -960h-156z" />
<glyph unicode="w" horiz-adv-x="1614" d="M53 960h128l266 -850l296 840h128l296 -841l266 851h128l-316 -960h-156l-282 774l-282 -774h-156z" />
<glyph unicode="x" horiz-adv-x="974" d="M34 0l374 495l-362 464h149l294 -377l296 377h143l-362 -463l374 -496h-147l-310 404l-307 -404h-142z" />
<glyph unicode="y" horiz-adv-x="1025" d="M35 960h128l355 -852l345 852h132l-446 -1082q-66 -155 -145.5 -226.5t-192.5 -71.5q-111 0 -169 32l16 105q64 -27 144 -27q135 0 236 236l13 34z" />
<glyph unicode="z" horiz-adv-x="917" d="M106 0v103l549 751h-544v106h690v-103l-550 -751h576v-106h-721z" />
<glyph unicode="{" horiz-adv-x="607" d="M44 519v116q12 -1 32 1q86 9 115.5 56t29.5 140v415q0 74 11 128.5t37.5 100t76.5 69t124 23.5q49 0 70 -3v-102q-16 2 -46 2q-93 0 -128.5 -53.5t-35.5 -194.5v-399q0 -195 -108 -241q108 -46 108 -241v-399q0 -141 35.5 -194.5t128.5 -53.5q30 0 46 2v-102 q-21 -3 -70 -3q-74 0 -124 23.5t-76.5 69t-37.5 100t-11 128.5v415q0 93 -29.5 140t-115.5 56q-20 2 -32 1z" />
<glyph unicode="|" horiz-adv-x="543" d="M215 -400v2158h113v-2158h-113z" />
<glyph unicode="}" horiz-adv-x="607" d="M54 -309q16 -2 46 -2q93 0 128.5 53.5t35.5 194.5v399q0 195 108 241q-108 46 -108 241v399q0 141 -35.5 194.5t-128.5 53.5q-30 0 -46 -2v102q21 3 70 3q74 0 124 -23.5t76.5 -69t37.5 -100t11 -128.5v-415q0 -93 29.5 -140t115.5 -56q20 -2 32 -1v-116q-12 1 -32 -1 q-86 -9 -115.5 -56t-29.5 -140v-415q0 -74 -11 -128.5t-37.5 -100t-76.5 -69t-124 -23.5q-49 0 -70 3v102z" />
<glyph unicode="~" horiz-adv-x="1218" d="M139 567q51 59 126.5 99.5t152.5 40.5q59 0 115 -17.5t93 -38t87 -38t98 -17.5q91 0 190 99l78 -86q-51 -59 -126.5 -99.5t-152.5 -40.5q-59 0 -115 17.5t-93 38t-87 38t-98 17.5q-91 0 -190 -99z" />
<glyph unicode="&#xa1;" horiz-adv-x="487" d="M166 888q0 33 21 54t54 21t54.5 -21t21.5 -54t-21.5 -54t-54.5 -21t-54 21t-21 54zM181 -398l9 990h102l10 -990h-121z" />
<glyph unicode="&#xa2;" horiz-adv-x="1045" d="M101 680q0 207 127.5 343.5t337.5 156.5l-9 221h121l-9 -219q78 -4 143 -22.5t102 -40.5l-13 -111q-107 60 -271 60q-181 0 -293.5 -106.5t-112.5 -281.5q0 -173 113.5 -281.5t295.5 -108.5q76 0 154 18t127 46l22 -112q-114 -58 -265 -66l9 -224h-121l9 226 q-211 20 -339 156.5t-128 345.5z" />
<glyph unicode="&#xa3;" horiz-adv-x="1196" d="M110 648v86h206q-49 114 -49 252q0 121 64.5 211t171 135t239.5 45q172 0 339 -78l-14 -108q-152 78 -315 78q-165 0 -264.5 -76t-99.5 -221q0 -127 50 -238h502v-87h-470q41 -87 41 -196q0 -100 -56 -193t-154 -155h795v-104h-954v105q117 63 186 149.5t69 183.5 q0 119 -53 211h-234z" />
<glyph unicode="&#xa4;" horiz-adv-x="1238" d="M129 244l186 182q-78 113 -78 230q0 65 18 116.5t57 109.5l-182 178l76 76l177 -176q118 77 233 77q120 0 239 -78l176 176l73 -75l-181 -177q40 -52 58.5 -104.5t18.5 -122.5q0 -63 -19 -115t-60 -114l188 -183l-78 -74l-183 182q-111 -73 -232 -73q-118 0 -228 75 l-185 -183zM339 655q0 -109 81 -185.5t195 -76.5q117 0 200 77t83 185q0 112 -82.5 191t-200.5 79q-115 0 -195.5 -79t-80.5 -191z" />
<glyph unicode="&#xa5;" horiz-adv-x="1304" d="M58 1358h142l452 -694l452 694h142l-493 -756h319v-100h-360v-151h360v-100h-360v-251h-120v251h-343v100h343v151h-343v100h302z" />
<glyph unicode="&#xa6;" horiz-adv-x="543" d="M215 -399v848h113v-848h-113zM215 910v848h113v-848h-113z" />
<glyph unicode="&#xa7;" horiz-adv-x="1136" d="M82 589q0 89 45.5 164t114.5 132q-69 74 -69 180q0 97 56 169t147 108t203 36q101 0 195 -21t158 -50l-16 -104q-158 67 -334 67q-145 0 -214.5 -57.5t-69.5 -144.5q0 -23 6 -42.5t13.5 -34t25 -29.5t29.5 -24t39.5 -22t43 -19.5t50.5 -20.5l282 -115q136 -56 200 -131 t64 -178q0 -89 -45.5 -165t-115.5 -132q70 -72 70 -179q0 -97 -57.5 -169t-151 -108t-207.5 -36q-103 0 -200.5 21t-162.5 50l16 104q164 -67 344 -67q150 0 222 57.5t72 144.5q0 23 -6 42.5t-13.5 34t-25 29.5t-29.5 24t-39.5 22t-43 19.5t-50.5 20.5l-282 115 q-136 56 -200 131t-64 178zM207 602q0 -80 43 -128.5t145 -94.5l358 -137l46 -21q127 88 127 218q0 80 -43 128.5t-145 94.5l-358 137q-27 10 -46 21q-127 -89 -127 -218z" />
<glyph unicode="&#xa8;" horiz-adv-x="881" d="M190 1616q0 33 21 54t54 21t54.5 -21t21.5 -54t-21.5 -54t-54.5 -21t-54 21t-21 54zM540 1616q0 33 21 54t54 21t54.5 -21t21.5 -54t-21.5 -54t-54.5 -21t-54 21t-21 54z" />
<glyph unicode="&#xa9;" horiz-adv-x="1680" d="M111 680q0 146 60.5 276.5t160 222.5t232.5 145.5t274 53.5q143 0 276.5 -54t233 -145.5t159.5 -222.5t60 -276q0 -196 -101.5 -358t-268.5 -252t-359 -90q-144 0 -277 54t-232 146.5t-158.5 223.5t-59.5 276zM231 680q0 -163 83.5 -299.5t223 -213.5t300.5 -77t301 78 t224 214.5t84 297.5q0 121 -50 230.5t-132.5 188t-194.5 125t-232 46.5q-160 0 -299.5 -78t-223.5 -214.5t-84 -297.5zM425 681q0 177 118.5 287.5t308.5 110.5q72 0 133 -15.5t96 -34.5l-10 -110q-85 46 -219 46q-135 0 -218.5 -78t-83.5 -206q0 -127 84.5 -206t219.5 -79 q62 0 124.5 14t102.5 37l18 -112q-47 -24 -114.5 -38.5t-130.5 -14.5q-191 0 -310 110.5t-119 288.5z" />
<glyph unicode="&#xaa;" horiz-adv-x="879" d="M170 936q0 85 72 132.5t193 47.5q82 0 150 -18v42q0 137 -175 137q-51 0 -105.5 -13t-89.5 -33l-15 98q38 22 98 35.5t119 13.5q144 0 212 -59.5t68 -178.5v-367h-105v93q-29 -48 -85 -76.5t-125 -28.5q-90 0 -151 48t-61 127zM196 547v101h502v-101h-502zM274 939 q0 -42 34.5 -64.5t89.5 -22.5q73 0 126 38t61 94v27q-76 18 -153 18q-71 0 -114.5 -23.5t-43.5 -66.5z" />
<glyph unicode="&#xab;" horiz-adv-x="905" d="M96 480l272 395h130l-264 -395l264 -394h-130zM396 480l272 395h130l-264 -395l264 -394h-130z" />
<glyph unicode="&#xac;" horiz-adv-x="1339" d="M115 858v120h1067v-530h-117v410h-950z" />
<glyph unicode="&#xad;" horiz-adv-x="891" d="M162 518v119h567v-119h-567z" />
<glyph unicode="&#xae;" horiz-adv-x="1270" d="M96 1047q0 143 70.5 261.5t193.5 186.5t272 68q229 0 386 -149.5t157 -366.5q0 -143 -71.5 -262t-196.5 -187.5t-275 -68.5q-226 0 -381 150t-155 368zM206 1047q0 -175 123.5 -294.5t302.5 -119.5q182 0 307.5 119.5t125.5 294.5t-125.5 295.5t-307.5 120.5 q-179 0 -302.5 -120.5t-123.5 -295.5zM410 786v528h240q87 0 144.5 -51.5t57.5 -132.5q0 -49 -26 -91.5t-69 -66.5l115 -186h-128l-93 159h-134v-159h-107zM517 1035h144q36 0 57.5 27.5t21.5 67.5q0 43 -22 68.5t-57 25.5h-144v-189z" />
<glyph unicode="&#xaf;" horiz-adv-x="972" d="M190 1562v106h592v-106h-592z" />
<glyph unicode="&#xb0;" horiz-adv-x="918" d="M105 1026q0 149 102 250.5t251 101.5q150 0 252.5 -101.5t102.5 -250.5q0 -147 -102.5 -247.5t-252.5 -100.5q-149 0 -251 100.5t-102 247.5zM219 1026q0 -102 69 -172t170 -70q100 0 168.5 70t68.5 172q0 104 -68.5 175t-168.5 71q-101 0 -170 -71.5t-69 -174.5z" />
<glyph unicode="&#xb1;" horiz-adv-x="1328" d="M147 64v121h1033v-121h-1033zM164 851v119h441v386h117v-386h443v-119h-443v-394h-117v394h-441z" />
<glyph unicode="&#xb2;" horiz-adv-x="730" d="M87 535v89l264 250q77 73 111 131t34 118q0 73 -47 115.5t-128 42.5q-96 0 -203 -59l-16 97q115 59 230 59q128 0 200.5 -68t72.5 -186q0 -75 -43 -149t-140 -162l-200 -183h426v-95h-561z" />
<glyph unicode="&#xb3;" horiz-adv-x="756" d="M73 571l17 105q130 -67 229 -67q116 0 180 43t64 113q0 85 -61.5 125.5t-151.5 40.5q-60 0 -143 -23v88l262 267h-350v95h503v-73l-260 -260h7q140 0 223.5 -71.5t83.5 -180.5q0 -88 -51 -149.5t-127 -87.5t-169 -26q-146 0 -256 61z" />
<glyph unicode="&#xb4;" horiz-adv-x="660" d="M190 1473l142 334h138l-173 -334h-107z" />
<glyph unicode="&#xb5;" horiz-adv-x="1298" d="M205 -400v1360h119v-549q0 -317 312 -317q143 0 238.5 90.5t95.5 232.5v543h121v-960h-120v168q-54 -93 -150 -140.5t-204 -47.5q-206 0 -293 108v-488h-119z" />
<glyph unicode="&#xb6;" horiz-adv-x="1170" d="M73 962q0 175 119 285.5t299 110.5h540v-83h-307v-1675h-111v965h-122q-179 0 -298.5 110.5t-119.5 286.5zM870 -400v1539h96v-1539h-96z" />
<glyph unicode="&#xb7;" horiz-adv-x="461" d="M156 435q0 33 21 54t54 21t54.5 -21t21.5 -54t-21.5 -54t-54.5 -21t-54 21t-21 54z" />
<glyph unicode="&#xb8;" horiz-adv-x="699" d="M162 -320q57 -19 119 -19q139 0 139 75q0 81 -161 81h-49l77 210h87l-44 -129q91 -7 146.5 -50t55.5 -112q0 -81 -64 -127t-177 -46q-75 0 -129 18v99z" />
<glyph unicode="&#xb9;" horiz-adv-x="482" d="M45 1263v95h286v-828h-107v733h-179z" />
<glyph unicode="&#xba;" horiz-adv-x="962" d="M166 1069q0 130 91 219.5t224 89.5t224 -89.5t91 -219.5t-91 -219t-224 -89t-224 89t-91 219zM196 547v101h570v-101h-570zM272 1069q0 -86 60.5 -145t148.5 -59t148.5 59t60.5 145t-60.5 145.5t-148.5 59.5t-148.5 -59.5t-60.5 -145.5z" />
<glyph unicode="&#xbb;" horiz-adv-x="905" d="M107 86l264 394l-264 395h130l272 -395l-272 -394h-130zM407 86l264 394l-264 395h130l272 -395l-272 -394h-130z" />
<glyph unicode="&#xbc;" horiz-adv-x="1518" d="M69 1263v95h286v-828h-107v733h-179zM296 0v26l734 1332h103v-24l-732 -1334h-105zM849 205v77l271 546h121l-267 -528h286v228h107v-228h120v-95h-120v-205h-107v205h-411z" />
<glyph unicode="&#xbd;" horiz-adv-x="1638" d="M69 1263v95h286v-828h-107v733h-179zM296 0v26l734 1332h103v-24l-732 -1334h-105zM995 0v89l264 250q77 74 111 132t34 117q0 73 -47 115.5t-128 42.5q-96 0 -203 -59l-16 97q115 59 230 59q128 0 200.5 -68t72.5 -186q0 -75 -43 -149t-140 -162l-200 -183h426v-95h-561 z" />
<glyph unicode="&#xbe;" horiz-adv-x="1723" d="M31 571l17 105q130 -67 229 -67q116 0 180 43t64 113q0 85 -61.5 125.5t-151.5 40.5q-60 0 -143 -23v88l262 267h-350v95h503v-73l-260 -260h7q140 0 223.5 -71.5t83.5 -180.5q0 -88 -51 -149.5t-127 -87.5t-169 -26q-146 0 -256 61zM463 0v26l734 1332h103v-24 l-732 -1334h-105zM1015 205v77l271 546h121l-267 -528h286v228h107v-228h120v-95h-120v-205h-107v205h-411z" />
<glyph unicode="&#xbf;" horiz-adv-x="871" d="M86 -54q0 141 104 254t276 178l9 245h110l10 -314q-76 -27 -138.5 -59t-122 -76t-93 -101.5t-33.5 -122.5q0 -116 74.5 -184t206.5 -68q154 0 287 81l31 -106q-141 -91 -324 -91q-188 0 -292.5 102t-104.5 262zM454 888q0 33 21 54t54 21t54.5 -21t21.5 -54t-21.5 -54 t-54.5 -21t-54 21t-21 54z" />
<glyph unicode="&#xc0;" d="M19 0l565 1358h157l561 -1358h-122l-144 347h-748l-143 -347h-126zM333 454h659l-330 796zM427 1807h138l142 -334h-107z" />
<glyph unicode="&#xc1;" d="M19 0l565 1358h157l561 -1358h-122l-144 347h-748l-143 -347h-126zM333 454h659l-330 796zM612 1473l142 334h138l-173 -334h-107z" />
<glyph unicode="&#xc2;" d="M19 0l565 1358h157l561 -1358h-122l-144 347h-748l-143 -347h-126zM333 454h659l-330 796zM363 1471l263 368h72l263 -368h-123l-174 256l-178 -256h-123z" />
<glyph unicode="&#xc3;" d="M19 0l565 1358h157l561 -1358h-122l-144 347h-748l-143 -347h-126zM333 454h659l-330 796zM344 1604q90 125 199 125q56 0 137 -40.5t121 -40.5q39 0 67 19.5t63 59.5l68 -56q-90 -125 -194 -125q-56 0 -139.5 40.5t-123.5 40.5q-39 0 -67 -19.5t-63 -59.5z" />
<glyph unicode="&#xc4;" d="M19 0l565 1358h157l561 -1358h-122l-144 347h-748l-143 -347h-126zM333 454h659l-330 796zM411 1616q0 33 21 54t54 21t54.5 -21t21.5 -54t-21.5 -54t-54.5 -21t-54 21t-21 54zM761 1616q0 33 21 54t54 21t54.5 -21t21.5 -54t-21.5 -54t-54.5 -21t-54 21t-21 54z" />
<glyph unicode="&#xc5;" d="M19 0l565 1358h157l561 -1358h-122l-144 347h-748l-143 -347h-126zM333 454h659l-330 796zM445 1693q0 88 63 148t155 60t155 -60t63 -148q0 -87 -63 -146.5t-155 -59.5t-155 59.5t-63 146.5zM544 1693q0 -51 33 -85t86 -34t86 34t33 85q0 52 -33 86.5t-86 34.5 t-86 -34.5t-33 -86.5z" />
<glyph unicode="&#xc6;" horiz-adv-x="1952" d="M-33 0l835 1358h1014v-108h-821v-497h716v-109h-716v-536h843v-108h-963v347h-556l-213 -347h-139zM385 454h490v796z" />
<glyph unicode="&#xc7;" horiz-adv-x="1373" d="M114 681q0 205 93.5 363.5t263 246t388.5 87.5q231 0 401 -84l-13 -112q-175 81 -390 81q-276 0 -447.5 -161t-171.5 -421q0 -261 177.5 -423.5t461.5 -162.5q72 0 138.5 9t110.5 21.5t77.5 25.5t48.5 22l16 9l24 -115q-7 -4 -19.5 -9.5t-54.5 -20.5t-87 -26.5t-114 -21 t-139 -9.5q-5 0 -13.5 0.5t-12.5 0.5l-28 -83q91 -7 146.5 -50t55.5 -112q0 -81 -64 -127t-177 -46q-75 0 -129 18v99q57 -19 119 -19q139 0 139 75q0 81 -161 81h-49l62 169q-295 32 -473.5 221t-178.5 474z" />
<glyph unicode="&#xc8;" horiz-adv-x="1320" d="M223 0v1358h961v-108h-841v-497h736v-109h-736v-536h863v-108h-983zM513 1807h138l142 -334h-107z" />
<glyph unicode="&#xc9;" horiz-adv-x="1320" d="M223 0v1358h961v-108h-841v-497h736v-109h-736v-536h863v-108h-983zM678 1473l142 334h138l-173 -334h-107z" />
<glyph unicode="&#xca;" horiz-adv-x="1320" d="M223 0v1358h961v-108h-841v-497h736v-109h-736v-536h863v-108h-983zM432 1471l263 368h72l263 -368h-123l-174 256l-178 -256h-123z" />
<glyph unicode="&#xcb;" horiz-adv-x="1320" d="M223 0v1358h961v-108h-841v-497h736v-109h-736v-536h863v-108h-983zM468 1616q0 33 21 54t54 21t54.5 -21t21.5 -54t-21.5 -54t-54.5 -21t-54 21t-21 54zM818 1616q0 33 21 54t54 21t54.5 -21t21.5 -54t-21.5 -54t-54.5 -21t-54 21t-21 54z" />
<glyph unicode="&#xcc;" horiz-adv-x="566" d="M41 1807h138l142 -334h-107zM223 0v1358h120v-1358h-120z" />
<glyph unicode="&#xcd;" horiz-adv-x="566" d="M223 0v1358h120v-1358h-120zM236 1473l142 334h138l-173 -334h-107z" />
<glyph unicode="&#xce;" horiz-adv-x="566" d="M-10 1471l263 368h72l263 -368h-123l-174 256l-178 -256h-123zM223 0v1358h120v-1358h-120z" />
<glyph unicode="&#xcf;" horiz-adv-x="566" d="M33 1616q0 33 21 54t54 21t54.5 -21t21.5 -54t-21.5 -54t-54.5 -21t-54 21t-21 54zM223 0v1358h120v-1358h-120zM383 1616q0 33 21 54t54 21t54.5 -21t21.5 -54t-21.5 -54t-54.5 -21t-54 21t-21 54z" />
<glyph unicode="&#xd0;" horiz-adv-x="1577" d="M71 645v104h153v609h537q171 0 304 -50t218 -141t129 -214.5t44 -274.5q0 -323 -177.5 -500.5t-521.5 -177.5h-533v645h-153zM343 113h428q267 0 416 146t149 419q0 264 -150.5 415.5t-414.5 151.5h-428v-496h545v-104h-545v-532z" />
<glyph unicode="&#xd1;" horiz-adv-x="1683" d="M223 0v1358h136l980 -1190v1190h121v-1358h-135l-981 1193v-1193h-121zM526 1604q90 125 199 125q56 0 137 -40.5t121 -40.5q39 0 67 19.5t63 59.5l68 -56q-90 -125 -194 -125q-56 0 -139.5 40.5t-123.5 40.5q-39 0 -67 -19.5t-63 -59.5z" />
<glyph unicode="&#xd2;" horiz-adv-x="1661" d="M115 672q0 202 93 363.5t255.5 252t363.5 90.5q204 0 368.5 -90.5t257.5 -252t93 -363.5q0 -150 -54.5 -279.5t-150 -220t-228.5 -142t-286 -51.5q-201 0 -363.5 87.5t-255.5 246.5t-93 359zM235 672q0 -168 77 -301.5t212.5 -207.5t302.5 -74q259 0 429 164t170 419 q0 259 -170 427.5t-429 168.5q-125 0 -235 -45t-188.5 -123t-123.5 -189t-45 -239zM600 1807h138l142 -334h-107z" />
<glyph unicode="&#xd3;" horiz-adv-x="1661" d="M115 672q0 202 93 363.5t255.5 252t363.5 90.5q204 0 368.5 -90.5t257.5 -252t93 -363.5q0 -150 -54.5 -279.5t-150 -220t-228.5 -142t-286 -51.5q-201 0 -363.5 87.5t-255.5 246.5t-93 359zM235 672q0 -168 77 -301.5t212.5 -207.5t302.5 -74q259 0 429 164t170 419 q0 259 -170 427.5t-429 168.5q-125 0 -235 -45t-188.5 -123t-123.5 -189t-45 -239zM795 1473l142 334h138l-173 -334h-107z" />
<glyph unicode="&#xd4;" horiz-adv-x="1661" d="M115 672q0 202 93 363.5t255.5 252t363.5 90.5q204 0 368.5 -90.5t257.5 -252t93 -363.5q0 -150 -54.5 -279.5t-150 -220t-228.5 -142t-286 -51.5q-201 0 -363.5 87.5t-255.5 246.5t-93 359zM235 672q0 -168 77 -301.5t212.5 -207.5t302.5 -74q259 0 429 164t170 419 q0 259 -170 427.5t-429 168.5q-125 0 -235 -45t-188.5 -123t-123.5 -189t-45 -239zM537 1471l263 368h72l263 -368h-123l-174 256l-178 -256h-123z" />
<glyph unicode="&#xd5;" horiz-adv-x="1661" d="M115 672q0 202 93 363.5t255.5 252t363.5 90.5q204 0 368.5 -90.5t257.5 -252t93 -363.5q0 -150 -54.5 -279.5t-150 -220t-228.5 -142t-286 -51.5q-201 0 -363.5 87.5t-255.5 246.5t-93 359zM235 672q0 -168 77 -301.5t212.5 -207.5t302.5 -74q259 0 429 164t170 419 q0 259 -170 427.5t-429 168.5q-125 0 -235 -45t-188.5 -123t-123.5 -189t-45 -239zM510 1604q90 125 199 125q56 0 137 -40.5t121 -40.5q39 0 67 19.5t63 59.5l68 -56q-90 -125 -194 -125q-56 0 -139.5 40.5t-123.5 40.5q-39 0 -67 -19.5t-63 -59.5z" />
<glyph unicode="&#xd6;" horiz-adv-x="1661" d="M115 672q0 202 93 363.5t255.5 252t363.5 90.5q204 0 368.5 -90.5t257.5 -252t93 -363.5q0 -150 -54.5 -279.5t-150 -220t-228.5 -142t-286 -51.5q-201 0 -363.5 87.5t-255.5 246.5t-93 359zM235 672q0 -168 77 -301.5t212.5 -207.5t302.5 -74q259 0 429 164t170 419 q0 259 -170 427.5t-429 168.5q-125 0 -235 -45t-188.5 -123t-123.5 -189t-45 -239zM585 1616q0 33 21 54t54 21t54.5 -21t21.5 -54t-21.5 -54t-54.5 -21t-54 21t-21 54zM935 1616q0 33 21 54t54 21t54.5 -21t21.5 -54t-21.5 -54t-54.5 -21t-54 21t-21 54z" />
<glyph unicode="&#xd7;" horiz-adv-x="1228" d="M125 255l407 407l-407 407l82 82l407 -407l407 407l82 -82l-407 -407l407 -407l-82 -82l-407 407l-407 -407z" />
<glyph unicode="&#xd8;" horiz-adv-x="1662" d="M116 672q0 202 93 363.5t255.5 252t363.5 90.5t367 -91l115 165l88 -68l-110 -158q122 -96 190.5 -239.5t68.5 -314.5q0 -150 -54.5 -279.5t-150 -220t-228.5 -142t-286 -51.5q-194 0 -352 82l-117 -167l-85 69l109 156q-126 94 -196.5 237t-70.5 316zM236 672 q0 -143 56 -261t157 -197l681 980q-137 74 -302 74q-254 0 -423 -169t-169 -427zM541 155q132 -66 287 -66q259 0 429 164t170 419q0 141 -54 259.5t-151 199.5z" />
<glyph unicode="&#xd9;" horiz-adv-x="1590" d="M207 495v863h120v-863q0 -182 125.5 -292.5t341.5 -110.5q214 0 341.5 112t127.5 291v863h120v-863q0 -230 -160 -372.5t-429 -142.5q-272 0 -429.5 140.5t-157.5 374.5zM579 1807h138l142 -334h-107z" />
<glyph unicode="&#xda;" horiz-adv-x="1590" d="M207 495v863h120v-863q0 -182 125.5 -292.5t341.5 -110.5q214 0 341.5 112t127.5 291v863h120v-863q0 -230 -160 -372.5t-429 -142.5q-272 0 -429.5 140.5t-157.5 374.5zM724 1473l142 334h138l-173 -334h-107z" />
<glyph unicode="&#xdb;" horiz-adv-x="1590" d="M207 495v863h120v-863q0 -182 125.5 -292.5t341.5 -110.5q214 0 341.5 112t127.5 291v863h120v-863q0 -230 -160 -372.5t-429 -142.5q-272 0 -429.5 140.5t-157.5 374.5zM498 1471l263 368h72l263 -368h-123l-174 256l-178 -256h-123z" />
<glyph unicode="&#xdc;" horiz-adv-x="1590" d="M207 495v863h120v-863q0 -182 125.5 -292.5t341.5 -110.5q214 0 341.5 112t127.5 291v863h120v-863q0 -230 -160 -372.5t-429 -142.5q-272 0 -429.5 140.5t-157.5 374.5zM544 1616q0 33 21 54t54 21t54.5 -21t21.5 -54t-21.5 -54t-54.5 -21t-54 21t-21 54zM894 1616 q0 33 21 54t54 21t54.5 -21t21.5 -54t-21.5 -54t-54.5 -21t-54 21t-21 54z" />
<glyph unicode="&#xdd;" horiz-adv-x="1226" d="M19 1358h142l452 -694l452 694h142l-534 -818v-540h-120v539zM567 1473l142 334h138l-173 -334h-107z" />
<glyph unicode="&#xde;" horiz-adv-x="1357" d="M223 0v1358h121v-217h430q74 0 142.5 -17t129.5 -54t106 -90t71.5 -130t26.5 -169q0 -138 -65 -242.5t-172 -158t-239 -53.5h-430v-227h-121zM344 337h406q177 0 279 91.5t102 250.5q0 172 -99.5 261t-281.5 89h-406v-692z" />
<glyph unicode="&#xdf;" horiz-adv-x="1295" d="M186 0v938q0 109 25.5 196.5t79 154.5t142 103t207.5 36q208 0 325 -97.5t117 -269.5q0 -108 -66.5 -198.5t-175.5 -119.5q167 -23 260 -125t93 -257q-1 -173 -124.5 -277t-335.5 -104q-54 0 -110.5 9t-86.5 18l-29 9l14 115q95 -42 207 -42q92 0 167 28.5t123.5 92.5 t48.5 154q0 137 -91.5 213t-252.5 76h-87v119q70 0 145 40t126.5 108t51.5 139q0 120 -87 190t-245 70q-67 0 -123 -21.5t-101.5 -66t-71 -121.5t-25.5 -179v-931h-120z" />
<glyph unicode="&#xe0;" horiz-adv-x="1091" d="M106 256q0 138 113.5 216.5t301.5 78.5q146 0 279 -42v85q0 129 -80.5 200.5t-233.5 71.5q-74 0 -159.5 -20.5t-145.5 -52.5l-13 110q67 34 156.5 55.5t167.5 21.5q206 0 316.5 -102t110.5 -284v-594h-119v172q-57 -90 -155.5 -141t-210.5 -51q-148 0 -238 74t-90 202z M226 263q0 -85 58 -134.5t154 -49.5q134 0 237 80.5t125 191.5v66q-144 40 -284 40q-132 0 -211 -50.5t-79 -143.5zM289 1449h138l142 -334h-107z" />
<glyph unicode="&#xe1;" horiz-adv-x="1091" d="M106 256q0 138 113.5 216.5t301.5 78.5q146 0 279 -42v85q0 129 -80.5 200.5t-233.5 71.5q-74 0 -159.5 -20.5t-145.5 -52.5l-13 110q67 34 156.5 55.5t167.5 21.5q206 0 316.5 -102t110.5 -284v-594h-119v172q-57 -90 -155.5 -141t-210.5 -51q-148 0 -238 74t-90 202z M226 263q0 -85 58 -134.5t154 -49.5q134 0 237 80.5t125 191.5v66q-144 40 -284 40q-132 0 -211 -50.5t-79 -143.5zM464 1115l142 334h138l-173 -334h-107z" />
<glyph unicode="&#xe2;" horiz-adv-x="1091" d="M106 256q0 138 113.5 216.5t301.5 78.5q146 0 279 -42v85q0 129 -80.5 200.5t-233.5 71.5q-74 0 -159.5 -20.5t-145.5 -52.5l-13 110q67 34 156.5 55.5t167.5 21.5q206 0 316.5 -102t110.5 -284v-594h-119v172q-57 -90 -155.5 -141t-210.5 -51q-148 0 -238 74t-90 202z M218 1086l263 368h72l263 -368h-123l-174 256l-178 -256h-123zM226 263q0 -85 58 -134.5t154 -49.5q134 0 237 80.5t125 191.5v66q-144 40 -284 40q-132 0 -211 -50.5t-79 -143.5z" />
<glyph unicode="&#xe3;" horiz-adv-x="1091" d="M106 256q0 138 113.5 216.5t301.5 78.5q146 0 279 -42v85q0 129 -80.5 200.5t-233.5 71.5q-74 0 -159.5 -20.5t-145.5 -52.5l-13 110q67 34 156.5 55.5t167.5 21.5q206 0 316.5 -102t110.5 -284v-594h-119v172q-57 -90 -155.5 -141t-210.5 -51q-148 0 -238 74t-90 202z M190 1248q90 125 199 125q56 0 137 -40.5t121 -40.5q39 0 67 19.5t63 59.5l68 -56q-90 -125 -194 -125q-56 0 -139.5 40.5t-123.5 40.5q-39 0 -67 -19.5t-63 -59.5zM226 263q0 -85 58 -134.5t154 -49.5q134 0 237 80.5t125 191.5v66q-144 40 -284 40q-132 0 -211 -50.5 t-79 -143.5z" />
<glyph unicode="&#xe4;" horiz-adv-x="1091" d="M106 256q0 138 113.5 216.5t301.5 78.5q146 0 279 -42v85q0 129 -80.5 200.5t-233.5 71.5q-74 0 -159.5 -20.5t-145.5 -52.5l-13 110q67 34 156.5 55.5t167.5 21.5q206 0 316.5 -102t110.5 -284v-594h-119v172q-57 -90 -155.5 -141t-210.5 -51q-148 0 -238 74t-90 202z M226 263q0 -85 58 -134.5t154 -49.5q134 0 237 80.5t125 191.5v66q-144 40 -284 40q-132 0 -211 -50.5t-79 -143.5zM254 1281q0 33 21 54t54 21t54.5 -21t21.5 -54t-21.5 -54t-54.5 -21t-54 21t-21 54zM604 1281q0 33 21 54t54 21t54.5 -21t21.5 -54t-21.5 -54t-54.5 -21 t-54 21t-21 54z" />
<glyph unicode="&#xe5;" horiz-adv-x="1091" d="M106 256q0 138 113.5 216.5t301.5 78.5q146 0 279 -42v85q0 129 -80.5 200.5t-233.5 71.5q-74 0 -159.5 -20.5t-145.5 -52.5l-13 110q67 34 156.5 55.5t167.5 21.5q206 0 316.5 -102t110.5 -284v-594h-119v172q-57 -90 -155.5 -141t-210.5 -51q-148 0 -238 74t-90 202z M226 263q0 -85 58 -134.5t154 -49.5q134 0 237 80.5t125 191.5v66q-144 40 -284 40q-132 0 -211 -50.5t-79 -143.5zM289 1293q0 88 63 148t155 60t155 -60t63 -148q0 -87 -63 -146.5t-155 -59.5t-155 59.5t-63 146.5zM388 1293q0 -51 33 -85t86 -34t86 34t33 85 q0 52 -33 86.5t-86 34.5t-86 -34.5t-33 -86.5z" />
<glyph unicode="&#xe6;" horiz-adv-x="1807" d="M106 256q0 138 118 216.5t312 78.5q147 0 294 -35v78q0 129 -84 200.5t-245 71.5q-77 0 -166.5 -20.5t-153.5 -52.5l-13 110q70 34 164 55.5t175 21.5q147 0 249 -51t151 -145q61 92 157 143.5t213 51.5q149 0 253.5 -76.5t145.5 -197t20 -259.5h-744q9 -109 65 -191 t134.5 -121.5t164.5 -39.5q88 0 157.5 17t147.5 71l26 -107q-141 -95 -317 -95q-153 0 -270.5 67.5t-178.5 187.5q-49 -117 -169.5 -186t-262.5 -69q-155 0 -249 74t-94 202zM226 263q0 -85 62 -134.5t165 -49.5q139 0 246 81t131 192v73q-145 32 -299 32q-139 0 -222 -50.5 t-83 -143.5zM955 548h629q-6 141 -87 231t-216 90t-225.5 -91t-100.5 -230z" />
<glyph unicode="&#xe7;" horiz-adv-x="1033" d="M104 481q0 222 149 360.5t387 138.5q91 0 168 -19.5t120 -43.5l-13 -110q-111 59 -275 59q-184 0 -297.5 -106t-113.5 -279q0 -172 115 -279.5t299 -107.5q77 0 156 18t129 46l22 -111q-59 -30 -144 -48.5t-163 -18.5q-2 0 -7.5 0.5t-7.5 0.5l-28 -83q91 -7 146.5 -50 t55.5 -112q0 -81 -64 -127t-177 -46q-75 0 -129 18v99q57 -19 119 -19q139 0 139 75q0 81 -161 81h-49l62 170q-199 29 -318.5 162.5t-119.5 331.5z" />
<glyph unicode="&#xe8;" horiz-adv-x="1169" d="M104 480q0 216 139 358t355 142q163 0 277.5 -78.5t159.5 -201.5t22 -264h-824q14 -157 134 -249.5t270 -92.5q99 0 178 17t167 71l26 -107q-158 -95 -357 -95q-243 0 -395 139t-152 361zM236 538h709q-7 145 -98.5 236.5t-244.5 91.5q-152 0 -253.5 -92t-112.5 -236z M377 1449h138l142 -334h-107z" />
<glyph unicode="&#xe9;" horiz-adv-x="1169" d="M104 480q0 216 139 358t355 142q163 0 277.5 -78.5t159.5 -201.5t22 -264h-824q14 -157 134 -249.5t270 -92.5q99 0 178 17t167 71l26 -107q-158 -95 -357 -95q-243 0 -395 139t-152 361zM236 538h709q-7 145 -98.5 236.5t-244.5 91.5q-152 0 -253.5 -92t-112.5 -236z M542 1115l142 334h138l-173 -334h-107z" />
<glyph unicode="&#xea;" horiz-adv-x="1169" d="M104 480q0 216 139 358t355 142q163 0 277.5 -78.5t159.5 -201.5t22 -264h-824q14 -157 134 -249.5t270 -92.5q99 0 178 17t167 71l26 -107q-158 -95 -357 -95q-243 0 -395 139t-152 361zM236 538h709q-7 145 -98.5 236.5t-244.5 91.5q-152 0 -253.5 -92t-112.5 -236z M296 1086l263 368h72l263 -368h-123l-174 256l-178 -256h-123z" />
<glyph unicode="&#xeb;" horiz-adv-x="1169" d="M104 480q0 216 139 358t355 142q163 0 277.5 -78.5t159.5 -201.5t22 -264h-824q14 -157 134 -249.5t270 -92.5q99 0 178 17t167 71l26 -107q-158 -95 -357 -95q-243 0 -395 139t-152 361zM236 538h709q-7 145 -98.5 236.5t-244.5 91.5q-152 0 -253.5 -92t-112.5 -236z M354 1280q0 33 21 54t54 21t54.5 -21t21.5 -54t-21.5 -54t-54.5 -21t-54 21t-21 54zM704 1280q0 33 21 54t54 21t54.5 -21t21.5 -54t-21.5 -54t-54.5 -21t-54 21t-21 54z" />
<glyph unicode="&#xec;" horiz-adv-x="492" d="M13 1449h138l142 -334h-107zM186 0v960h120v-960h-120z" />
<glyph unicode="&#xed;" horiz-adv-x="492" d="M186 0v960h120v-960h-120zM192 1115l142 334h138l-173 -334h-107z" />
<glyph unicode="&#xee;" horiz-adv-x="492" d="M-54 1088l263 368h72l263 -368h-123l-174 256l-178 -256h-123zM186 0v960h120v-960h-120z" />
<glyph unicode="&#xef;" horiz-adv-x="492" d="M-4 1282q0 33 21 54t54 21t54.5 -21t21.5 -54t-21.5 -54t-54.5 -21t-54 21t-21 54zM186 0v960h120v-960h-120zM346 1282q0 33 21 54t54 21t54.5 -21t21.5 -54t-21.5 -54t-54.5 -21t-54 21t-21 54z" />
<glyph unicode="&#xf0;" horiz-adv-x="1188" d="M107 449q0 203 128.5 330t334.5 127q126 0 217.5 -50.5t143.5 -128.5q-27 137 -96.5 265t-184.5 226l-262 -195l-62 87l235 174q-93 62 -213 102l59 94q134 -48 247 -127l197 146l58 -88l-169 -126q155 -136 239.5 -328.5t84.5 -420.5q0 -260 -133 -408t-345 -148 q-213 0 -346 130t-133 339zM227 449q0 -160 97.5 -259.5t254.5 -99.5t254.5 99.5t97.5 259.5q0 155 -97.5 251t-254.5 96t-254.5 -96t-97.5 -251z" />
<glyph unicode="&#xf1;" horiz-adv-x="1233" d="M186 0v960h120v-167q55 93 148 140t200 47q186 0 296.5 -102t110.5 -292v-586h-118v550q0 159 -78.5 238.5t-229.5 79.5q-139 0 -234 -91.5t-95 -232.5v-544h-120zM311 1249q90 125 199 125q56 0 137 -40.5t121 -40.5q39 0 67 19.5t63 59.5l68 -56q-90 -125 -194 -125 q-56 0 -139.5 40.5t-123.5 40.5q-39 0 -67 -19.5t-63 -59.5z" />
<glyph unicode="&#xf2;" horiz-adv-x="1224" d="M102 480q0 212 146 356t364 144t364 -144t146 -356t-146 -356t-364 -144t-364 144t-146 356zM222 480q0 -165 111.5 -277.5t278.5 -112.5t278.5 112.5t111.5 277.5t-111.5 277.5t-278.5 112.5t-278.5 -112.5t-111.5 -277.5zM387 1449h138l142 -334h-107z" />
<glyph unicode="&#xf3;" horiz-adv-x="1224" d="M102 480q0 212 146 356t364 144t364 -144t146 -356t-146 -356t-364 -144t-364 144t-146 356zM222 480q0 -165 111.5 -277.5t278.5 -112.5t278.5 112.5t111.5 277.5t-111.5 277.5t-278.5 112.5t-278.5 -112.5t-111.5 -277.5zM572 1115l142 334h138l-173 -334h-107z" />
<glyph unicode="&#xf4;" horiz-adv-x="1224" d="M102 480q0 212 146 356t364 144t364 -144t146 -356t-146 -356t-364 -144t-364 144t-146 356zM222 480q0 -165 111.5 -277.5t278.5 -112.5t278.5 112.5t111.5 277.5t-111.5 277.5t-278.5 112.5t-278.5 -112.5t-111.5 -277.5zM311 1086l263 368h72l263 -368h-123l-174 256 l-178 -256h-123z" />
<glyph unicode="&#xf5;" horiz-adv-x="1224" d="M102 480q0 212 146 356t364 144t364 -144t146 -356t-146 -356t-364 -144t-364 144t-146 356zM222 480q0 -165 111.5 -277.5t278.5 -112.5t278.5 112.5t111.5 277.5t-111.5 277.5t-278.5 112.5t-278.5 -112.5t-111.5 -277.5zM285 1248q90 125 199 125q56 0 137 -40.5 t121 -40.5q39 0 67 19.5t63 59.5l68 -56q-90 -125 -194 -125q-56 0 -139.5 40.5t-123.5 40.5q-39 0 -67 -19.5t-63 -59.5z" />
<glyph unicode="&#xf6;" horiz-adv-x="1224" d="M102 480q0 212 146 356t364 144t364 -144t146 -356t-146 -356t-364 -144t-364 144t-146 356zM222 480q0 -165 111.5 -277.5t278.5 -112.5t278.5 112.5t111.5 277.5t-111.5 277.5t-278.5 112.5t-278.5 -112.5t-111.5 -277.5zM362 1281q0 33 21 54t54 21t54.5 -21t21.5 -54 t-21.5 -54t-54.5 -21t-54 21t-21 54zM712 1281q0 33 21 54t54 21t54.5 -21t21.5 -54t-21.5 -54t-54.5 -21t-54 21t-21 54z" />
<glyph unicode="&#xf7;" horiz-adv-x="1224" d="M124 620v119h976v-119h-976zM540 293q0 33 21 54t54 21t54.5 -21t21.5 -54t-21.5 -54t-54.5 -21t-54 21t-21 54zM540 1067q0 33 21 54t54 21t54.5 -21t21.5 -54t-21.5 -54t-54.5 -21t-54 21t-21 54z" />
<glyph unicode="&#xf8;" horiz-adv-x="1137" d="M59 480q0 212 146 356t364 144q155 0 281 -79l145 180l79 -64l-145 -178q71 -68 110.5 -161t39.5 -198q0 -212 -146 -356t-364 -144q-153 0 -276 75l-139 -171l-76 60l137 170q-74 69 -115 163.5t-41 202.5zM179 480q0 -163 109 -275l490 607q-92 58 -209 58 q-167 0 -278.5 -112.5t-111.5 -277.5zM365 144q94 -54 204 -54q167 0 278.5 112.5t111.5 277.5q0 157 -103 268z" />
<glyph unicode="&#xf9;" horiz-adv-x="1222" d="M171 374v586h118v-550q0 -318 303 -318q137 0 230.5 91.5t93.5 232.5v544h120v-960h-120v167q-54 -93 -145.5 -140t-197.5 -47q-184 0 -293 102t-109 292zM366 1449h138l142 -334h-107z" />
<glyph unicode="&#xfa;" horiz-adv-x="1222" d="M171 374v586h118v-550q0 -318 303 -318q137 0 230.5 91.5t93.5 232.5v544h120v-960h-120v167q-54 -93 -145.5 -140t-197.5 -47q-184 0 -293 102t-109 292zM531 1115l142 334h138l-173 -334h-107z" />
<glyph unicode="&#xfb;" horiz-adv-x="1222" d="M171 374v586h118v-550q0 -318 303 -318q137 0 230.5 91.5t93.5 232.5v544h120v-960h-120v167q-54 -93 -145.5 -140t-197.5 -47q-184 0 -293 102t-109 292zM305 1086l263 368h72l263 -368h-123l-174 256l-178 -256h-123z" />
<glyph unicode="&#xfc;" horiz-adv-x="1222" d="M171 374v586h118v-550q0 -318 303 -318q137 0 230.5 91.5t93.5 232.5v544h120v-960h-120v167q-54 -93 -145.5 -140t-197.5 -47q-184 0 -293 102t-109 292zM351 1280q0 33 21 54t54 21t54.5 -21t21.5 -54t-21.5 -54t-54.5 -21t-54 21t-21 54zM701 1280q0 33 21 54t54 21 t54.5 -21t21.5 -54t-21.5 -54t-54.5 -21t-54 21t-21 54z" />
<glyph unicode="&#xfd;" horiz-adv-x="1025" d="M35 960h128l355 -852l345 852h132l-446 -1082q-66 -155 -145.5 -226.5t-192.5 -71.5q-111 0 -169 32l16 105q64 -27 144 -27q135 0 236 236l13 34zM453 1115l142 334h138l-173 -334h-107z" />
<glyph unicode="&#xfe;" horiz-adv-x="1295" d="M186 -400v1808h120v-630q57 90 162 146t236 56q207 0 346.5 -144t139.5 -355q0 -212 -139.5 -356.5t-346.5 -144.5q-131 0 -236 57t-162 148v-585h-120zM300 481q0 -166 113.5 -278.5t282.5 -112.5q161 0 268.5 112.5t107.5 278.5q0 165 -107.5 277t-268.5 112 q-169 0 -282.5 -112t-113.5 -277z" />
<glyph unicode="&#xff;" horiz-adv-x="1025" d="M35 960h128l355 -852l345 852h132l-446 -1082q-66 -155 -145.5 -226.5t-192.5 -71.5q-111 0 -169 32l16 105q64 -27 144 -27q135 0 236 236l13 34zM263 1281q0 33 21 54t54 21t54.5 -21t21.5 -54t-21.5 -54t-54.5 -21t-54 21t-21 54zM613 1281q0 33 21 54t54 21t54.5 -21 t21.5 -54t-21.5 -54t-54.5 -21t-54 21t-21 54z" />
<glyph unicode="&#x152;" horiz-adv-x="2416" d="M116 672q0 204 80 364t231.5 251t350.5 91q177 0 315 -69t226 -195v244h961v-108h-841v-497h736v-109h-736v-536h863v-108h-983v235q-88 -122 -226.5 -189t-314.5 -67q-301 0 -481.5 192.5t-180.5 500.5zM236 672q0 -260 146 -421.5t396 -161.5q254 0 401.5 161 t147.5 422q0 173 -64.5 307.5t-190 211.5t-294.5 77q-249 0 -395.5 -166t-146.5 -430z" />
<glyph unicode="&#x153;" horiz-adv-x="1983" d="M104 480q0 215 133.5 357.5t353.5 142.5q142 0 253 -66.5t172 -180.5q56 115 163.5 180.5t253.5 65.5q81 0 150.5 -21t120 -58t89.5 -88t58 -111.5t26 -127.5t-6 -137h-787q13 -157 128 -249.5t258 -92.5q95 0 170.5 17t159.5 71l24 -107q-151 -95 -341 -95 q-158 0 -278.5 66.5t-184.5 184.5q-59 -117 -170 -184t-259 -67q-220 0 -353.5 142.5t-133.5 357.5zM218 480q0 -169 101 -279.5t272 -110.5t271.5 110.5t100.5 279.5t-100.5 279.5t-271.5 110.5t-272 -110.5t-101 -279.5zM1087 538h677q-7 148 -91.5 239.5t-235.5 91.5 t-245.5 -92.5t-104.5 -238.5z" />
<glyph unicode="&#x178;" horiz-adv-x="1226" d="M19 1358h142l452 -694l452 694h142l-534 -818v-540h-120v539zM364 1616q0 33 21 54t54 21t54.5 -21t21.5 -54t-21.5 -54t-54.5 -21t-54 21t-21 54zM714 1616q0 33 21 54t54 21t54.5 -21t21.5 -54t-21.5 -54t-54.5 -21t-54 21t-21 54z" />
<glyph unicode="&#x2c6;" horiz-adv-x="978" d="M190 1471l263 368h72l263 -368h-123l-174 256l-178 -256h-123z" />
<glyph unicode="&#x2dc;" horiz-adv-x="1035" d="M190 1604q90 125 199 125q56 0 137 -40.5t121 -40.5q39 0 67 19.5t63 59.5l68 -56q-90 -125 -194 -125q-56 0 -139.5 40.5t-123.5 40.5q-39 0 -67 -19.5t-63 -59.5z" />
<glyph unicode="&#x2000;" horiz-adv-x="950" />
<glyph unicode="&#x2001;" horiz-adv-x="1901" />
<glyph unicode="&#x2002;" horiz-adv-x="950" />
<glyph unicode="&#x2003;" horiz-adv-x="1901" />
<glyph unicode="&#x2004;" horiz-adv-x="633" />
<glyph unicode="&#x2005;" horiz-adv-x="475" />
<glyph unicode="&#x2006;" horiz-adv-x="316" />
<glyph unicode="&#x2007;" horiz-adv-x="316" />
<glyph unicode="&#x2008;" horiz-adv-x="237" />
<glyph unicode="&#x2009;" horiz-adv-x="380" />
<glyph unicode="&#x200a;" horiz-adv-x="105" />
<glyph unicode="&#x2010;" horiz-adv-x="980" d="M162 518v119h656v-119h-656z" />
<glyph unicode="&#x2011;" horiz-adv-x="980" d="M162 518v119h656v-119h-656z" />
<glyph unicode="&#x2012;" horiz-adv-x="980" d="M162 518v119h656v-119h-656z" />
<glyph unicode="&#x2013;" horiz-adv-x="1310" d="M162 518v119h986v-119h-986z" />
<glyph unicode="&#x2014;" horiz-adv-x="2352" d="M162 518v119h2028v-119h-2028z" />
<glyph unicode="&#x2018;" horiz-adv-x="410" d="M102 994l125 434h105l-105 -434h-125z" />
<glyph unicode="&#x2019;" horiz-adv-x="400" d="M113 994l105 434h125l-125 -434h-105z" />
<glyph unicode="&#x201a;" horiz-adv-x="396" d="M25 -255l106 434h125l-125 -434h-106z" />
<glyph unicode="&#x201c;" horiz-adv-x="640" d="M102 994l125 434h105l-105 -434h-125zM332 994l125 434h105l-105 -434h-125z" />
<glyph unicode="&#x201d;" horiz-adv-x="630" d="M113 994l105 434h125l-125 -434h-105zM343 994l105 434h125l-125 -434h-105z" />
<glyph unicode="&#x201e;" horiz-adv-x="633" d="M26 -255l105 434h125l-125 -434h-105zM256 -255l105 434h125l-125 -434h-105z" />
<glyph unicode="&#x2022;" horiz-adv-x="697" d="M195 673q0 67 43 110.5t109 43.5q68 0 111.5 -43.5t43.5 -110.5q0 -66 -44 -109t-111 -43q-66 0 -109 43t-43 109z" />
<glyph unicode="&#x2026;" horiz-adv-x="1246" d="M129 68q0 33 21 54t54 21t54.5 -21t21.5 -54t-21.5 -54t-54.5 -21t-54 21t-21 54zM548 68q0 33 21 54t54 21t54.5 -21t21.5 -54t-21.5 -54t-54.5 -21t-54 21t-21 54zM967 68q0 33 21 54t54 21t54.5 -21t21.5 -54t-21.5 -54t-54.5 -21t-54 21t-21 54z" />
<glyph unicode="&#x202f;" horiz-adv-x="380" />
<glyph unicode="&#x2039;" horiz-adv-x="605" d="M96 480l272 395h130l-264 -395l264 -394h-130z" />
<glyph unicode="&#x203a;" horiz-adv-x="605" d="M107 86l264 394l-264 395h130l272 -395l-272 -394h-130z" />
<glyph unicode="&#x205f;" horiz-adv-x="475" />
<glyph unicode="&#x20ac;" horiz-adv-x="1443" d="M81 492l12 88h163q-6 50 -6 102q0 20 2 60h-170l12 85h167q22 132 84 237.5t151.5 173t200.5 103t235 35.5q216 0 372 -81l-12 -114q-157 80 -362 80t-354.5 -115t-190.5 -319h575l-12 -85h-575q-2 -40 -2 -60q0 -46 7 -102h550l-12 -88h-519q55 -186 206.5 -291 t344.5 -105q67 0 129.5 9t103 22t71.5 26.5t45 22.5l14 9l22 -117q-6 -4 -17.5 -9.5t-50 -20.5t-80.5 -26.5t-106 -21t-130 -9.5q-254 0 -438.5 136t-239.5 375h-190z" />
<glyph unicode="&#x2122;" horiz-adv-x="1566" d="M86 1313v95h502v-95h-198v-511h-105v511h-199zM700 802v606h90l250 -256l248 256h91v-606h-102v454l-232 -239h-8l-235 239v-454h-102z" />
<glyph unicode="&#x25fc;" horiz-adv-x="960" d="M0 0v960h960v-960h-960z" />
</font>
</defs>
</svg>
