<?xml version="1.0" standalone="no"?>
<!DOCTYPE svg PUBLIC "-//W3C//DTD SVG 1.1//EN" "http://www.w3.org/Graphics/SVG/1.1/DTD/svg11.dtd" >
<svg xmlns="http://www.w3.org/2000/svg">
<metadata>Generated by IcoMoon</metadata>
<defs>
<font id="icomoon" horiz-adv-x="1024">
<font-face units-per-em="1024" ascent="960" descent="-64" />
<missing-glyph horiz-adv-x="1024" />
<glyph unicode="&#x20;" horiz-adv-x="512" d="" />
<glyph unicode="&#xe900;" glyph-name="approved" horiz-adv-x="709" d="M354.325 277.357c-1.782-0.033-3.883-0.051-5.989-0.051-189.934 0-344.371 151.983-348.33 340.968l-0.006 0.369c3.926 189.386 158.379 341.408 348.338 341.408 2.105 0 4.206-0.019 6.303-0.056l-0.315 0.004c1.781 0.033 3.882 0.051 5.988 0.051 189.959 0 344.412-152.023 348.332-341.042l0.006-0.366c-0.166-94.91-39.974-180.489-103.746-241.090l-0.143-0.134c-64.466-61.928-152.19-100.065-248.822-100.065-0.568 0-1.136 0.001-1.703 0.004h0.088zM354.325 884.139c-1.387 0.026-3.022 0.040-4.661 0.040-147.746 0-267.875-118.237-270.928-265.251l-0.005-0.285c3.077-147.283 123.199-265.501 270.932-265.501 1.639 0 3.275 0.015 4.907 0.044l-0.245-0.003c1.387-0.026 3.022-0.040 4.661-0.040 147.746 0 267.875 118.237 270.928 265.251l0.005 0.285c-0.071 73.88-31.039 140.514-80.676 187.688l-0.111 0.104c-50.116 48.073-118.277 77.672-193.35 77.672-0.512 0-1.025-0.001-1.536-0.004h0.079zM511.787 391.131v-338.274l-132.872 102.4c-6.744 5.194-15.31 8.324-24.608 8.324s-17.864-3.13-24.703-8.395l0.095 0.070-132.872-102.4v338.274h-78.731v-417.183c0.022-9.052 3.286-17.337 8.692-23.761l-0.046 0.056c7.456-8.738 18.477-14.242 30.785-14.242 9.282 0 17.833 3.131 24.655 8.394l-0.094-0.070 172.238 132.73 172.238-132.73c6.711-5.173 15.238-8.291 24.493-8.291 0.034 0 0.068 0 0.103 0h-0.005c0.213-0.004 0.464-0.007 0.716-0.007 21.090 0 38.236 16.889 38.649 37.881l0.001 0.039v417.183zM354.325 429.185c-0.993-0.018-2.164-0.029-3.337-0.029-105.494 0-191.278 84.392-193.523 189.348l-0.004 0.209c2.209 105.196 88.008 189.628 193.528 189.628 1.173 0 2.343-0.010 3.511-0.031l-0.176 0.002c0.992 0.018 2.163 0.029 3.335 0.029 105.519 0 191.319-84.432 193.524-189.422l0.003-0.206c-2.427-105.2-88.282-189.552-193.838-189.552-1.064 0-2.125 0.009-3.185 0.026l0.16-0.002zM354.325 732.594c-0.608 0.011-1.325 0.018-2.044 0.018-63.299 0-114.767-50.651-116.086-113.633l-0.002-0.123c1.224-63.202 52.747-113.968 116.127-113.968 0.705 0 1.408 0.006 2.11 0.019l-0.105-0.001c0.587-0.011 1.279-0.017 1.972-0.017 63.33 0 114.822 50.686 116.123 113.705l0.002 0.121c-1.322 63.105-52.79 113.756-116.088 113.756-0.706 0-1.411-0.006-2.114-0.019l0.106 0.001z" />
<glyph unicode="&#xe901;" glyph-name="arrow" horiz-adv-x="854" d="M456.672-44.314c-0.077-0.001-0.169-0.001-0.261-0.001-21.588 0-39.099 17.451-39.197 39.016v926.275c0.098 21.574 17.61 39.025 39.197 39.025 0.092 0 0.183 0 0.275-0.001h-0.014c0.052 0 0.113 0 0.174 0 21.588 0 39.099-17.451 39.197-39.015v-926.275c-0.098-21.574-17.61-39.025-39.197-39.025-0.061 0-0.122 0-0.183 0h0.009zM456.585-64c-0.127-0.001-0.277-0.002-0.427-0.002-9.78 0-18.733 3.543-25.645 9.415l0.057-0.047-416.78 352.867c-8.447 7.157-13.773 17.773-13.773 29.632 0 9.714 3.573 18.594 9.477 25.396l-0.041-0.048c7.322 8.402 18.041 13.682 29.994 13.682 9.778 0 18.732-3.534 25.652-9.394l-0.058 0.048 389.55-329.539 332.575 327.545c7.167 7.066 17.014 11.43 27.881 11.43s20.714-4.364 27.885-11.435l-0.005 0.004c7.115-7.031 11.522-16.79 11.522-27.577s-4.407-20.546-11.518-27.574l-0.004-0.004-358.504-353.041c-7.133-7.024-16.929-11.361-27.739-11.361-0.035 0-0.069 0-0.104 0h0.005z" />
<glyph unicode="&#xe902;" glyph-name="arrow-bottom-black" horiz-adv-x="1948" d="M1786.228 960h-1623.707c-0.125 0-0.273 0.001-0.421 0.001-89.592 0-162.221-72.629-162.221-162.221 0-31.894 9.204-61.639 25.102-86.722l-0.393 0.663 812.004-699.259c29.227-46.005 79.917-76.090 137.633-76.090s108.406 30.086 137.241 75.431l0.392 0.66 812.004 699.259c15.504 24.42 24.709 54.164 24.709 86.058 0 89.592-72.629 162.221-162.221 162.221-0.042 0-0.085 0-0.127 0h0.007z" />
<glyph unicode="&#xe903;" glyph-name="arrow-bottom-white" horiz-adv-x="1948" d="M1786.228 960h-1623.707c-0.125 0-0.273 0.001-0.421 0.001-89.592 0-162.221-72.629-162.221-162.221 0-31.894 9.204-61.639 25.102-86.722l-0.393 0.663 812.004-699.259c29.227-46.005 79.917-76.090 137.633-76.090s108.406 30.086 137.241 75.431l0.392 0.66 812.004 699.259c15.504 24.42 24.709 54.164 24.709 86.058 0 89.592-72.629 162.221-162.221 162.221-0.042 0-0.085 0-0.127 0h0.007z" />
<glyph unicode="&#xe904;" glyph-name="button-edit" horiz-adv-x="1029" d="M949.926 317.347c-14.149 0-25.618-11.47-25.618-25.618v0-227.783c-0.028-42.462-34.442-76.876-76.901-76.904h-719.267c-42.441 0.056-76.827 34.459-76.855 76.901v668.177c0.056 42.45 34.453 76.848 76.898 76.904h227.544c14.162 0 25.643 11.481 25.643 25.643s-11.481 25.643-25.643 25.643v0h-227.588c-70.754-0.083-128.085-57.432-128.14-128.184v-668.179c0.083-70.736 57.404-128.057 128.132-128.14h719.224c70.758 0.056 128.106 57.387 128.189 128.132v227.791c0 14.149-11.47 25.618-25.618 25.618v0zM965.395 926.233c-20.875 20.872-49.712 33.782-81.564 33.782s-60.689-12.91-81.564-33.782l-457.274-457.274c-3.046-3.039-5.33-6.839-6.543-11.091l-0.044-0.181-60.118-217.097c-0.598-2.064-0.943-4.434-0.943-6.885 0-14.149 11.47-25.618 25.618-25.618 2.437 0 4.794 0.34 7.028 0.976l-0.181-0.044 217.097 60.166c4.433 1.258 8.233 3.542 11.272 6.587v0l457.274 457.323c20.849 20.885 33.742 49.719 33.742 81.564s-12.893 60.678-33.743 81.565l0.002-0.002zM400.817 452.27l374.271 374.271 120.723-120.723-374.271-374.271zM376.711 403.863l96.422-96.422-133.41-36.939zM959.247 769.253l-27.18-27.18-120.723 120.723 27.18 27.18c11.595 11.596 27.614 18.769 45.308 18.769s33.713-7.173 45.308-18.769v0l30.108-30.059c11.573-11.605 18.729-27.621 18.729-45.308 0-17.711-7.175-33.746-18.778-45.357v0z" />
<glyph unicode="&#xe905;" glyph-name="button-glass" horiz-adv-x="994" d="M690.069 291.513c63.811 69.647 102.911 162.846 102.911 265.177 0 217.105-175.998 393.103-393.103 393.103s-393.103-175.998-393.103-393.103c0-217.105 175.998-393.103 393.103-393.103 89.326 0 171.694 29.794 237.707 79.986l-0.968-0.706 296.101-296.101c6.404-6.602 15.33-10.727 25.219-10.815h0.017c0.037 0 0.080 0 0.124 0 9.884 0 18.798 4.149 25.097 10.8l0.015 0.016c6.407 6.589 10.358 15.595 10.358 25.524s-3.951 18.935-10.366 25.533l0.008-0.008zM72.054 561.802c0 180.124 146.020 326.144 326.144 326.144s326.144-146.020 326.144-326.144c0-180.124-146.020-326.144-326.144-326.144v0c-180.058 0.164-325.98 146.086-326.144 326.128v0.016z" />
<glyph unicode="&#xe906;" d="M582.051 112.407v269.731h272.244v134.982h-272.244v269.545h-136.145v-269.684h-272.244v-134.982h272.244v-269.684z" />
<glyph unicode="&#xe907;" d="M582.097 78.662h-136.145c-0.042 0-0.091 0-0.14 0-18.675 0-33.826 15.086-33.931 33.736v235.995h-238.22c-0.042 0-0.091 0-0.14 0-18.649 0-33.779 15.065-33.885 33.689v134.992c0.105 18.634 15.236 33.699 33.885 33.699 0.049 0 0.098 0 0.148 0h238.212v235.846c0.106 18.66 15.257 33.746 33.931 33.746 0.049 0 0.099 0 0.148 0h136.137c0.042 0 0.091 0 0.14 0 18.665 0 33.806-15.092 33.885-33.738v-235.993h238.22c0.042 0 0.091 0 0.14 0 18.649 0 33.779-15.065 33.885-33.689v-134.992c-0.079-18.654-15.22-33.746-33.885-33.746-0.049 0-0.098 0-0.148 0h-238.212v-235.985c-0.184-18.574-15.284-33.56-33.884-33.56-0.050 0-0.099 0-0.149 0h0.008zM207.732 483.235v-67.398h238.22c0.042 0 0.091 0 0.14 0 18.649 0 33.779-15.065 33.885-33.689v-235.995h68.049v235.939c0.132 18.64 15.273 33.699 33.931 33.699 0.049 0 0.099 0 0.148 0h238.212v67.444h-238.22c-0.042 0-0.091 0-0.14 0-18.675 0-33.826 15.086-33.931 33.736v235.949h-68.049v-235.985c-0.079-18.654-15.22-33.746-33.885-33.746-0.049 0-0.098 0-0.148 0h0.008z" />
<glyph unicode="&#xe908;" d="M1024 448c0-282.77-229.23-512-512-512s-512 229.23-512 512c0 282.77 229.23 512 512 512s512-229.23 512-512z" />
<glyph unicode="&#xe909;" d="M989.091 448c0-263.49-213.601-477.091-477.091-477.091s-477.091 213.601-477.091 477.091c0 263.49 213.601 477.091 477.091 477.091s477.091-213.601 477.091-477.091z" />
<glyph unicode="&#xe90a;" glyph-name="button-update-big" horiz-adv-x="951" d="M841.095 960c-20.203 0-36.581-16.378-36.581-36.581v0-133.507c-85.284 82.605-201.689 133.52-329.986 133.52-262.075 0-474.529-212.454-474.529-474.529 0-0.239 0-0.478 0.001-0.717v0.037c0-20.203 16.378-36.581 36.581-36.581s36.581 16.378 36.581 36.581v0c0.13 222.087 180.197 402.073 402.302 402.073 117.311 0 222.894-50.211 296.432-130.315l0.266-0.294-161.989-54.026c-14.693-5.011-25.073-18.694-25.073-34.801 0-20.262 16.426-36.688 36.688-36.688 4.155 0 8.149 0.691 11.873 1.964l-0.258-0.077 219.441 73.162c14.656 4.993 25.010 18.639 25.010 34.703 0 0.034 0 0.069 0 0.103v-0.005 219.397c0 0 0 0 0 0 0 20.203-16.378 36.581-36.581 36.581-0.063 0-0.125 0-0.188 0h0.010zM914.302 484.581c-20.203 0-36.581-16.378-36.581-36.581v0c-0.13-222.087-180.197-402.073-402.302-402.073-117.311 0-222.894 50.211-296.432 130.315l-0.266 0.294 161.989 54.026c15.315 4.615 26.278 18.594 26.278 35.133 0 20.228-16.398 36.625-36.625 36.625-4.578 0-8.961-0.84-13.001-2.375l-219.19-73.078c-14.656-4.993-25.010-18.639-25.010-34.703 0-0.034 0-0.069 0-0.103v0.005-219.441c0-20.203 16.378-36.581 36.581-36.581s36.581 16.378 36.581 36.581v0 133.507c85.289-82.631 201.712-133.563 330.031-133.563 262.075 0 474.529 212.454 474.529 474.529 0 0.301 0 0.603-0.001 0.904v-0.047c0 0.013 0 0.029 0 0.045 0 20.203-16.378 36.581-36.581 36.581v0z" />
<glyph unicode="&#xe90b;" glyph-name="button-update-small" horiz-adv-x="951" d="M841.153 960c-0.104 0.001-0.226 0.002-0.349 0.002-20.181 0-36.542-16.36-36.542-36.542 0-0.001 0-0.001 0-0.002v0-133.614c-85.298 82.926-201.883 134.060-330.411 134.060-261.895 0-474.203-212.308-474.203-474.203 0-0.549 0.001-1.099 0.003-1.648v0.086c0-20.201 16.376-36.576 36.576-36.576s36.576 16.376 36.576 36.576v0c0 0.037 0 0.081 0 0.125 0 222.187 180.118 402.306 402.306 402.306 117.507 0 223.248-50.379 296.801-130.716l0.273-0.303-161.996-54.045c-14.755-4.991-25.187-18.711-25.187-34.868 0-20.284 16.444-36.728 36.728-36.728 4.128 0 8.097 0.681 11.8 1.937l-0.259-0.076 219.389 73.432c14.67 4.996 25.035 18.654 25.035 34.733 0 0.047 0 0.095 0 0.142v-0.007 219.389c0 20.181-16.36 36.542-36.542 36.542v0zM914.236 484.542c-20.181 0-36.542-16.36-36.542-36.542v0c-0.067-222.137-180.16-402.188-402.306-402.188-117.325 0-222.92 50.223-296.459 130.343l-0.267 0.294 161.996 54.045c14.755 4.991 25.187 18.711 25.187 34.868 0 20.284-16.444 36.728-36.728 36.728-4.128 0-8.097-0.681-11.8-1.937l0.259 0.076-219.458-73.153c-14.67-4.996-25.035-18.654-25.035-34.733 0-0.047 0-0.095 0-0.142v0.007-219.458c0-20.201 16.376-36.576 36.576-36.576s36.576 16.376 36.576 36.576v0 133.614c85.298-82.926 201.883-134.060 330.411-134.060 261.895 0 474.203 212.308 474.203 474.203 0 0.549-0.001 1.099-0.003 1.648v-0.086c-0.040 20.151-16.385 36.472-36.541 36.472-0.025 0-0.049 0-0.074 0h0.004z" />
<glyph unicode="&#xe90c;" glyph-name="close" horiz-adv-x="1026" d="M54.14 929.308c-11.979-0.118-21.644-9.856-21.644-21.852 0-6.135 2.528-11.68 6.6-15.649l0.005-0.004 443.005-443.005-443.005-443.005c-5.084-4.038-8.315-10.219-8.315-17.154 0-12.069 9.784-21.853 21.853-21.853 6.936 0 13.117 3.231 17.12 8.27l0.034 0.045 443.005 443.005 443.005-443.005c4.038-5.084 10.219-8.315 17.154-8.315 12.069 0 21.853 9.784 21.853 21.853 0 6.936-3.231 13.117-8.27 17.12l-0.045 0.034-443.005 443.005 443.005 443.005c4.402 3.992 7.155 9.733 7.155 16.117 0 12.001-9.729 21.73-21.73 21.73-6.384 0-12.126-2.753-16.101-7.137l-0.016-0.018-443.005-443.005-443.005 443.005c-3.945 4.153-9.489 6.755-15.642 6.813h-0.011z" />
<glyph unicode="&#xe90d;" horiz-adv-x="841" d="M18.236 941.93v-985.296h801.99v757.869h-229.164v227.427z" />
<glyph unicode="&#xe90e;" horiz-adv-x="841" d="M821.88-64h-802.776c-0.012 0-0.027 0-0.042 0-10.499 0-19.015 8.488-19.062 18.975v986.044c0.047 10.492 8.563 18.98 19.062 18.98 0.015 0 0.029 0 0.044 0h573.445c0.008 0 0.017 0 0.026 0 5.269 0 10.040-2.133 13.496-5.583v0l229.37-227.427c3.471-3.384 5.624-8.105 5.624-13.329 0-0.024 0-0.048 0-0.072v0.004-758.613c-0.047-10.492-8.563-18.98-19.062-18.98-0.044 0-0.087 0-0.131 0h0.007zM38.208 922.082v-948.163h764.609v720.571h-210.267c-0.012 0-0.027 0-0.042 0-10.499 0-19.015 8.488-19.062 18.975v208.617z" />
<glyph unicode="&#xe90f;" glyph-name="error" d="M512 960c-282.77 0-512-229.23-512-512s229.23-512 512-512c282.77 0 512 229.23 512 512v0c0 282.77-229.23 512-512 512v0zM512 121.139c-0.176-0.002-0.383-0.003-0.591-0.003-36.986 0-66.97 29.983-66.97 66.97 0 1.37 0.041 2.73 0.122 4.079l-0.009-0.186c-0.072 1.164-0.113 2.524-0.113 3.894 0 36.986 29.983 66.97 66.97 66.97 0.208 0 0.416-0.001 0.623-0.003h-0.032c0.569 0.018 1.237 0.028 1.909 0.028 36.308 0 65.741-29.433 65.741-65.741 0-1.812-0.073-3.606-0.217-5.381l0.015 0.233c0.101-1.372 0.159-2.973 0.159-4.587 0-36.609-29.678-66.287-66.287-66.287-0.464 0-0.927 0.005-1.388 0.014l0.069-0.001zM538.556 391.612c-10.172-34.748-42.325-35.362-53.043 0-28.435 86.868-48.401 187.751-55.878 292.090l-0.237 4.119c0 132.71 166.025 133.325 166.025 0-8.3-108.697-28.499-209.512-59.455-305.496l2.589 9.287z" />
<glyph unicode="&#xe910;" glyph-name="filter-blue" d="M401.408-64c-30.483 0.715-54.92 25.595-54.92 56.183 0 2.242 0.131 4.454 0.387 6.627l-0.025-0.264v373.35c-1.218 17.395-6.888 33.254-15.867 46.718l0.22-0.351-305.971 403.415c-15.212 15.934-24.574 37.568-24.574 61.389 0 12.269 2.484 23.958 6.975 34.591l-0.219-0.584c16.595 26.284 45.486 43.486 78.395 43.486 3.58 0 7.112-0.204 10.586-0.6l-0.425 0.039h832.061c3.041 0.355 6.563 0.557 10.133 0.557 32.937 0 61.854-17.218 78.239-43.143l0.224-0.38c4.279-10.048 6.766-21.736 6.766-34.006 0-23.81-9.366-45.432-24.615-61.383l0.032 0.033-305.93-403.415c-8.769-13.109-14.441-28.97-15.63-46.066l-0.017-0.301v-226.345c-1.15-29.207-16.148-54.683-38.572-70.174l-0.299-0.195-197.714-126.566c-11.012-7.569-24.545-12.23-39.144-12.614l-0.096-0.002zM95.969 904.008c-23.183 0-34.611-6.226-37.601-12.042s-1.27-18.596 12.616-36.864l305.848-403.374c15.808-22.314 25.716-49.803 26.942-79.534l0.010-0.298v-373.35c0-0.051 0-0.111 0-0.171 0-1.982 0.194-3.92 0.564-5.794l-0.031 0.189c2.045 0.842 3.783 1.748 5.427 2.788l-0.143-0.085 197.755 126.607c7.013 5.713 11.784 13.945 12.926 23.298l0.017 0.172v226.345c1.242 30.022 11.133 57.508 27.226 80.302l-0.316-0.471 305.971 403.374c13.804 18.268 15.565 31.007 12.575 36.864s-14.459 12.042-37.642 12.042z" />
<glyph unicode="&#xe911;" glyph-name="filter-white" d="M401.408-64c-30.483 0.715-54.92 25.595-54.92 56.183 0 2.242 0.131 4.454 0.387 6.627l-0.025-0.264v373.35c-1.218 17.395-6.888 33.254-15.867 46.718l0.22-0.351-305.971 403.415c-15.212 15.934-24.574 37.568-24.574 61.389 0 12.269 2.484 23.958 6.975 34.591l-0.219-0.584c16.595 26.284 45.486 43.486 78.395 43.486 3.58 0 7.112-0.204 10.586-0.6l-0.425 0.039h832.061c3.041 0.355 6.563 0.557 10.133 0.557 32.937 0 61.854-17.218 78.239-43.143l0.224-0.38c4.279-10.048 6.766-21.736 6.766-34.006 0-23.81-9.366-45.432-24.615-61.383l0.032 0.033-305.93-403.415c-8.769-13.109-14.441-28.97-15.63-46.066l-0.017-0.301v-226.345c-1.15-29.207-16.148-54.683-38.572-70.174l-0.299-0.195-197.714-126.566c-11.012-7.569-24.545-12.23-39.144-12.614l-0.096-0.002zM95.969 904.008c-23.183 0-34.611-6.226-37.601-12.042s-1.27-18.596 12.616-36.864l305.848-403.374c15.808-22.314 25.716-49.803 26.942-79.534l0.010-0.298v-373.35c0-0.051 0-0.111 0-0.171 0-1.982 0.194-3.92 0.564-5.794l-0.031 0.189c2.045 0.842 3.783 1.748 5.427 2.788l-0.143-0.085 197.755 126.607c7.013 5.713 11.784 13.945 12.926 23.298l0.017 0.172v226.345c1.242 30.022 11.133 57.508 27.226 80.302l-0.316-0.471 305.971 403.374c13.804 18.268 15.565 31.007 12.575 36.864s-14.459 12.042-37.642 12.042z" />
<glyph unicode="&#xe912;" horiz-adv-x="1509" d="M935.625 508.232l-181.083-180.715-181.083 180.715-543.291-542.106h1448.749z" />
<glyph unicode="&#xe913;" horiz-adv-x="1509" d="M754.541 809.411c66.425-0.14 120.218-54.019 120.218-120.463 0-66.53-53.933-120.463-120.463-120.463s-120.463 53.933-120.463 120.463v0c0.070 66.545 54.031 120.463 120.586 120.463 0.043 0 0.086 0 0.129 0h-0.007z" />
<glyph unicode="&#xe914;" horiz-adv-x="1509" d="M1478.916-64.041h-1448.749c-16.661 0-30.167 13.506-30.167 30.167v0 963.748c0.023 16.643 13.521 30.126 30.167 30.126h1448.749c0 0 0 0 0 0 16.655 0 30.161-13.478 30.208-30.122v-963.752c-0.023-16.666-13.539-30.167-30.208-30.167v0zM935.666 465.638l-138.572-138.122 332-331.101h277.062l-470.49 469.223zM573.458 465.638l-470.408-469.386h940.734l-470.326 469.386zM60.375 899.789v-860.943l491.827 490.519c5.473 5.434 13.013 8.792 21.338 8.792s15.864-3.358 21.339-8.793l-0.002 0.002 159.746-159.419 159.787 159.419c5.473 5.434 13.013 8.792 21.338 8.792s15.864-3.358 21.339-8.793l-0.002 0.002 491.746-490.519v860.943z" />
<glyph unicode="&#xe915;" horiz-adv-x="1509" d="M754.541 538.358c-83.027 0.186-150.262 67.536-150.262 150.589 0 83.168 67.421 150.589 150.589 150.589s150.589-67.421 150.589-150.589v0c-0.371-83.133-67.757-150.405-150.899-150.589h-0.018zM754.541 779.325c-49.804-0.116-90.133-40.517-90.133-90.337 0-49.892 40.445-90.337 90.337-90.337s90.337 40.445 90.337 90.337v0c-0.116 49.917-40.609 90.337-90.541 90.337 0 0 0 0 0 0v0z" />
<glyph unicode="&#xe916;" horiz-adv-x="797" d="M17.272 942.885v-933.509h759.846v718.102h-217.099v215.407z" />
<glyph unicode="&#xe917;" horiz-adv-x="797" d="M778.731-10.138h-760.633c-0.012 0-0.026 0-0.039 0-9.96 0-18.036 8.063-18.059 18.017v934.141c0.045 9.94 8.113 17.98 18.059 17.98 0.014 0 0.028 0 0.042 0h543.296c4.988-0.009 9.504-2.020 12.788-5.273l-0.001 0.001 217.335-215.564c3.279-3.228 5.311-7.715 5.311-12.677 0-0.011 0-0.022 0-0.033v0.002-718.574c-0.022-9.957-8.099-18.019-18.059-18.019-0.014 0-0.028 0-0.042 0h0.002zM36.236 924.079v-898.297h724.397v682.693h-199.237c-0.012 0-0.026 0-0.040 0-9.946 0-18.014 8.040-18.059 17.976v197.628zM579.534 898.663v-154.267h155.487z" />
<glyph unicode="&#xe918;" horiz-adv-x="797" d="M476.846 151.171v-187.67l89.979 62.281 89.979-62.281v169.729l-67.671-21.796-76.288 21.796z" />
<glyph unicode="&#xe919;" horiz-adv-x="797" d="M638.825 151.171v-159.932l-60.747 48.393c-3.056 2.451-6.981 3.934-11.252 3.934s-8.196-1.483-11.288-3.962l0.036 0.028-60.707-48.393v159.932h-36v-197.27c0.010-9.923 8.056-17.963 17.98-17.963 4.275 0 8.201 1.492 11.287 3.983l-0.034-0.027 78.688 62.95 78.688-62.95c3.047-2.439 6.958-3.914 11.213-3.914 9.917 0 17.963 8.011 18.019 17.915v197.275z" />
<glyph unicode="&#xe91a;" horiz-adv-x="797" d="M708.188 253.032c0-76.051-61.652-137.703-137.703-137.703s-137.703 61.652-137.703 137.703c0 76.051 61.652 137.703 137.703 137.703s137.703-61.652 137.703-137.703z" />
<glyph unicode="&#xe91b;" horiz-adv-x="797" d="M566.865 97.545c-88.835 0.335-160.719 72.427-160.719 161.308 0 89.089 72.221 161.309 161.309 161.309s161.309-72.22 161.309-161.308v0c-0.313-89.156-72.66-161.309-161.859-161.309-0.014 0-0.028 0-0.043 0h0.002zM566.865 384.48c-69.168-0.224-125.152-56.347-125.152-125.545 0-69.337 56.209-125.546 125.546-125.546 69.309 0 125.501 56.164 125.546 125.462v0.004c-0.246 69.346-56.519 125.467-125.899 125.467-0.014 0-0.028 0-0.042 0h0.002z" />
<glyph unicode="&#xe91c;" horiz-adv-x="797" d="M566.865 169.112c-49.402 0.157-89.389 40.241-89.389 89.664 0 49.52 40.144 89.664 89.664 89.664s89.664-40.144 89.664-89.664v0c-0.157-49.554-40.364-89.664-89.939-89.664 0 0 0 0 0 0v0zM566.865 312.598c-29.619-0.112-53.586-24.148-53.586-53.783 0-29.703 24.079-53.783 53.783-53.783 29.69 0 53.76 24.057 53.783 53.741v0.002c-0.089 29.744-24.223 53.822-53.979 53.822 0 0 0 0 0 0v0z" />
<glyph unicode="&#xe91d;" glyph-name="notification" horiz-adv-x="1014" d="M506.832-64.188c-0.905-0.018-1.972-0.028-3.042-0.028-90.552 0-164.183 72.45-166.087 162.546l-0.003 0.178h59.666c0.051-29.278 12.328-55.679 31.997-74.377l0.044-0.041c19.86-19.103 46.899-30.868 76.685-30.868 0.194 0 0.388 0 0.582 0.001h-0.030c0.552-0.010 1.203-0.016 1.855-0.016 58.596 0 106.241 46.885 107.468 105.186l0.002 0.114h59.619c-1.911-90.271-75.54-162.717-166.090-162.717-0.937 0-1.873 0.008-2.807 0.023l0.141-0.002zM944.32 136.985h-874.741c-0.354-0.007-0.772-0.010-1.191-0.010-37.254 0-67.552 29.78-68.387 66.834l-0.001 0.078v19.262c1.399 66.293 53.446 119.991 118.927 124.013l0.358 0.018v239.604c4.341 207.073 173.23 373.275 380.938 373.275 2.324 0 4.643-0.021 6.957-0.062l-0.348 0.005c1.967 0.037 4.286 0.057 6.61 0.057 207.717 0 376.617-166.197 380.977-372.869l0.007-0.406v-239.604c65.819-4.063 117.841-57.752 119.236-123.895l0.002-0.135v-19.262c-0.838-37.129-31.136-66.908-68.388-66.908-0.336 0-0.672 0.002-1.007 0.007l0.051-0.001zM507.067 902.777c-1.655 0.031-3.608 0.048-5.564 0.048-175.762 0-318.677-140.633-322.358-315.512l-0.006-0.343v-249c-0.443-26.566-22.083-47.932-48.713-47.932-0.366 0-0.73 0.004-1.094 0.012l0.054-0.001c-0.396 0.008-0.863 0.013-1.332 0.013-37.281 0-67.6-29.803-68.434-66.883l-0.001-0.078v-19.262c0.207-5.234 4.499-9.398 9.765-9.398 0.069 0 0.137 0.001 0.205 0.002h874.731c0.099-0.004 0.215-0.006 0.332-0.006 5.239 0 9.5 4.182 9.628 9.39v19.274c-0.835 37.158-31.155 66.961-68.435 66.961-0.468 0-0.935-0.005-1.401-0.014l0.070 0.001c-0.24-0.004-0.524-0.007-0.808-0.007-26.553 0-48.14 21.263-48.663 47.691l-0.001 0.049v249c-3.685 175.224-146.601 315.86-322.364 315.86-2.055 0-4.106-0.019-6.152-0.058l0.307 0.005z" />
<glyph unicode="&#xe91e;" horiz-adv-x="841" d="M18.234 941.937v-985.31h802.032v757.929h-229.148v227.381z" />
<glyph unicode="&#xe91f;" horiz-adv-x="841" d="M821.946-64h-802.829c-0.017 0-0.037 0-0.057 0-10.497 0-19.011 8.485-19.060 18.97v986.056c0.049 10.49 8.563 18.975 19.060 18.975 0.020 0 0.040 0 0.060 0h573.479c5.285-0.045 10.055-2.215 13.503-5.697l0.001-0.001 229.376-227.552c3.504-3.404 5.683-8.155 5.698-13.416v-758.359c-0.048-10.49-8.563-18.975-19.060-18.975-0.060 0-0.12 0-0.18 0.001h0.009zM38.234 922.079v-948.159h764.624v720.578h-210.259c-0.009 0-0.019 0-0.029 0-10.497 0-19.011 8.485-19.060 18.97v208.611zM611.688 895.27v-162.851h164.104z" />
<glyph unicode="&#xe920;" horiz-adv-x="990" d="M209.238 687.299v218.891c0 0.025 0 0.055 0 0.085 0 19.15 15.524 34.675 34.675 34.675 0.030 0 0.060 0 0.090 0h501.437c0.025 0 0.055 0 0.085 0 19.15 0 34.675-15.524 34.675-34.675 0-0.030 0-0.060 0-0.090v0.005-219.089z" />
<glyph unicode="&#xe921;" horiz-adv-x="990" d="M745.667-44.752h-501.442c-0.025 0-0.055 0-0.085 0-19.15 0-34.675 15.524-34.675 34.675 0 0.030 0 0.060 0 0.090v-0.005 442.169h571.188v-442.367c-0.224-19.136-15.788-34.562-34.956-34.562-0.011 0-0.021 0-0.032 0h0.002z" />
<glyph unicode="&#xe922;" horiz-adv-x="990" d="M745.638-64h-501.414c-29.703 0-53.782 24.079-53.782 53.782v0 168.421h-105.808c-46.723 0.048-84.587 37.912-84.635 84.63v378.712c0.064 46.711 37.922 84.559 84.63 84.607h105.558v200.067c0 29.703 24.079 53.782 53.782 53.782 0.010 0 0.020 0 0.030 0h501.44c29.703 0 53.782-24.079 53.782-53.782v0-199.841h105.978c46.713-0.048 84.571-37.896 84.635-84.601v-378.939c-0.048-46.723-37.912-84.587-84.63-84.635h-105.728v-168.393c0-0.008 0-0.018 0-0.028 0-29.703-24.079-53.782-53.782-53.782-0.020 0-0.040 0-0.060 0h0.003zM228.515 413.325v-423.289c0.016-8.67 7.040-15.694 15.708-15.71h501.642c8.664 0.016 15.682 7.043 15.682 15.71 0 0 0 0 0 0v0 423.289zM84.635 668.221c-25.674-0.016-46.487-20.809-46.535-46.474v-379.136c0.048-25.67 20.861-46.463 46.534-46.479h105.781v236.044c0.016 10.515 8.535 19.034 19.048 19.050h570.964c10.515-0.016 19.034-8.535 19.050-19.048v-235.848h105.78c25.672 0.032 46.475 20.835 46.507 46.504v378.908c-0.032 25.672-20.835 46.475-46.504 46.507h-0.003zM243.998 921.9c-8.664-0.016-15.682-7.043-15.682-15.71 0 0 0 0 0 0v0-200.039h532.833v200.067c-0.016 8.67-7.040 15.694-15.708 15.71h-0.002z" />
<glyph unicode="&#xe923;" horiz-adv-x="990" d="M641.953 212.663h-294.072c-10.529 0-19.064-8.535-19.064-19.064s8.535-19.064 19.064-19.064v0h294.383c10.502 0.048 19.002 8.548 19.050 19.045v0.005c-0.128 10.564-8.721 19.078-19.303 19.078-0.020 0-0.041 0-0.061 0h0.003z" />
<glyph unicode="&#xe924;" horiz-adv-x="990" d="M641.953 94.967h-294.072c-10.529 0-19.064-8.535-19.064-19.064s8.535-19.064 19.064-19.064v0h294.383c10.502 0.048 19.002 8.548 19.050 19.045v0.005c-0.128 10.564-8.721 19.078-19.303 19.078-0.020 0-0.041 0-0.061 0h0.003z" />
<glyph unicode="&#xe925;" horiz-adv-x="990" d="M641.953 330.388h-294.072c-10.529 0-19.064-8.535-19.064-19.064s8.535-19.064 19.064-19.064v0h294.383c10.502 0.048 19.002 8.548 19.050 19.045v0.005c-0.128 10.564-8.721 19.078-19.303 19.078-0.020 0-0.041 0-0.061 0h0.003z" />
<glyph unicode="&#xe926;" glyph-name="qrcode" horiz-adv-x="1025" d="M123.761 818.633v-277.932c0-11.109 9.006-20.115 20.115-20.115v0h277.932c11.109 0 20.115 9.006 20.115 20.115v0 52.731c0.014 0.278 0.022 0.605 0.022 0.933 0 11.109-9.006 20.115-20.115 20.115s-20.115-9.006-20.115-20.115c0-0.328 0.008-0.654 0.023-0.978l-0.002 0.046v-32.616h-237.788v237.745h237.918v-48.406c-0.014-0.278-0.022-0.605-0.022-0.933 0-11.109 9.006-20.115 20.115-20.115s20.115 9.006 20.115 20.115c0 0.328-0.008 0.654-0.023 0.978l0.002-0.046v68.477c0 0 0 0 0 0 0 11.109-9.006 20.115-20.115 20.115-0.046 0-0.091 0-0.137 0h-277.925c-11.109 0-20.115-9.006-20.115-20.115v0zM324.52 617.874h-83.401c-11.091 0.025-20.072 9.021-20.072 20.115 0 0 0 0 0 0v0 83.401c0.025 11.075 8.996 20.047 20.069 20.072h83.403c11.075-0.025 20.047-8.996 20.072-20.069v-83.403c0 0 0 0 0 0 0-11.094-8.981-20.090-20.069-20.115h-0.002zM261.234 701.275v-43.258h43.258v43.258zM421.807 58.896h-277.975c-11.091 0.025-20.072 9.021-20.072 20.115 0 0 0 0 0 0v0 277.975c0.025 11.075 8.996 20.047 20.069 20.072h277.977c0 0 0 0 0 0 11.094 0 20.090-8.981 20.115-20.069v-277.977c-0.025-11.099-9.016-20.090-20.113-20.115h-0.002zM163.947 336.871v-237.918h237.918v237.918zM884.883 520.587h-277.975c-11.091 0.025-20.072 9.021-20.072 20.115 0 0 0 0 0 0v0 277.975c0.025 11.075 8.996 20.047 20.069 20.072h277.977c11.075-0.025 20.047-8.996 20.072-20.069v-277.977c0 0 0 0 0 0 0-11.094-8.981-20.090-20.069-20.115h-0.002zM627.023 798.562v-237.918h237.918v237.918zM884.883 58.896h-277.975c-11.091 0.025-20.072 9.021-20.072 20.115 0 0 0 0 0 0v0 277.975c0.025 11.075 8.996 20.047 20.069 20.072h277.977c11.075-0.025 20.047-8.996 20.072-20.069v-277.977c0 0 0 0 0 0 0-11.094-8.981-20.090-20.069-20.115h-0.002zM627.023 336.871v-237.918h237.918v237.918zM884.839 427.539c10.701 0.512 19.182 9.312 19.182 20.093s-8.482 19.581-19.137 20.092l-0.046 0.002h-352.335v353.114c0.014 0.278 0.022 0.605 0.022 0.933 0 11.109-9.006 20.115-20.115 20.115s-20.115-9.006-20.115-20.115c0-0.328 0.008-0.654 0.023-0.978l-0.002 0.046v-353.114h-266.771c-10.701-0.512-19.182-9.312-19.182-20.093s8.482-19.581 19.137-20.092l0.046-0.002h266.771v-348.485c0.512-10.701 9.312-19.182 20.093-19.182s19.581 8.482 20.092 19.137l0.002 0.046v348.485zM324.52 154.712h-83.401c-11.091 0.025-20.072 9.021-20.072 20.115 0 0 0 0 0 0v0 83.401c0.025 11.075 8.996 20.047 20.069 20.072h83.403c11.075-0.025 20.047-8.996 20.072-20.069v-83.403c0 0 0 0 0 0 0-11.094-8.981-20.090-20.069-20.115h-0.002zM261.234 238.113v-43.258h43.258v43.258zM787.553 617.874h-83.401c-11.091 0.025-20.072 9.021-20.072 20.115 0 0 0 0 0 0v0 83.401c0.025 11.075 8.996 20.047 20.069 20.072h83.403c11.075-0.025 20.047-8.996 20.072-20.069v-83.403c0 0 0 0 0 0 0-11.094-8.981-20.090-20.069-20.115h-0.002zM724.31 701.275v-43.258h43.258v43.258zM787.553 154.712h-83.401c-11.091 0.025-20.072 9.021-20.072 20.115 0 0 0 0 0 0v0 83.401c0.025 11.075 8.996 20.047 20.069 20.072h83.403c11.075-0.025 20.047-8.996 20.072-20.069v-83.403c0 0 0 0 0 0 0-11.094-8.981-20.090-20.069-20.115h-0.002zM724.31 238.113v-43.258h43.258v43.258zM139.809 467.639l-1.081-0.26c-9.957-1.31-17.563-9.743-17.563-19.952 0-11.109 9.006-20.115 20.115-20.115 2.387 0 4.678 0.416 6.802 1.179l-0.14-0.044 1.254 0.043c7.902 2.833 13.453 10.258 13.453 18.98 0 11.109-9.006 20.115-20.115 20.115-0.9 0-1.786-0.059-2.654-0.174l0.102 0.011zM417.741 691.845l-1.081-0.26c-8.9-2.203-15.394-10.119-15.394-19.553 0-11.061 8.928-20.037 19.972-20.114h0.007c0.035 0 0.076 0 0.117 0 1.6 0 3.156 0.189 4.647 0.547l-0.135-0.027 1.254 0.26c7.889 2.839 13.429 10.258 13.429 18.971 0 11.109-9.006 20.115-20.115 20.115-0.876 0-1.739-0.056-2.585-0.165l0.1 0.010zM20.072 795.404c0.013 0 0.028 0 0.043 0 11.085 0 20.072 8.986 20.072 20.072 0 0 0 0 0 0v0 104.338h100.531c0.278-0.014 0.605-0.022 0.933-0.022 11.109 0 20.115 9.006 20.115 20.115s-9.006 20.115-20.115 20.115c-0.328 0-0.654-0.008-0.978-0.023l0.046 0.002h-120.646c-11.091-0.025-20.072-9.021-20.072-20.115 0 0 0 0 0 0v0-124.41c0.025-11.075 8.996-20.047 20.069-20.072h0.002zM1004.75 960h-120.603c-0.278 0.014-0.605 0.022-0.933 0.022-11.109 0-20.115-9.006-20.115-20.115s9.006-20.115 20.115-20.115c0.328 0 0.654 0.008 0.978 0.023l-0.046-0.002h100.531v-104.338c0.512-10.701 9.312-19.182 20.093-19.182s19.581 8.482 20.092 19.137l0.002 0.046v124.41c0 11.109-9.006 20.115-20.115 20.115v0zM140.718-23.813h-100.531v104.338c-0.512 10.701-9.312 19.182-20.093 19.182s-19.581-8.482-20.092-19.137l-0.002-0.046v-124.453c0 0 0 0 0 0 0-11.094 8.981-20.090 20.069-20.115h120.648c0.278-0.014 0.605-0.022 0.933-0.022 11.109 0 20.115 9.006 20.115 20.115s-9.006 20.115-20.115 20.115c-0.328 0-0.654-0.008-0.978-0.023l0.046 0.002zM1004.75 100.596c-0.013 0-0.028 0-0.043 0-11.085 0-20.072-8.986-20.072-20.072 0 0 0 0 0 0v0-104.338h-100.488c-0.278 0.014-0.605 0.022-0.933 0.022-11.109 0-20.115-9.006-20.115-20.115s9.006-20.115 20.115-20.115c0.328 0 0.654 0.008 0.978 0.023l-0.046-0.002h120.603c11.091 0.025 20.072 9.021 20.072 20.115 0 0 0 0 0 0v0 124.41c-0.025 11.075-8.996 20.047-20.069 20.072h-0.002z" />
<glyph unicode="&#xe927;" d="M512 960c-282.77 0-512-229.23-512-512s229.23-512 512-512c282.77 0 512 229.23 512 512v0c0 282.77-229.23 512-512 512v0z" />
<glyph unicode="&#xe928;" d="M409.873 218.010l-245.214 192.649 81.92 64.239 163.294-128.478 367.753 289.041 81.92-64.239z" />
<glyph unicode="&#xe929;" glyph-name="select-bottom" horiz-adv-x="1734" d="M1705.899 874.929l-56.835 57.199c-17.182 17.13-40.892 27.722-67.075 27.722s-49.893-10.592-67.077-27.724l-647.845-647.845-648.937 648.089c-17.196 17.101-40.901 27.672-67.075 27.672s-49.879-10.571-67.079-27.676l-56.831-56.831c-17.159-17.169-27.772-40.883-27.772-67.075s10.612-49.906 27.772-67.075v0l772.666-775.332c16.98-17.996 40.692-29.481 67.089-30.412l0.167-0.005c26.476 1.003 50.090 12.475 66.97 30.369l0.045 0.048 771.454 772.908c17.152 17.295 27.752 41.112 27.752 67.405 0 0.118 0 0.237-0.001 0.355v-0.018c0.008 0.454 0.012 0.989 0.012 1.526 0 26.007-10.463 49.57-27.408 66.71l0.009-0.009z" />
<glyph unicode="&#xe92a;" glyph-name="select-top" horiz-adv-x="1734" d="M27.751 21.071l56.835-57.199c17.182-17.13 40.892-27.722 67.075-27.722s49.893 10.592 67.077 27.724l647.845 647.845 648.937-648.089c17.196-17.101 40.901-27.672 67.075-27.672s49.879 10.571 67.079 27.676l56.831 56.831c17.159 17.169 27.772 40.883 27.772 67.075s-10.612 49.906-27.772 67.075v0l-772.666 775.332c-16.98 17.996-40.692 29.481-67.089 30.412l-0.167 0.005c-26.476-1.003-50.090-12.475-66.97-30.369l-0.045-0.048-771.454-772.908c-17.152-17.295-27.752-41.112-27.752-67.405 0-0.118 0-0.237 0.001-0.355v0.018c-0.008-0.454-0.012-0.989-0.012-1.526 0-26.007 10.463-49.57 27.408-66.71l-0.009 0.009z" />
<glyph unicode="&#xe92b;" glyph-name="trash" horiz-adv-x="768" d="M661.322 874.997h-114.825l-13.175 26.068c-17.797 35.213-53.696 58.936-95.136 58.936-0.098 0-0.197 0-0.295 0h-107.797c-0.083 0-0.181 0-0.28 0-41.44 0-77.339-23.723-94.857-58.329l-0.279-0.607-13.175-26.351h-114.825c-58.909-0.081-106.638-47.834-106.678-106.746v-42.505c0-11.736 9.514-21.251 21.251-21.251h725.357c11.736 0 21.251 9.514 21.251 21.251v0 42.501c0 0.063 0 0.138 0 0.213 0 58.896-47.664 106.659-106.522 106.82h-0.015zM725.074 746.997h-682.572v21.251c0 35.209 28.543 63.752 63.752 63.752v0h128c0.012 0 0.027 0 0.042 0 8.277 0 15.448 4.732 18.957 11.638l0.056 0.121 19.126 38.18c10.641 21.238 32.238 35.561 57.18 35.561 0.169 0 0.337-0.001 0.505-0.002h107.786c0.037 0 0.081 0 0.126 0 24.886 0 46.442-14.259 56.942-35.053l0.167-0.365 19.055-38.18c3.565-7.027 10.736-11.759 19.013-11.759 0.015 0 0.029 0 0.044 0h127.998c35.209 0 63.752-28.543 63.752-63.752v0-21.251zM703.965 746.643h-640c-11.736 0-21.251-9.514-21.251-21.251v0-639.858c0.081-82.436 66.886-149.241 149.314-149.322h384.008c82.405 0.121 149.17 66.911 149.251 149.314v640.008c-0.080 11.675-9.564 21.109-21.25 21.109-0.025 0-0.050 0-0.075 0h0.004zM682.714 85.322c-0.081-58.884-47.794-106.598-106.671-106.678h-384.079c-58.934 0.081-106.678 47.875-106.678 106.82 0 0.025 0 0.050 0 0.075v-0.004 618.678h597.357v-618.678zM191.965 618.643c-11.736 0-21.251-9.514-21.251-21.251v0-512.354c0-11.736 9.514-21.251 21.251-21.251s21.251 9.514 21.251 21.251v512c0.002 0.105 0.003 0.23 0.003 0.354 0 11.736-9.514 21.251-21.251 21.251-0.001 0-0.002 0-0.003 0v0zM319.965 618.643c-11.736 0-21.251-9.514-21.251-21.251v0-512.354c0-11.736 9.514-21.251 21.251-21.251s21.251 9.514 21.251 21.251v512c0.002 0.105 0.003 0.23 0.003 0.354 0 11.736-9.514 21.251-21.251 21.251-0.001 0-0.002 0-0.003 0v0zM447.965 618.643c-11.736 0-21.251-9.514-21.251-21.251v0-512.354c0-11.736 9.514-21.251 21.251-21.251s21.251 9.514 21.251 21.251v0 512c0.002 0.105 0.003 0.23 0.003 0.354 0 11.736-9.514 21.251-21.251 21.251-0.001 0-0.002 0-0.003 0v0zM575.965 618.643c-11.736 0-21.251-9.514-21.251-21.251v0-512.354c0-11.736 9.514-21.251 21.251-21.251s21.251 9.514 21.251 21.251v0 512c0.002 0.105 0.003 0.23 0.003 0.354 0 11.736-9.514 21.251-21.251 21.251-0.001 0-0.002 0-0.003 0v0z" />
<glyph unicode="&#xe92c;" horiz-adv-x="1210" d="M608.772 666.053l-117.823-117.584-117.823 117.584-353.497-352.726h942.641z" />
<glyph unicode="&#xe92d;" horiz-adv-x="1210" d="M490.949 862.018c43.22-0.091 78.221-35.148 78.221-78.38 0-43.288-35.092-78.381-78.381-78.381s-78.38 35.092-78.381 78.38v0c0.045 43.298 35.156 78.381 78.46 78.381 0.028 0 0.056 0 0.084 0h-0.004z" />
<glyph unicode="&#xe92e;" horiz-adv-x="1210" d="M962.269 293.699h-942.641c-10.84 0-19.628 8.788-19.628 19.628v0 627.071c0.015 10.829 8.797 19.602 19.628 19.602h942.641c0 0 0 0 0 0 10.836 0 19.625-8.77 19.655-19.599v-627.074c-0.015-10.844-8.809-19.628-19.655-19.628v0zM608.799 638.339l-90.163-89.87 216.018-215.433h180.273l-306.128 305.304zM373.125 638.339l-306.075-305.41h612.097l-306.022 305.41zM39.283 920.823v-560.18l320.012 319.161c3.561 3.535 8.467 5.72 13.883 5.72s10.322-2.185 13.885-5.721l-0.001 0.001 103.94-103.727 103.967 103.727c3.561 3.535 8.467 5.72 13.883 5.72s10.322-2.185 13.885-5.721l-0.001 0.001 319.958-319.161v560.18z" />
<glyph unicode="&#xe92f;" horiz-adv-x="1210" d="M490.949 685.655c-54.023 0.121-97.77 43.943-97.77 97.982 0 54.114 43.868 97.982 97.982 97.982s97.982-43.868 97.982-97.982v0c-0.241-54.091-44.086-97.862-98.183-97.982h-0.012zM490.949 842.443c-32.405-0.076-58.646-26.363-58.646-58.779 0-32.463 26.316-58.779 58.779-58.779s58.779 26.316 58.779 58.779v0c-0.076 32.479-26.422 58.779-58.912 58.779 0 0 0 0 0 0v0z" />
<glyph unicode="&#xe930;" horiz-adv-x="1210" d="M1173.394 268.007c0-163.018-132.438-295.17-295.809-295.17s-295.809 132.152-295.809 295.17c0 163.018 132.438 295.17 295.809 295.17s295.809-132.152 295.809-295.17z" />
<glyph unicode="&#xe931;" horiz-adv-x="1210" d="M1191.799 268.007c0-173.183-140.678-313.575-314.214-313.575s-314.214 140.392-314.214 313.575c0 173.183 140.678 313.575 314.214 313.575s314.214-140.392 314.214-313.575z" />
<glyph unicode="&#xe932;" horiz-adv-x="1210" d="M915.645 51.244h-78.567c-0.008 0-0.017 0-0.027 0-10.822 0-19.598 8.758-19.628 19.572v212.936l-85.615-71.199c-3.38-2.838-7.779-4.562-12.58-4.562-10.836 0-19.621 8.78-19.628 19.615v97.983c0 0.003 0 0.008 0 0.012 0 5.864 2.586 11.125 6.68 14.703l0.023 0.020 157.107 137.159c3.436 3.024 7.972 4.869 12.939 4.869s9.504-1.845 12.961-4.887l-0.022 0.019 157.133-137.186c4.101-3.606 6.676-8.864 6.676-14.724 0-0.004 0-0.008 0-0.011v0.001-97.956c-0.020-10.825-8.8-19.593-19.628-19.593-4.789 0-9.177 1.715-12.585 4.565l0.031-0.025-85.641 71.199v-212.933c-0.030-10.818-8.807-19.575-19.628-19.575 0 0 0 0 0 0v0zM837.078 344.26c10.805-0.015 19.56-8.77 19.575-19.574v-235.169h39.337v235.168c0 0.012 0 0.027 0 0.042 0 10.855 8.8 19.655 19.655 19.655 4.849 0 9.287-1.756 12.715-4.666l-0.028 0.023 85.615-71.199v47.236l-137.585 120.031-137.478-120.031v-47.236l85.721 71.199c3.361 2.796 7.716 4.5 12.469 4.521h0.005z" />
<glyph unicode="&#xe933;" horiz-adv-x="1210" d="M1013.813 268.539l-85.615 71.173c-3.38 2.838-7.779 4.562-12.58 4.562-10.836 0-19.621-8.78-19.628-19.615v-235.143h-39.283v235.168c-0.040 10.825-8.824 19.585-19.655 19.585-4.788 0-9.176-1.712-12.585-4.557l0.031 0.025-85.615-71.199v47.236l137.478 120.031 137.478-120.031z" />
<glyph unicode="&#xe934;" horiz-adv-x="1087" d="M1064.482 176.708l-384.137 705.604c-28.343 46.857-79.024 77.697-136.909 77.697s-108.566-30.84-136.509-76.986l-0.4-0.711-384.137-705.604c-14.068-23.245-22.392-51.329-22.392-81.357 0-29.124 7.831-56.42 21.502-79.896l-0.407 0.757c27.418-48.222 78.448-80.218 136.951-80.218 0.429 0 0.858 0.002 1.286 0.005h768.207c0.363-0.003 0.791-0.005 1.22-0.005 58.503 0 109.533 31.996 136.546 79.444l0.406 0.774c13.285 22.732 21.128 50.048 21.128 79.197 0 30.004-8.311 58.067-22.757 82.012l0.4-0.714z" />
<glyph unicode="&#xe935;" horiz-adv-x="1087" d="M1066.53 16.213c-25.692-48.065-75.537-80.213-132.89-80.213-0.033 0-0.066 0-0.099 0h-369.659v1024c56.328-0.298 105.369-31.212 131.362-76.937l0.393-0.751 369.664-705.604c13.545-23.374 21.538-51.427 21.538-81.346 0-29.034-7.527-56.311-20.737-79.984l0.428 0.835z" />
<glyph unicode="&#xe936;" horiz-adv-x="1087" d="M1012.053 142.575l-386.048 709.359c-17.122 28.218-47.677 46.782-82.569 46.782s-65.447-18.565-82.328-46.355l-0.241-0.427-386.048-709.359c-8.236-13.909-13.103-30.657-13.103-48.541 0-52.984 42.719-95.991 95.594-96.457h772.208c53.005 0.354 95.837 43.404 95.837 96.459 0 18.023-4.943 34.891-13.546 49.323l0.244-0.442z" />
<glyph unicode="&#xe937;" horiz-adv-x="1087" d="M1013.214 45.909c-15.224-29.081-45.158-48.6-79.657-48.674h-369.674v901.461c33.879-0.011 63.393-18.688 78.818-46.305l0.235-0.458 369.664-709.359c8.139-14.046 12.941-30.902 12.941-48.88 0-17.537-4.57-34.006-12.584-48.283l0.257 0.497z" />
<glyph unicode="&#xe938;" horiz-adv-x="1087" d="M543.607 58.266c-33.932 0-61.44 27.508-61.44 61.44s27.508 61.44 61.44 61.44c33.932 0 61.44-27.508 61.44-61.44v0c0-33.932-27.508-61.44-61.44-61.44v0z" />
<glyph unicode="&#xe939;" horiz-adv-x="1087" d="M605.047 303.684c0-33.932-27.508-61.44-61.44-61.44s-61.44 27.508-61.44 61.44v0 306.244c0 33.932 27.508 61.44 61.44 61.44s61.44-27.508 61.44-61.44v0z" />
<glyph unicode="&#xe93a;" horiz-adv-x="1087" d="M606.14 119.706c0 33.932-27.508 61.44-61.44 61.44v0-122.88c33.932 0 61.44 27.508 61.44 61.44v0z" />
<glyph unicode="&#xe93b;" horiz-adv-x="1087" d="M606.14 303.684v306.244c0 33.932-27.508 61.44-61.44 61.44v0-428.988c0 0 0 0 0 0 33.884 0 61.362 27.43 61.44 61.296v0.007z" />
<glyph unicode="&#xe93c;" horiz-adv-x="841" d="M18.234 941.937v-985.31h802.032v757.929h-229.148v227.381z" />
<glyph unicode="&#xe93d;" horiz-adv-x="841" d="M821.946-64h-802.829c-0.017 0-0.037 0-0.057 0-10.497 0-19.011 8.485-19.060 18.97v986.056c0.049 10.49 8.563 18.975 19.060 18.975 0.020 0 0.040 0 0.060 0h573.479c5.285-0.045 10.055-2.215 13.503-5.697l0.001-0.001 229.376-227.552c3.504-3.404 5.683-8.155 5.698-13.416v-758.359c-0.048-10.49-8.563-18.975-19.060-18.975-0.060 0-0.12 0-0.18 0.001h0.009zM38.234 922.079v-948.159h764.624v720.578h-210.259c-0.009 0-0.019 0-0.029 0-10.497 0-19.011 8.485-19.060 18.97v208.611zM611.688 895.27v-162.851h164.104z" />
</font>
</defs>
</svg>
